<svg width="152" height="398" viewBox="0 0 152 398" fill="none" xmlns="http://www.w3.org/2000/svg">
<path d="M134.993 381.605L142.417 377.332L149.594 381.441L152 382.817V379.92L143.671 375.133V354.506L152 349.698V346.802L142.355 352.328L136.186 348.794L124.403 341.994V321.326L136.186 314.525L142.355 310.991L147.99 314.258L151.938 316.518V313.642L143.61 308.834V288.166L151.938 283.358V280.461L149.512 281.879L142.355 285.988L134.952 281.735L124.444 275.674V255.006L133.06 250.034L142.355 244.672L151.691 250.055L151.938 250.198V247.302L150.725 246.603L143.61 242.494V221.887L151.938 217.08V214.203H151.794L142.355 219.668L132.978 214.265L124.444 209.334V188.666L132.135 184.228L142.417 178.332L152 183.858V180.961L143.671 176.174V155.506L152 150.698V147.802L150.622 148.603L142.397 153.328L134.13 148.541L124.547 142.994V122.326L135.055 116.265L142.458 111.991L149.615 116.1L152.041 117.518V114.642L143.713 109.834V89.1658L150.478 85.2622L152.041 84.3583V81.4614L148.093 83.7419L142.355 87.0086L136.186 83.4748L124.403 76.6744V56.006L132.937 51.0752L142.355 45.6718L151.774 51.1163H151.938V48.3016L143.61 43.494V22.8256L151.938 18.0386V15.1418L148.093 17.3606L142.355 20.6684L136.289 17.1757L124.506 10.2726V0H121.997V10.2726L110.851 16.7032L104.085 20.6068L97.0731 16.4977L86.174 10.2726V0H83.6652V10.2726L72.4372 16.8265L65.795 20.6684L59.3789 16.9703L47.7602 10.2726V0H45.2513V10.2726L33.7354 16.9086L27.34 20.6068L21.1707 17.073L9.49025 10.2726V0H7.00198V10.2726L-5.19256 17.299L-10.93 20.6068L-17.0992 17.1141L-28.8414 10.2726V0H-31.3296V10.2726L-42.4754 16.7032L-49.2616 20.6068L-56.2534 16.4977L-67.173 10.2726V0H-69.6818V10.2726L-80.951 16.7648L-87.5932 20.6068L-93.9887 16.9086L-105.505 10.2726V0H-108.013V10.2726L-119.509 16.9703L-125.925 20.6684L-132.094 17.1346L-143.836 10.2726V0H-146.345V10.2726L-158.519 17.3606L-164.256 20.6684L-170.426 17.1757L-182.168 10.2726V0H-184.615V10.2726L-195.802 16.7648L-202.588 20.6684L-209.58 16.5594L-220.499 10.2726V0H-223.008V10.2726L-234.277 16.8265L-240.92 20.6684L-247.315 16.9703L-258.831 10.2726V0H-261.34V10.2726L-272.856 16.9086L-279.21 20.6684L-285.379 17.1346L-297.163 10.2726V0H-299.672V10.2726L-308 15.1418V18.0386L-298.417 12.512L-288.114 18.4906L-280.506 22.8667V43.494L-288.402 48.055L-298.417 53.8282L-308 48.3016V51.1984L-299.672 56.006V76.6744L-308 81.4614V84.3583L-298.417 78.8316L-286.901 85.4677L-280.506 89.1658V109.834L-290.788 115.772L-298.397 120.168L-308 114.642V117.539L-299.672 122.326V142.994L-308 147.802V150.698L-306.622 149.979L-298.397 145.254L-289.492 150.329L-280.547 155.506V176.174L-291.405 182.338L-298.458 186.447L-308 180.961V183.858L-307.198 184.331L-299.672 188.666V209.334L-307.897 214.142V217.018L-305.594 215.724L-298.417 211.615L-290.5 216.176L-280.506 221.887V242.432L-287.086 246.233L-298.417 252.767L-308 247.302V250.198L-299.672 255.006V275.674L-307.897 280.461V283.358L-298.314 277.832L-280.403 288.104V308.773L-288.32 313.334L-298.314 319.107L-308 313.642V316.518L-299.672 321.326V341.994L-308 346.802V349.698L-298.417 344.172L-280.506 354.444V375.113L-298.417 385.385L-308 379.961V382.858L-299.672 387.666V397.938H-297.163V387.666L-287.004 381.81L-279.21 377.332L-271.293 381.893L-261.299 387.666V397.938H-258.79V387.666L-248.796 381.893L-240.879 377.332L-232.859 381.954L-222.967 387.666V397.938H-220.458V387.666L-211.081 382.262L-202.547 377.332L-194.095 382.139L-184.615 387.666V397.938H-182.106V387.666L-171.598 381.605L-164.195 377.332L-156.997 381.441L-146.283 387.604V397.877H-143.775V387.604L-133.616 381.749L-125.863 377.27L-117.946 381.831L-107.952 387.604V397.877H-105.443V387.604L-95.4281 381.831L-87.5315 377.27L-79.4909 381.893L-69.6201 387.604V397.877H-67.1113V387.604L-57.734 382.201L-49.1999 377.27L-40.6658 382.139L-31.2268 387.584V397.856H-28.7385V387.584L-18.2302 381.523L-10.8272 377.249L-3.6297 381.358L7.1048 387.522V397.795H9.59308V387.522L19.7518 381.667L27.525 377.188L35.4217 381.749L45.4364 387.522V397.795H47.7602V387.522L57.7544 381.749L65.6716 377.188L73.6916 381.81L83.583 387.522V397.795H86.0918V387.522L95.4485 382.119L104.003 377.188L112.476 382.078L121.915 387.522V397.795H124.423V387.522L134.993 381.605ZM141.163 288.166V308.834L133.41 313.313L123.251 319.168L113.36 313.457L105.34 308.834V288.166L123.251 277.893L141.163 288.166ZM-230.267 184.475L-223.008 188.584V209.252L-231.028 213.875L-240.92 219.586L-250.934 213.813L-258.831 209.252V188.666L-251.757 184.557L-240.92 178.393L-230.267 184.475ZM-239.665 176.257V155.506L-230.699 150.329L-221.754 145.172L-212.15 150.698L-203.925 155.506V176.174L-214.207 182.071L-221.898 186.509L-228.951 182.4L-239.665 176.257ZM-239.665 221.908L-229.651 216.135L-221.754 211.574L-213.199 216.504L-203.842 221.887V242.432L-210.012 245.966L-221.816 252.767L-233.146 246.233L-239.665 242.432V221.908ZM-213.117 213.69L-220.499 209.437V188.666L-213.837 184.906L-202.588 178.414L-191.052 184.906L-184.615 188.666V209.334L-191.771 213.443L-202.526 219.607L-213.117 213.69ZM-201.334 176.277V155.506L-192.368 150.329L-183.422 145.172L-174.456 150.329L-165.511 155.506V176.174L-176.616 182.564L-183.422 186.509L-190.681 182.4L-201.334 176.277ZM-201.334 221.928L-191.442 216.237L-183.422 211.594L-175.67 216.073L-165.511 221.887V242.432L-171.68 246.007L-183.402 252.767L-194.445 246.541L-201.334 242.432V221.928ZM-173.634 214.368L-182.168 209.437V188.666L-174.477 184.228L-164.195 178.332L-153.913 184.331L-146.386 188.666V209.334L-154.859 214.224L-164.298 219.668L-173.634 214.368ZM-163.002 176.277V155.506L-153.296 149.979L-145.07 145.254L-136.104 150.411L-127.159 155.588V176.174L-138.017 182.338L-145.07 186.447L-151.424 182.852L-163.002 176.277ZM-163.002 221.928L-152.268 215.765L-145.091 211.656L-137.173 216.217L-127.179 221.887V242.432L-133.76 246.233L-145.091 252.767L-155.825 246.541L-162.961 242.432L-163.002 221.928ZM-136.104 213.895L-143.836 209.437V188.666L-137.009 184.721L-125.925 178.332L-115.088 184.495L-108.013 188.604V209.273L-115.89 213.834L-125.925 219.607L-136.104 213.895ZM-124.67 176.277V155.506L-116.445 150.76L-106.759 145.172L-98.5333 149.959L-88.9504 155.506V176.174L-100.199 182.667L-106.862 186.509L-114.368 182.153L-124.67 176.277ZM-124.67 221.928L-115.231 216.504L-106.759 211.594L-99.3353 215.868L-88.8476 222.031V242.432L-96.189 246.767L-106.718 252.931L-119.056 245.863L-124.67 242.432V221.928ZM-97.608 213.998L-105.505 209.437V188.666L-98.4305 184.557L-87.5932 178.393L-76.941 184.557L-69.6818 188.666V209.334L-77.6813 213.957L-87.5932 219.668L-97.608 213.998ZM-86.3388 176.277V155.506L-77.3728 150.329L-68.4274 145.172L-58.8239 150.698L-50.5983 155.506V176.174L-60.8803 182.071L-68.5713 186.509L-75.6249 182.4L-86.3388 176.277ZM-86.3388 221.928L-76.324 216.155L-68.4274 211.594L-59.8727 216.525L-50.516 221.928V242.432L-56.6853 245.966L-68.4891 252.767L-79.7994 246.233L-86.3388 242.432V221.928ZM-59.7699 213.71L-67.173 209.457V188.666L-60.4896 184.906L-49.2616 178.414L-37.7045 184.906L-31.3296 188.584V209.252L-38.5065 213.361L-49.2616 219.525L-59.7699 213.71ZM-48.0072 176.298V155.506L-39.0412 150.329L-30.0958 145.172L-21.1298 150.329L-12.1638 155.506V176.174L-23.2685 182.564L-30.0958 186.509L-37.3344 182.4L-48.0072 176.298ZM-48.0072 221.949L-38.1158 216.258L-30.0958 211.615L-22.3225 216.094L-12.1638 221.949V242.432L-18.3331 246.007L-30.0752 252.767L-41.0976 246.398L-48.0072 242.432V221.949ZM-20.3072 214.388L-28.8414 209.457V188.666L-21.1298 184.228L-10.8477 178.332L-0.565625 184.331L6.98142 188.666V209.334L-1.51159 214.224L-10.9505 219.668L-20.3072 214.388ZM-9.67554 176.298V155.506L0.0307226 149.979L8.25639 145.254L17.2018 150.411L26.1678 155.588V176.174L15.3099 182.338L8.25639 186.447L1.90207 182.852L-9.67554 176.298ZM-9.67554 221.949L1.05893 215.785L8.25639 211.676L16.1531 216.237L26.1678 221.887V242.432L19.5667 246.233L8.25639 252.767L-2.5398 246.603L-9.67554 242.494V221.949ZM17.243 213.916L9.49025 209.457V188.666L16.3381 184.721L27.4222 178.332L38.2595 184.495L45.3336 188.604V209.273L37.4781 213.895L27.4634 219.668L17.243 213.916ZM28.6561 176.298V155.506L36.8817 150.76L46.588 145.172L54.8137 149.959L64.4172 155.506V176.174L53.148 182.667L46.5058 186.509L38.9793 182.153L28.6561 176.298ZM28.6561 221.949L38.095 216.525L46.588 211.615L53.9294 215.724L64.4377 221.887V242.432L57.0346 246.706L46.5263 252.869L34.1878 245.802L28.6561 242.432V221.949ZM55.7185 214.018L47.7602 209.334V188.666L54.8343 184.557L65.6716 178.393L76.3033 184.557L83.583 188.666V209.334L75.5629 213.957L65.6716 219.668L55.7185 214.018ZM67.0082 176.298V155.506L75.9537 150.329L84.9197 145.172L94.5025 150.698L102.831 155.506V176.174L92.5489 182.071L84.8785 186.509L77.8044 182.4L67.0082 176.298ZM67.0082 221.949L77.0024 216.176L84.9197 211.615L93.4538 216.546L102.831 221.949V242.432L96.6618 245.966L84.8785 252.767L73.5476 246.233L66.9671 242.432L67.0082 221.949ZM93.5566 213.731L86.174 209.478V188.666L92.8368 184.906L104.085 178.414L115.622 184.906L121.997 188.584V209.252L114.841 213.361L104.085 219.525L93.5566 213.731ZM94.482 147.986L86.2563 143.179V122.326L95.6336 116.922L104.168 111.991L112.64 116.881L122.079 122.326V142.994L113.853 147.74L104.168 153.328L94.482 147.986ZM102.831 110.019L93.3509 115.484L84.9197 120.353L77.2903 115.957L67.0082 110.019V89.1658L73.4037 85.4677L84.9197 78.8316L96.7646 85.6731L102.831 89.1658V110.019ZM73.7533 116.82L83.6652 122.511V142.994L74.6993 148.171L65.7538 153.328L56.7879 148.171L47.7602 142.994V122.326L57.7749 116.552L65.6716 111.991L73.7533 116.82ZM64.4994 110.019L53.5798 116.306L46.588 120.415L38.239 115.607L28.6561 110.081V89.1658L34.3935 85.858L46.588 78.8316L57.487 85.139L64.4994 89.248V110.019ZM35.2983 116.737L45.3336 122.511V142.994L36.3676 148.171L27.4222 153.328L18.4562 148.171L9.49025 142.994V122.326L19.7723 116.47L27.525 111.991L35.2983 116.737ZM26.1678 110.019L15.8857 115.957L8.27698 120.353L1.63476 116.511L-9.65498 110.019V89.1658L-2.8688 85.2622L8.27698 78.8316L19.7723 85.4677L26.1884 89.1658L26.1678 110.019ZM-3.65025 116.121L7.1048 122.285V142.994L-2.60149 148.603L-10.8272 153.328L-19.0528 148.541L-28.6563 142.994V122.326L-18.1274 116.265L-10.7449 111.991L-3.65025 116.121ZM-12.061 109.834L-22.631 115.998L-29.993 120.251L-37.7868 115.751L-47.9043 109.916V89.1658L-41.2621 85.3444L-29.993 78.8316L-18.1686 85.6526L-11.9993 89.1658L-12.061 109.834ZM-40.6658 116.881L-31.2268 122.326V142.994L-39.4525 147.74L-49.1588 153.328L-58.7417 147.802L-66.9673 142.994V122.326L-57.5901 116.922L-49.0559 111.991L-40.6658 116.881ZM-50.4132 109.834L-59.8727 115.299L-68.3246 120.168L-75.9333 115.772L-86.2154 109.834V89.1658L-79.7994 85.4677L-68.304 78.8316L-56.459 85.6731L-50.3926 89.1658L-50.4132 109.834ZM-79.4704 116.635L-69.579 122.326V142.994L-78.5244 148.171L-87.4904 153.328L-96.4358 148.171L-105.505 142.994V122.326L-95.4899 116.552L-87.5932 111.991L-79.4704 116.635ZM-88.7448 109.834L-99.6438 116.121L-106.656 120.23L-114.882 115.422L-124.465 109.896V89.1658L-118.727 85.858L-106.553 78.8316L-95.6338 85.139L-88.642 89.248L-88.7448 109.834ZM-118.028 116.552L-108.013 122.326V142.994L-116.959 148.171L-125.925 153.328L-134.87 148.171L-143.836 142.994V122.326L-133.554 116.47L-125.822 111.991L-118.028 116.552ZM-127.179 109.834L-137.461 115.772L-145.091 120.168L-151.712 116.326L-162.981 109.834V89.1658L-156.195 85.2622L-145.07 78.8316L-133.554 85.4677L-127.159 89.1658L-127.179 109.834ZM-157.1 116.121L-146.345 122.285V142.994L-156.031 148.603L-164.256 153.328L-172.482 148.541L-182.086 142.994V122.326L-171.557 116.265L-164.174 111.991L-157.1 116.121ZM-165.511 109.834L-176.06 115.998L-183.422 120.251L-191.216 115.669L-201.334 109.834V89.1658L-194.691 85.3444L-183.422 78.8316L-171.618 85.6526L-165.449 89.1658L-165.511 109.834ZM-194.116 116.881L-184.615 122.326V142.994L-192.841 147.74L-202.547 153.328L-212.171 147.802L-220.499 142.994V122.326L-211.122 116.922L-202.588 111.991L-194.116 116.881ZM-203.842 109.834L-213.405 115.299L-221.836 120.168L-229.445 115.772L-239.727 109.834V89.1658L-233.331 85.4677L-221.816 78.8316L-209.909 85.6731L-203.842 89.1658V109.834ZM-232.9 116.635L-223.008 122.326V142.994L-231.913 148.171L-240.879 153.328L-249.824 148.171L-258.831 142.994V122.326L-248.816 116.552L-240.92 111.991L-232.9 116.635ZM-242.195 109.834L-253.094 116.121L-260.106 120.23L-268.435 115.422L-278.017 109.896V89.1658L-272.28 85.858L-260.106 78.8316L-249.186 85.139L-242.195 89.248V109.834ZM-251.757 149.979L-242.195 155.506V176.174L-253.464 182.667L-260.085 186.509L-267.591 182.153L-277.997 176.174V155.506L-269.771 150.76L-260.065 145.172L-251.757 149.979ZM-252.682 215.724L-242.195 221.887V242.432L-249.577 246.706L-260.106 252.869L-272.445 245.802L-277.997 242.432V221.887L-268.558 216.463L-260.085 211.553L-252.682 215.724ZM-242.195 288.166V308.834L-250.729 313.765L-260.106 319.168L-270.841 313.005L-278.017 308.896V288.166L-260.106 277.893L-242.195 288.166ZM-248.816 281.468L-258.831 275.695V255.006L-250.729 250.322L-240.92 244.672L-231.193 250.281L-222.967 255.006V275.674L-232.9 281.468L-240.92 286.091L-248.816 281.468ZM-239.665 288.186L-221.754 277.914L-203.842 288.186V308.855L-211.246 313.128L-221.754 319.189L-231.748 313.416L-239.665 308.855V288.186ZM-211.122 281.098L-220.499 275.695V255.006L-212.808 250.65L-202.526 244.754L-192.203 250.65L-184.615 255.006V275.674L-194.054 281.119L-202.526 285.988L-211.122 281.098ZM-201.334 288.186L-183.422 277.914L-165.511 288.186V308.855L-173.264 313.334L-183.422 319.189L-193.314 313.477L-201.334 308.855V288.186ZM-171.639 281.756L-182.168 275.695V255.006L-173.551 250.034L-164.256 244.672L-154.92 250.055L-146.345 255.006V275.674L-157.1 281.838L-164.256 285.947L-171.639 281.756ZM-163.002 288.186L-145.091 277.914L-127.179 288.186V308.855L-135.076 313.416L-145.091 319.189L-154.509 313.745L-163.002 308.855V288.186ZM-133.657 281.468L-143.939 275.613V255.006L-135.919 250.383L-126.028 244.672L-116.219 250.322L-108.116 255.006V275.674L-118.028 281.468L-125.925 286.009L-133.657 281.468ZM-124.67 288.104L-106.759 277.832L-88.8476 288.104V308.773L-97.3818 313.703L-106.759 319.107L-117.473 312.943L-124.67 308.834V288.104ZM-95.4899 281.468L-105.505 275.695V255.006L-97.4023 250.322L-87.5932 244.672L-77.8663 250.281L-69.6407 255.006V275.674L-79.5732 281.468L-87.5932 286.091L-95.4899 281.468ZM-86.3388 288.186L-68.4274 277.914L-50.516 288.186V308.855L-57.9191 313.128L-68.4274 319.189L-78.4216 313.416L-86.3388 308.855V288.186ZM-57.7957 281.098L-67.173 275.695V255.006L-59.482 250.568L-49.1999 244.672L-38.815 250.65L-31.2679 255.006V275.674L-40.6658 281.119L-49.1588 285.988L-57.7957 281.098ZM-48.0072 288.186L-30.0958 277.914L-12.1638 288.186V308.855L-19.9371 313.334L-30.0958 319.189L-39.9666 313.477L-48.0072 308.855V288.186ZM-18.3125 281.756L-28.8414 275.695V255.006L-20.225 250.034L-10.93 244.672L-1.57328 250.055L7.00198 255.006V275.674L-3.75308 281.838L-10.93 285.947L-18.3125 281.756ZM-9.67554 288.186L8.25639 277.914L26.1678 288.186V308.855L18.2506 313.416L8.25639 319.189L-1.18256 313.745L-9.67554 308.855V288.186ZM19.6695 281.468L9.38743 275.613V255.006L17.4075 250.383L27.3194 244.672L37.1285 250.322L45.2308 255.006V275.674L35.2983 281.468L27.4222 286.009L19.6695 281.468ZM28.6561 288.104L46.588 277.832L64.4994 288.104V308.773L55.9447 313.703L46.588 319.107L35.8535 312.943L28.6561 308.834V288.104ZM57.8572 281.386L47.7602 275.674V255.006L55.8625 250.322L65.6716 244.672L75.3984 250.281L83.6241 255.006V275.674L73.7533 281.468L65.7538 286.091L57.8572 281.386ZM67.0082 288.104L84.9197 277.832L102.831 288.104V308.773L95.4074 313.046L84.9197 319.107L74.9049 313.334L67.0082 308.773V288.104ZM95.5513 281.016L86.174 275.613V255.006L93.8445 250.568L104.127 244.672L114.409 250.65L121.956 255.006V275.674L112.517 281.119L104.044 285.988L95.5513 281.016ZM131.004 215.909L141.163 221.764V242.432L134.993 246.007L123.272 252.767L112.229 246.398L105.34 242.432V221.887L115.211 216.196L123.251 211.553L131.004 215.909ZM132.197 150.267L141.163 155.444V176.174L130.017 182.564L123.21 186.509L115.951 182.4L105.299 176.236V155.506L114.244 150.329L123.21 145.172L132.197 150.267ZM135.055 85.591L141.224 89.1042V109.834L130.654 115.998L123.313 120.251L115.499 115.751L105.34 109.834V89.1658L111.982 85.3444L123.251 78.8316L135.055 85.591ZM105.34 22.8256L113.134 18.3262L123.251 12.512L133.801 18.6755L141.163 22.9078V43.494L133.431 47.9729L123.251 53.8282L113.339 48.1167L105.34 43.494V22.8256ZM114.82 51.8559L121.997 55.9649V76.6744L111.201 82.8379L104.085 86.9469L96.6823 82.6736L86.174 76.51V56.006L93.5772 51.7326L104.085 45.6718L114.82 51.8559ZM67.0082 22.8256L74.617 18.4906L84.8991 12.5531L95.7981 18.8399L102.81 22.9489V43.494L95.4074 47.7674L84.8991 53.8282L74.8637 48.055L66.9877 43.494L67.0082 22.8256ZM75.6452 51.3628L83.6652 56.006V76.6744L72.6223 83.0228L65.7538 87.0086L59.1527 83.2077L47.7602 76.6744V56.006L55.7391 51.3628L65.7538 45.5896L75.6452 51.3628ZM28.6561 22.8256L35.2983 19.0042L46.588 12.512L55.9858 17.977L64.4377 22.8256V43.494L55.9858 48.4248L46.6086 53.8282L35.8535 47.6647L28.6766 43.5557L28.6561 22.8256ZM37.4781 51.3628L45.3953 55.9238V76.6744L34.0644 83.2077L27.4839 87.0086L21.3147 83.4337L9.5725 76.6744V56.006L17.3252 51.5272L27.6073 45.6718L37.4781 51.3628ZM-9.61385 22.7434L-1.2648 17.9359L8.31811 12.4298L18.6002 18.3673L26.2295 22.7434V43.494L18.3329 48.055L8.31811 53.8282L-1.12087 48.3838L-9.61385 43.494V22.7434ZM-1.38818 51.0341L7.1048 55.9238V76.6744L-5.2337 83.7419L-10.8888 87.0086L-17.0581 83.4748L-28.8619 76.6744V56.006L-20.3072 51.0752L-10.9505 45.6718L-1.38818 51.0341ZM-48.0072 22.8256L-40.1928 18.3262L-30.0958 12.512L-19.5258 18.6755L-12.1638 22.9078V43.494L-19.9165 47.9729L-30.1986 53.8282L-40.09 48.1167L-48.11 43.494L-48.0072 22.8256ZM-38.6093 51.8559L-31.4119 55.9649V76.6744L-42.2081 82.8379L-49.3438 86.9469L-56.7264 82.6736L-67.2552 76.51V56.006L-59.8521 51.7326L-49.3438 45.6718L-38.6093 51.8559ZM-86.3388 22.8256L-78.7095 18.4906L-68.4274 12.5531L-57.5078 18.8399L-50.516 22.9489V43.494L-57.8985 47.7674L-68.4274 53.8282L-78.4422 48.055L-86.3388 43.494V22.8256ZM-77.6813 51.3628L-69.6612 56.006V76.6744L-80.6836 83.0228L-87.5726 87.0086L-94.1326 83.2077L-105.463 76.6744V56.006L-97.5874 51.3628L-87.5932 45.5896L-77.6813 51.3628ZM-124.67 22.8256L-118.028 19.0042L-106.759 12.512L-97.2789 17.977L-88.8476 22.8256V43.494L-97.3818 48.4248L-106.759 53.8282L-117.514 47.6647L-124.67 43.5557V22.8256ZM-115.91 51.3628L-108.013 55.9238V76.6744L-119.324 83.2077L-125.925 87.0086L-132.094 83.4337L-143.816 76.6744V56.006L-136.063 51.5272L-125.904 45.6718L-115.91 51.3628ZM-163.002 22.8256L-154.653 18.0181L-145.091 12.512L-134.809 18.4495L-127.2 22.8256V43.494L-135.096 48.055L-145.091 53.8282L-154.53 48.3838L-163.002 43.494V22.8256ZM-154.776 51.1163L-146.304 56.006V76.6744L-158.642 83.7419L-164.256 87.0086L-170.426 83.4748L-182.23 76.6744V56.006L-173.695 51.0752L-164.318 45.6718L-154.776 51.1163ZM-201.334 22.8256L-193.519 18.3262L-183.422 12.512L-172.852 18.6755L-165.511 22.9078V43.494L-173.243 47.9729L-183.525 53.8282L-193.416 48.1167L-201.436 43.494L-201.334 22.8256ZM-191.854 51.8559L-184.677 55.9649V76.6744L-195.452 82.8379L-202.588 86.9469L-209.971 82.6736L-220.499 76.51V56.006L-213.096 51.7326L-202.588 45.6718L-191.854 51.8559ZM-239.665 22.8256L-232.057 18.4906L-221.774 12.5531L-210.875 18.8399L-203.863 22.9489V43.494L-211.246 47.7674L-221.754 53.8282L-231.769 48.055L-239.665 43.494V22.8256ZM-231.028 51.3628L-223.008 56.006V76.6744L-233.969 83.0228L-240.858 87.0086L-247.439 83.2077L-258.769 76.6744V56.006L-250.934 51.3628L-240.92 45.5896L-231.028 51.3628ZM-277.997 22.8256L-271.355 19.0042L-260.085 12.512L-250.605 17.977L-242.195 22.8256V43.494L-250.729 48.4248L-260.085 53.8282L-270.841 47.6647L-277.997 43.5557V22.8256ZM-285.379 83.4337L-297.101 76.6744V56.006L-289.492 51.5272L-279.21 45.6718L-269.237 51.3628L-261.34 55.9238V76.6744L-272.671 83.2077L-279.21 87.0086L-285.379 83.4337ZM-288.217 148.171L-297.163 142.994V122.326L-286.881 116.47L-279.21 111.991L-271.314 116.552L-261.299 122.326V142.994L-270.244 148.171L-279.21 153.328L-288.217 148.171ZM-289.492 213.792L-297.224 209.334V188.666L-290.397 184.721L-279.21 178.332L-268.373 184.495L-261.299 188.604V209.273L-269.195 213.834L-279.21 219.668L-289.492 213.792ZM-287.045 281.591L-297.327 275.736V255.006L-289.328 250.383L-279.21 244.672L-269.401 250.322L-261.299 255.006V275.674L-271.355 281.468L-279.21 285.988L-287.045 281.591ZM-285.379 348.753L-297.101 341.994V321.326L-285.379 314.566L-279.21 310.991L-272.63 314.792L-261.299 321.326V341.994L-279.21 352.267L-285.379 348.753ZM-242.195 375.174L-260.106 385.447L-278.017 375.174V354.506L-260.106 344.233L-242.195 354.506V375.174ZM-247.521 348.466L-258.852 341.932V321.326L-247.521 314.792L-240.94 310.991L-233.969 314.977L-222.947 321.326V341.994L-240.858 352.267L-247.521 348.466ZM-203.863 375.174L-221.774 385.447L-239.686 375.174V354.506L-221.774 344.233L-203.863 354.506V375.174ZM-210.032 348.075L-220.561 341.912V321.326L-210.032 315.162L-202.65 310.889L-195.514 314.998L-184.738 321.161V341.83L-202.65 352.102L-210.032 348.075ZM-165.573 375.174L-183.484 385.447L-201.395 375.174V354.506L-183.484 344.233L-165.573 354.506V375.174ZM-170.426 348.794L-182.23 341.994V321.326L-170.426 314.525L-164.256 310.991L-158.601 314.34L-146.263 321.408V342.076L-164.174 352.349L-170.426 348.794ZM-127.241 375.174L-145.152 385.447L-163.064 375.174V354.506L-145.152 344.233L-127.241 354.506V375.174ZM-132.176 348.753L-143.898 341.994V321.326L-132.176 314.566L-126.007 310.991L-119.406 314.792L-108.096 321.326V341.994L-126.007 352.267L-132.176 348.753ZM-88.9916 375.174L-106.903 385.447L-124.814 375.174V354.506L-106.903 344.233L-88.9916 354.506V375.174ZM-94.3177 348.466L-105.649 341.932V321.326L-94.3177 314.792L-87.7371 310.991L-80.8482 314.977L-69.8258 321.326V341.994L-87.7371 352.267L-94.3177 348.466ZM-50.6599 375.174L-68.5713 385.447L-86.4827 375.174V354.506L-68.5713 344.233L-50.6599 354.506V375.174ZM-56.8292 348.075L-67.3581 341.912V321.326L-56.8292 315.162L-49.4467 310.889L-42.3109 314.998L-31.5147 321.161V341.83L-49.4467 352.102L-56.8292 348.075ZM-12.3489 375.174L-30.2808 385.447L-48.1923 375.174V354.506L-30.2808 344.233L-12.3489 354.506V375.174ZM-17.2226 348.794L-29.0264 341.994V321.326L-17.2226 314.525L-11.0534 310.991L-5.39822 314.258L6.94029 321.326V341.994L-10.9917 352.267L-17.2226 348.794ZM25.9621 375.174L8.05077 385.447L-9.88119 375.174V354.506L8.05077 344.233L25.9621 354.506V375.174ZM21.0268 348.753L9.2846 341.994V321.326L21.0268 314.566L27.196 310.991L33.7765 314.792L45.1074 321.326V341.994L27.196 352.267L21.0268 348.753ZM64.2115 375.174L46.3001 385.447L28.3682 375.174V354.506L46.3001 344.233L64.2115 354.506V375.174ZM58.8648 348.466L47.5545 341.932V321.326L58.8648 314.792L65.4659 310.991L72.3344 314.977L83.3773 321.326V341.994L65.4659 352.267L58.8648 348.466ZM102.543 375.174L84.6317 385.447L66.7203 375.174V354.506L84.6317 344.233L102.543 354.506V375.174ZM96.3739 348.075L85.8656 341.912V321.326L96.3739 315.162L103.777 310.889L110.892 314.998L121.688 321.161V341.83L103.777 352.102L96.3739 348.075ZM105.34 375.174V354.506L123.251 344.233L141.163 354.506V375.174L123.251 385.447L105.34 375.174Z" fill="url(#paint0_radial_902_117)"/>
<defs>
<radialGradient id="paint0_radial_902_117" cx="0" cy="0" r="1" gradientUnits="userSpaceOnUse" gradientTransform="translate(-77.9794 198.969) rotate(90) scale(198.969 230.021)">
<stop stop-color="#4E41F9"/>
<stop offset="1" stop-color="white" stop-opacity="0"/>
</radialGradient>
</defs>
</svg>
