<svg width="175" height="398" viewBox="0 0 175 398" fill="none" xmlns="http://www.w3.org/2000/svg">
<path d="M442.993 381.605L450.417 377.332L457.594 381.441L460 382.817V379.92L451.671 375.133V354.506L460 349.698V346.802L450.355 352.328L444.186 348.794L432.403 341.994V321.326L444.186 314.525L450.355 310.991L455.99 314.258L459.938 316.518V313.642L451.61 308.834V288.166L459.938 283.358V280.461L457.512 281.879L450.355 285.988L442.952 281.735L432.444 275.674V255.006L441.06 250.034L450.355 244.672L459.691 250.055L459.938 250.198V247.302L458.725 246.603L451.61 242.494V221.887L459.938 217.08V214.203H459.794L450.355 219.668L440.978 214.265L432.444 209.334V188.666L440.135 184.228L450.417 178.332L460 183.858V180.961L451.671 176.174V155.506L460 150.698V147.802L458.622 148.603L450.397 153.328L442.13 148.541L432.547 142.994V122.326L443.055 116.265L450.458 111.991L457.615 116.1L460.041 117.518V114.642L451.713 109.834V89.1658L458.478 85.2622L460.041 84.3583V81.4614L456.093 83.7419L450.355 87.0086L444.186 83.4748L432.403 76.6744V56.006L440.937 51.0752L450.355 45.6718L459.774 51.1163H459.938V48.3016L451.61 43.494V22.8256L459.938 18.0386V15.1418L456.093 17.3606L450.355 20.6684L444.289 17.1757L432.506 10.2726V0H429.997V10.2726L418.851 16.7032L412.085 20.6068L405.073 16.4977L394.174 10.2726V0H391.665V10.2726L380.437 16.8265L373.795 20.6684L367.379 16.9703L355.76 10.2726V0H353.251V10.2726L341.735 16.9086L335.34 20.6068L329.171 17.073L317.49 10.2726V0H315.002V10.2726L302.807 17.299L297.07 20.6068L290.901 17.1141L279.159 10.2726V0H276.67V10.2726L265.525 16.7032L258.738 20.6068L251.747 16.4977L240.827 10.2726V0H238.318V10.2726L227.049 16.7648L220.407 20.6068L214.011 16.9086L202.495 10.2726V0H199.987V10.2726L188.491 16.9703L182.075 20.6684L175.906 17.1346L164.164 10.2726V0H161.655V10.2726L149.481 17.3606L143.744 20.6684L137.574 17.1757L125.832 10.2726V0H123.385V10.2726L112.198 16.7648L105.412 20.6684L98.4201 16.5594L87.5005 10.2726V0H84.9917V10.2726L73.7226 16.8265L67.0803 20.6684L60.6849 16.9703L49.1689 10.2726V0H46.6601V10.2726L35.1442 16.9086L28.7898 20.6684L22.6206 17.1346L10.8373 10.2726V0H8.32849V10.2726L0 15.1418V18.0386L9.5829 12.512L19.8856 18.4906L27.4943 22.8667V43.494L19.5977 48.055L9.5829 53.8282L0 48.3016V51.1984L8.32849 56.006V76.6744L0 81.4614V84.3583L9.5829 78.8316L21.0988 85.4677L27.4943 89.1658V109.834L17.2122 115.772L9.60347 120.168L0 114.642V117.539L8.32849 122.326V142.994L0 147.802V150.698L1.3778 149.979L9.60347 145.254L18.5078 150.329L27.4532 155.506V176.174L16.5953 182.338L9.54178 186.447L0 180.961V183.858L0.802003 184.331L8.32849 188.666V209.334L0.102821 214.142V217.018L2.40601 215.724L9.5829 211.615L17.5001 216.176L27.4943 221.887V242.432L20.9138 246.233L9.5829 252.767L0 247.302V250.198L8.32849 255.006V275.674L0.102821 280.461V283.358L9.68573 277.832L27.5971 288.104V308.773L19.6799 313.334L9.68573 319.107L0 313.642V316.518L8.32849 321.326V341.994L0 346.802V349.698L9.5829 344.172L27.4943 354.444V375.113L9.5829 385.385L0 379.961V382.858L8.32849 387.666V397.938H10.8373V387.666L20.996 381.81L28.7898 377.332L36.707 381.893L46.7012 387.666V397.938H49.2101V387.666L59.2043 381.893L67.1215 377.332L75.1415 381.954L85.0329 387.666V397.938H87.5417V387.666L96.9189 382.262L105.453 377.332L113.905 382.139L123.385 387.666V397.938H125.894V387.666L136.402 381.605L143.805 377.332L151.003 381.441L161.717 387.604V397.877H164.225V387.604L174.384 381.749L182.137 377.27L190.054 381.831L200.048 387.604V397.877H202.557V387.604L212.572 381.831L220.468 377.27L228.509 381.893L238.38 387.604V397.877H240.889V387.604L250.266 382.201L258.8 377.27L267.334 382.139L276.773 387.584V397.856H279.261V387.584L289.77 381.523L297.173 377.249L304.37 381.358L315.105 387.522V397.795H317.593V387.522L327.752 381.667L335.525 377.188L343.422 381.749L353.436 387.522V397.795H355.76V387.522L365.754 381.749L373.672 377.188L381.692 381.81L391.583 387.522V397.795H394.092V387.522L403.448 382.119L412.003 377.188L420.476 382.078L429.915 387.522V397.795H432.423V387.522L442.993 381.605ZM449.163 288.166V308.834L441.41 313.313L431.251 319.168L421.36 313.457L413.34 308.834V288.166L431.251 277.893L449.163 288.166ZM77.7326 184.475L84.9917 188.584V209.252L76.9717 213.875L67.0803 219.586L57.0656 213.813L49.1689 209.252V188.666L56.243 184.557L67.0803 178.393L77.7326 184.475ZM68.3347 176.257V155.506L77.3007 150.329L86.2461 145.172L95.8496 150.698L104.075 155.506V176.174L93.7932 182.071L86.1022 186.509L79.0487 182.4L68.3347 176.257ZM68.3347 221.908L78.3495 216.135L86.2461 211.574L94.8008 216.504L104.158 221.887V242.432L97.9883 245.966L86.1844 252.767L74.8536 246.233L68.3347 242.432V221.908ZM94.8831 213.69L87.5005 209.437V188.666L94.1633 184.906L105.412 178.414L116.948 184.906L123.385 188.666V209.334L116.229 213.443L105.474 219.607L94.8831 213.69ZM106.666 176.277V155.506L115.632 150.329L124.578 145.172L133.544 150.329L142.489 155.506V176.174L131.384 182.564L124.578 186.509L117.319 182.4L106.666 176.277ZM106.666 221.928L116.558 216.237L124.578 211.594L132.33 216.073L142.489 221.887V242.432L136.32 246.007L124.598 252.767L113.555 246.541L106.666 242.432V221.928ZM134.366 214.368L125.832 209.437V188.666L133.523 184.228L143.805 178.332L154.087 184.331L161.614 188.666V209.334L153.141 214.224L143.702 219.668L134.366 214.368ZM144.998 176.277V155.506L154.704 149.979L162.93 145.254L171.896 150.411L180.841 155.588V176.174L169.983 182.338L162.93 186.447L156.576 182.852L144.998 176.277ZM144.998 221.928L155.732 215.765L162.909 211.656L170.827 216.217L180.821 221.887V242.432L174.24 246.233L162.909 252.767L152.175 246.541L145.039 242.432L144.998 221.928ZM171.896 213.895L164.164 209.437V188.666L170.991 184.721L182.075 178.332L192.912 184.495L199.987 188.604V209.273L192.11 213.834L182.075 219.607L171.896 213.895ZM183.33 176.277V155.506L191.555 150.76L201.241 145.172L209.467 149.959L219.05 155.506V176.174L207.801 182.667L201.138 186.509L193.632 182.153L183.33 176.277ZM183.33 221.928L192.769 216.504L201.241 211.594L208.665 215.868L219.152 222.031V242.432L211.811 246.767L201.282 252.931L188.944 245.863L183.33 242.432V221.928ZM210.392 213.998L202.495 209.437V188.666L209.569 184.557L220.407 178.393L231.059 184.557L238.318 188.666V209.334L230.319 213.957L220.407 219.668L210.392 213.998ZM221.661 176.277V155.506L230.627 150.329L239.573 145.172L249.176 150.698L257.402 155.506V176.174L247.12 182.071L239.429 186.509L232.375 182.4L221.661 176.277ZM221.661 221.928L231.676 216.155L239.573 211.594L248.127 216.525L257.484 221.928V242.432L251.315 245.966L239.511 252.767L228.201 246.233L221.661 242.432V221.928ZM248.23 213.71L240.827 209.457V188.666L247.51 184.906L258.738 178.414L270.295 184.906L276.67 188.584V209.252L269.493 213.361L258.738 219.525L248.23 213.71ZM259.993 176.298V155.506L268.959 150.329L277.904 145.172L286.87 150.329L295.836 155.506V176.174L284.732 182.564L277.904 186.509L270.666 182.4L259.993 176.298ZM259.993 221.949L269.884 216.258L277.904 211.615L285.677 216.094L295.836 221.949V242.432L289.667 246.007L277.925 252.767L266.902 246.398L259.993 242.432V221.949ZM287.693 214.388L279.159 209.457V188.666L286.87 184.228L297.152 178.332L307.434 184.331L314.981 188.666V209.334L306.488 214.224L297.049 219.668L287.693 214.388ZM298.324 176.298V155.506L308.031 149.979L316.256 145.254L325.202 150.411L334.168 155.588V176.174L323.31 182.338L316.256 186.447L309.902 182.852L298.324 176.298ZM298.324 221.949L309.059 215.785L316.256 211.676L324.153 216.237L334.168 221.887V242.432L327.567 246.233L316.256 252.767L305.46 246.603L298.324 242.494V221.949ZM325.243 213.916L317.49 209.457V188.666L324.338 184.721L335.422 178.332L346.26 184.495L353.334 188.604V209.273L345.478 213.895L335.463 219.668L325.243 213.916ZM336.656 176.298V155.506L344.882 150.76L354.588 145.172L362.814 149.959L372.417 155.506V176.174L361.148 182.667L354.506 186.509L346.979 182.153L336.656 176.298ZM336.656 221.949L346.095 216.525L354.588 211.615L361.929 215.724L372.438 221.887V242.432L365.035 246.706L354.526 252.869L342.188 245.802L336.656 242.432V221.949ZM363.719 214.018L355.76 209.334V188.666L362.834 184.557L373.672 178.393L384.303 184.557L391.583 188.666V209.334L383.563 213.957L373.672 219.668L363.719 214.018ZM375.008 176.298V155.506L383.954 150.329L392.92 145.172L402.503 150.698L410.831 155.506V176.174L400.549 182.071L392.879 186.509L385.804 182.4L375.008 176.298ZM375.008 221.949L385.002 216.176L392.92 211.615L401.454 216.546L410.831 221.949V242.432L404.662 245.966L392.879 252.767L381.548 246.233L374.967 242.432L375.008 221.949ZM401.557 213.731L394.174 209.478V188.666L400.837 184.906L412.085 178.414L423.622 184.906L429.997 188.584V209.252L422.841 213.361L412.085 219.525L401.557 213.731ZM402.482 147.986L394.256 143.179V122.326L403.634 116.922L412.168 111.991L420.64 116.881L430.079 122.326V142.994L421.853 147.74L412.168 153.328L402.482 147.986ZM410.831 110.019L401.351 115.484L392.92 120.353L385.29 115.957L375.008 110.019V89.1658L381.404 85.4677L392.92 78.8316L404.765 85.6731L410.831 89.1658V110.019ZM381.753 116.82L391.665 122.511V142.994L382.699 148.171L373.754 153.328L364.788 148.171L355.76 142.994V122.326L365.775 116.552L373.672 111.991L381.753 116.82ZM372.499 110.019L361.58 116.306L354.588 120.415L346.239 115.607L336.656 110.081V89.1658L342.393 85.858L354.588 78.8316L365.487 85.139L372.499 89.248V110.019ZM343.298 116.737L353.334 122.511V142.994L344.368 148.171L335.422 153.328L326.456 148.171L317.49 142.994V122.326L327.772 116.47L335.525 111.991L343.298 116.737ZM334.168 110.019L323.886 115.957L316.277 120.353L309.635 116.511L298.345 110.019V89.1658L305.131 85.2622L316.277 78.8316L327.772 85.4677L334.188 89.1658L334.168 110.019ZM304.35 116.121L315.105 122.285V142.994L305.398 148.603L297.173 153.328L288.947 148.541L279.344 142.994V122.326L289.873 116.265L297.255 111.991L304.35 116.121ZM295.939 109.834L285.369 115.998L278.007 120.251L270.213 115.751L260.096 109.916V89.1658L266.738 85.3444L278.007 78.8316L289.831 85.6526L296.001 89.1658L295.939 109.834ZM267.334 116.881L276.773 122.326V142.994L268.548 147.74L258.841 153.328L249.258 147.802L241.033 142.994V122.326L250.41 116.922L258.944 111.991L267.334 116.881ZM257.587 109.834L248.127 115.299L239.675 120.168L232.067 115.772L221.785 109.834V89.1658L228.201 85.4677L239.696 78.8316L251.541 85.6731L257.607 89.1658L257.587 109.834ZM228.53 116.635L238.421 122.326V142.994L229.476 148.171L220.51 153.328L211.564 148.171L202.495 142.994V122.326L212.51 116.552L220.407 111.991L228.53 116.635ZM219.255 109.834L208.356 116.121L201.344 120.23L193.118 115.422L183.535 109.896V89.1658L189.273 85.858L201.447 78.8316L212.366 85.139L219.358 89.248L219.255 109.834ZM189.972 116.552L199.987 122.326V142.994L191.041 148.171L182.075 153.328L173.13 148.171L164.164 142.994V122.326L174.446 116.47L182.178 111.991L189.972 116.552ZM180.821 109.834L170.539 115.772L162.909 120.168L156.288 116.326L145.019 109.834V89.1658L151.805 85.2622L162.93 78.8316L174.446 85.4677L180.841 89.1658L180.821 109.834ZM150.9 116.121L161.655 122.285V142.994L151.969 148.603L143.744 153.328L135.518 148.541L125.914 142.994V122.326L136.443 116.265L143.826 111.991L150.9 116.121ZM142.489 109.834L131.94 115.998L124.578 120.251L116.784 115.669L106.666 109.834V89.1658L113.309 85.3444L124.578 78.8316L136.382 85.6526L142.551 89.1658L142.489 109.834ZM113.884 116.881L123.385 122.326V142.994L115.159 147.74L105.453 153.328L95.829 147.802L87.5005 142.994V122.326L96.8778 116.922L105.412 111.991L113.884 116.881ZM104.158 109.834L94.5952 115.299L86.1639 120.168L78.5551 115.772L68.2731 109.834V89.1658L74.6685 85.4677L86.1844 78.8316L98.0911 85.6731L104.158 89.1658V109.834ZM75.1004 116.635L84.9917 122.326V142.994L76.0874 148.171L67.1215 153.328L58.176 148.171L49.1689 142.994V122.326L59.1837 116.552L67.0803 111.991L75.1004 116.635ZM65.8054 109.834L54.9063 116.121L47.894 120.23L39.5655 115.422L29.9826 109.896V89.1658L35.72 85.858L47.894 78.8316L58.8135 85.139L65.8054 89.248V109.834ZM56.243 149.979L65.8054 155.506V176.174L54.5362 182.667L47.9145 186.509L40.4086 182.153L30.0031 176.174V155.506L38.2288 150.76L47.9351 145.172L56.243 149.979ZM55.3176 215.724L65.8054 221.887V242.432L58.4228 246.706L47.894 252.869L35.5555 245.802L30.0031 242.432V221.887L39.4421 216.463L47.9145 211.553L55.3176 215.724ZM65.8054 288.166V308.834L57.2712 313.765L47.894 319.168L37.1595 313.005L29.9826 308.896V288.166L47.894 277.893L65.8054 288.166ZM59.1837 281.468L49.1689 275.695V255.006L57.2712 250.322L67.0803 244.672L76.8072 250.281L85.0329 255.006V275.674L75.1004 281.468L67.0803 286.091L59.1837 281.468ZM68.3347 288.186L86.2461 277.914L104.158 288.186V308.855L96.7544 313.128L86.2461 319.189L76.252 313.416L68.3347 308.855V288.186ZM96.8778 281.098L87.5005 275.695V255.006L95.1916 250.65L105.474 244.754L115.797 250.65L123.385 255.006V275.674L113.946 281.119L105.474 285.988L96.8778 281.098ZM106.666 288.186L124.578 277.914L142.489 288.186V308.855L134.736 313.334L124.578 319.189L114.686 313.477L106.666 308.855V288.186ZM136.361 281.756L125.832 275.695V255.006L134.449 250.034L143.744 244.672L153.08 250.055L161.655 255.006V275.674L150.9 281.838L143.744 285.947L136.361 281.756ZM144.998 288.186L162.909 277.914L180.821 288.186V308.855L172.924 313.416L162.909 319.189L153.491 313.745L144.998 308.855V288.186ZM174.343 281.468L164.061 275.613V255.006L172.081 250.383L181.972 244.672L191.781 250.322L199.884 255.006V275.674L189.972 281.468L182.075 286.009L174.343 281.468ZM183.33 288.104L201.241 277.832L219.152 288.104V308.773L210.618 313.703L201.241 319.107L190.527 312.943L183.33 308.834V288.104ZM212.51 281.468L202.495 275.695V255.006L210.598 250.322L220.407 244.672L230.134 250.281L238.359 255.006V275.674L228.427 281.468L220.407 286.091L212.51 281.468ZM221.661 288.186L239.573 277.914L257.484 288.186V308.855L250.081 313.128L239.573 319.189L229.578 313.416L221.661 308.855V288.186ZM250.204 281.098L240.827 275.695V255.006L248.518 250.568L258.8 244.672L269.185 250.65L276.732 255.006V275.674L267.334 281.119L258.841 285.988L250.204 281.098ZM259.993 288.186L277.904 277.914L295.836 288.186V308.855L288.063 313.334L277.904 319.189L268.033 313.477L259.993 308.855V288.186ZM289.687 281.756L279.159 275.695V255.006L287.775 250.034L297.07 244.672L306.427 250.055L315.002 255.006V275.674L304.247 281.838L297.07 285.947L289.687 281.756ZM298.324 288.186L316.256 277.914L334.168 288.186V308.855L326.251 313.416L316.256 319.189L306.817 313.745L298.324 308.855V288.186ZM327.67 281.468L317.387 275.613V255.006L325.407 250.383L335.319 244.672L345.129 250.322L353.231 255.006V275.674L343.298 281.468L335.422 286.009L327.67 281.468ZM336.656 288.104L354.588 277.832L372.499 288.104V308.773L363.945 313.703L354.588 319.107L343.854 312.943L336.656 308.834V288.104ZM365.857 281.386L355.76 275.674V255.006L363.862 250.322L373.672 244.672L383.398 250.281L391.624 255.006V275.674L381.753 281.468L373.754 286.091L365.857 281.386ZM375.008 288.104L392.92 277.832L410.831 288.104V308.773L403.407 313.046L392.92 319.107L382.905 313.334L375.008 308.773V288.104ZM403.551 281.016L394.174 275.613V255.006L401.845 250.568L412.127 244.672L422.409 250.65L429.956 255.006V275.674L420.517 281.119L412.044 285.988L403.551 281.016ZM439.004 215.909L449.163 221.764V242.432L442.993 246.007L431.272 252.767L420.229 246.398L413.34 242.432V221.887L423.211 216.196L431.251 211.553L439.004 215.909ZM440.197 150.267L449.163 155.444V176.174L438.017 182.564L431.21 186.509L423.951 182.4L413.299 176.236V155.506L422.244 150.329L431.21 145.172L440.197 150.267ZM443.055 85.591L449.224 89.1042V109.834L438.654 115.998L431.313 120.251L423.499 115.751L413.34 109.834V89.1658L419.982 85.3444L431.251 78.8316L443.055 85.591ZM413.34 22.8256L421.134 18.3262L431.251 12.512L441.801 18.6755L449.163 22.9078V43.494L441.431 47.9729L431.251 53.8282L421.339 48.1167L413.34 43.494V22.8256ZM422.82 51.8559L429.997 55.9649V76.6744L419.201 82.8379L412.085 86.9469L404.682 82.6736L394.174 76.51V56.006L401.577 51.7326L412.085 45.6718L422.82 51.8559ZM375.008 22.8256L382.617 18.4906L392.899 12.5531L403.798 18.8399L410.81 22.9489V43.494L403.407 47.7674L392.899 53.8282L382.864 48.055L374.988 43.494L375.008 22.8256ZM383.645 51.3628L391.665 56.006V76.6744L380.622 83.0228L373.754 87.0086L367.153 83.2077L355.76 76.6744V56.006L363.739 51.3628L373.754 45.5896L383.645 51.3628ZM336.656 22.8256L343.298 19.0042L354.588 12.512L363.986 17.977L372.438 22.8256V43.494L363.986 48.4248L354.609 53.8282L343.854 47.6647L336.677 43.5557L336.656 22.8256ZM345.478 51.3628L353.395 55.9238V76.6744L342.064 83.2077L335.484 87.0086L329.315 83.4337L317.573 76.6744V56.006L325.325 51.5272L335.607 45.6718L345.478 51.3628ZM298.386 22.7434L306.735 17.9359L316.318 12.4298L326.6 18.3673L334.229 22.7434V43.494L326.333 48.055L316.318 53.8282L306.879 48.3838L298.386 43.494V22.7434ZM306.612 51.0341L315.105 55.9238V76.6744L302.766 83.7419L297.111 87.0086L290.942 83.4748L279.138 76.6744V56.006L287.693 51.0752L297.049 45.6718L306.612 51.0341ZM259.993 22.8256L267.807 18.3262L277.904 12.512L288.474 18.6755L295.836 22.9078V43.494L288.083 47.9729L277.801 53.8282L267.91 48.1167L259.89 43.494L259.993 22.8256ZM269.391 51.8559L276.588 55.9649V76.6744L265.792 82.8379L258.656 86.9469L251.274 82.6736L240.745 76.51V56.006L248.148 51.7326L258.656 45.6718L269.391 51.8559ZM221.661 22.8256L229.291 18.4906L239.573 12.5531L250.492 18.8399L257.484 22.9489V43.494L250.101 47.7674L239.573 53.8282L229.558 48.055L221.661 43.494V22.8256ZM230.319 51.3628L238.339 56.006V76.6744L227.316 83.0228L220.427 87.0086L213.867 83.2077L202.537 76.6744V56.006L210.413 51.3628L220.407 45.5896L230.319 51.3628ZM183.33 22.8256L189.972 19.0042L201.241 12.512L210.721 17.977L219.152 22.8256V43.494L210.618 48.4248L201.241 53.8282L190.486 47.6647L183.33 43.5557V22.8256ZM192.09 51.3628L199.987 55.9238V76.6744L188.676 83.2077L182.075 87.0086L175.906 83.4337L164.184 76.6744V56.006L171.937 51.5272L182.096 45.6718L192.09 51.3628ZM144.998 22.8256L153.347 18.0181L162.909 12.512L173.191 18.4495L180.8 22.8256V43.494L172.904 48.055L162.909 53.8282L153.47 48.3838L144.998 43.494V22.8256ZM153.224 51.1163L161.696 56.006V76.6744L149.358 83.7419L143.744 87.0086L137.574 83.4748L125.77 76.6744V56.006L134.305 51.0752L143.682 45.6718L153.224 51.1163ZM106.666 22.8256L114.481 18.3262L124.578 12.512L135.148 18.6755L142.489 22.9078V43.494L134.757 47.9729L124.475 53.8282L114.584 48.1167L106.564 43.494L106.666 22.8256ZM116.146 51.8559L123.323 55.9649V76.6744L112.548 82.8379L105.412 86.9469L98.0294 82.6736L87.5005 76.51V56.006L94.9037 51.7326L105.412 45.6718L116.146 51.8559ZM68.3347 22.8256L75.9435 18.4906L86.2256 12.5531L97.1246 18.8399L104.137 22.9489V43.494L96.7544 47.7674L86.2461 53.8282L76.2314 48.055L68.3347 43.494V22.8256ZM76.9717 51.3628L84.9917 56.006V76.6744L74.031 83.0228L67.142 87.0086L60.5615 83.2077L49.2306 76.6744V56.006L57.0656 51.3628L67.0803 45.5896L76.9717 51.3628ZM30.0031 22.8256L36.6454 19.0042L47.9145 12.512L57.3946 17.977L65.8054 22.8256V43.494L57.2712 48.4248L47.9145 53.8282L37.1595 47.6647L30.0031 43.5557V22.8256ZM22.6206 83.4337L10.899 76.6744V56.006L18.5078 51.5272L28.7898 45.6718L38.7635 51.3628L46.6601 55.9238V76.6744L35.3293 83.2077L28.7898 87.0086L22.6206 83.4337ZM19.7827 148.171L10.8373 142.994V122.326L21.1194 116.47L28.7898 111.991L36.6865 116.552L46.7012 122.326V142.994L37.7558 148.171L28.7898 153.328L19.7827 148.171ZM18.5078 213.792L10.7756 209.334V188.666L17.6029 184.721L28.7898 178.332L39.6272 184.495L46.7012 188.604V209.273L38.8046 213.834L28.7898 219.668L18.5078 213.792ZM20.9549 281.591L10.6728 275.736V255.006L18.6723 250.383L28.7898 244.672L38.599 250.322L46.7012 255.006V275.674L36.6454 281.468L28.7898 285.988L20.9549 281.591ZM22.6206 348.753L10.899 341.994V321.326L22.6206 314.566L28.7898 310.991L35.3704 314.792L46.7012 321.326V341.994L28.7898 352.267L22.6206 348.753ZM65.8054 375.174L47.894 385.447L29.9826 375.174V354.506L47.894 344.233L65.8054 354.506V375.174ZM60.4792 348.466L49.1484 341.932V321.326L60.4792 314.792L67.0598 310.991L74.031 314.977L85.0534 321.326V341.994L67.142 352.267L60.4792 348.466ZM104.137 375.174L86.2256 385.447L68.3142 375.174V354.506L86.2256 344.233L104.137 354.506V375.174ZM97.9677 348.075L87.4389 341.912V321.326L97.9677 315.162L105.35 310.889L112.486 314.998L123.262 321.161V341.83L105.35 352.102L97.9677 348.075ZM142.427 375.174L124.516 385.447L106.605 375.174V354.506L124.516 344.233L142.427 354.506V375.174ZM137.574 348.794L125.77 341.994V321.326L137.574 314.525L143.744 310.991L149.399 314.34L161.737 321.408V342.076L143.826 352.349L137.574 348.794ZM180.759 375.174L162.848 385.447L144.936 375.174V354.506L162.848 344.233L180.759 354.506V375.174ZM175.824 348.753L164.102 341.994V321.326L175.824 314.566L181.993 310.991L188.594 314.792L199.904 321.326V341.994L181.993 352.267L175.824 348.753ZM219.008 375.174L201.097 385.447L183.186 375.174V354.506L201.097 344.233L219.008 354.506V375.174ZM213.682 348.466L202.351 341.932V321.326L213.682 314.792L220.263 310.991L227.152 314.977L238.174 321.326V341.994L220.263 352.267L213.682 348.466ZM257.34 375.174L239.429 385.447L221.517 375.174V354.506L239.429 344.233L257.34 354.506V375.174ZM251.171 348.075L240.642 341.912V321.326L251.171 315.162L258.553 310.889L265.689 314.998L276.485 321.161V341.83L258.553 352.102L251.171 348.075ZM295.651 375.174L277.719 385.447L259.808 375.174V354.506L277.719 344.233L295.651 354.506V375.174ZM290.777 348.794L278.974 341.994V321.326L290.777 314.525L296.947 310.991L302.602 314.258L314.94 321.326V341.994L297.008 352.267L290.777 348.794ZM333.962 375.174L316.051 385.447L298.119 375.174V354.506L316.051 344.233L333.962 354.506V375.174ZM329.027 348.753L317.285 341.994V321.326L329.027 314.566L335.196 310.991L341.777 314.792L353.107 321.326V341.994L335.196 352.267L329.027 348.753ZM372.212 375.174L354.3 385.447L336.368 375.174V354.506L354.3 344.233L372.212 354.506V375.174ZM366.865 348.466L355.555 341.932V321.326L366.865 314.792L373.466 310.991L380.334 314.977L391.377 321.326V341.994L373.466 352.267L366.865 348.466ZM410.543 375.174L392.632 385.447L374.72 375.174V354.506L392.632 344.233L410.543 354.506V375.174ZM404.374 348.075L393.866 341.912V321.326L404.374 315.162L411.777 310.889L418.892 314.998L429.688 321.161V341.83L411.777 352.102L404.374 348.075ZM413.34 375.174V354.506L431.251 344.233L449.163 354.506V375.174L431.251 385.447L413.34 375.174Z" fill="url(#paint0_radial_902_119)"/>
<defs>
<radialGradient id="paint0_radial_902_119" cx="0" cy="0" r="1" gradientUnits="userSpaceOnUse" gradientTransform="translate(230.021 198.969) rotate(90) scale(198.969 230.021)">
<stop stop-color="#4E41F9"/>
<stop offset="1" stop-color="white" stop-opacity="0"/>
</radialGradient>
</defs>
</svg>
