<svg width="66" height="22" viewBox="0 0 66 22" fill="none" xmlns="http://www.w3.org/2000/svg">
<path d="M5.47461 1.26534C5.47461 0.998554 5.67158 0.798462 5.93421 0.798462C6.19684 0.798462 6.39381 0.998554 6.39381 1.26534C6.39381 1.53213 6.19684 1.73223 5.93421 1.73223C5.67158 1.73223 5.47461 1.53213 5.47461 1.26534Z" fill="#A19FBB"/>
<path d="M4.0293 1.26493C4.0293 1.13173 4.16061 0.998535 4.29192 0.998535C4.42324 0.998535 4.55455 1.13173 4.55455 1.26493C4.55455 1.39813 4.42324 1.53132 4.29192 1.53132C4.16061 1.53132 4.0293 1.39813 4.0293 1.26493Z" fill="#A19FBB"/>
<path d="M8.82422 1.26534C8.82422 0.998554 9.02119 0.798462 9.28382 0.798462C9.54645 0.798462 9.74342 0.998554 9.74342 1.26534C9.74342 1.53213 9.54645 1.73223 9.28382 1.73223C9.02119 1.73223 8.82422 1.53213 8.82422 1.26534Z" fill="#A19FBB"/>
<path d="M6.98438 1.26512C6.98438 0.931631 7.247 0.598145 7.64094 0.598145C7.96923 0.598145 8.29751 0.864934 8.29751 1.26512C8.29751 1.59861 8.03489 1.93209 7.64094 1.93209C7.247 1.93209 6.98438 1.59861 6.98438 1.26512Z" fill="#A19FBB"/>
<path d="M2.19141 2.9327C2.19141 2.66591 2.38838 2.46582 2.651 2.46582C2.91363 2.46582 3.1106 2.66591 3.1106 2.9327C3.1106 3.19949 2.91363 3.39958 2.651 3.39958C2.38838 3.39958 2.19141 3.19949 2.19141 2.9327Z" fill="#A19FBB"/>
<path d="M8.82422 2.9327C8.82422 2.66591 9.02119 2.46582 9.28382 2.46582C9.54645 2.46582 9.74342 2.66591 9.74342 2.9327C9.74342 3.19949 9.54645 3.39958 9.28382 3.39958C9.02119 3.39958 8.82422 3.19949 8.82422 2.9327Z" fill="#A19FBB"/>
<path d="M10.6602 2.93192C10.6602 2.79872 10.7915 2.66553 10.9228 2.66553C11.0541 2.66553 11.1854 2.79872 11.1854 2.93192C11.1854 3.06512 11.0541 3.19831 10.9228 3.19831C10.7915 3.19831 10.6602 3.06512 10.6602 2.93192Z" fill="#A19FBB"/>
<path d="M7.11719 2.9327C7.11719 2.66591 7.31416 2.46582 7.57679 2.46582C7.83941 2.46582 8.03638 2.66591 8.03638 2.9327C8.03638 3.19949 7.83941 3.39958 7.57679 3.39958C7.31416 3.39958 7.11719 3.19949 7.11719 2.9327Z" fill="#A19FBB"/>
<path d="M5.47461 2.9327C5.47461 2.66591 5.67158 2.46582 5.93421 2.46582C6.19684 2.46582 6.39381 2.66591 6.39381 2.9327C6.39381 3.19949 6.19684 3.39958 5.93421 3.39958C5.67158 3.39958 5.47461 3.19949 5.47461 2.9327Z" fill="#A19FBB"/>
<path d="M3.63672 2.93272C3.63672 2.59923 3.89935 2.26575 4.29329 2.26575C4.62157 2.26575 4.94986 2.53254 4.94986 2.93272C4.94986 3.26621 4.68723 3.59969 4.29329 3.59969C3.965 3.59969 3.63672 3.33291 3.63672 2.93272Z" fill="#A19FBB"/>
<path d="M3.83203 9.6025C3.83203 9.33571 4.029 9.13562 4.29163 9.13562C4.55426 9.13562 4.75123 9.33571 4.75123 9.6025C4.75123 9.86929 4.55426 10.0694 4.29163 10.0694C4.029 10.0694 3.83203 9.86929 3.83203 9.6025Z" fill="#A19FBB"/>
<path d="M8.95312 9.60172C8.95312 9.46852 9.08444 9.33533 9.21575 9.33533C9.34707 9.33533 9.47838 9.46852 9.47838 9.60172C9.47838 9.73492 9.34707 9.86811 9.21575 9.86811C9.08444 9.86811 8.95312 9.80152 8.95312 9.60172Z" fill="#A19FBB"/>
<path d="M10.4629 9.6025C10.4629 9.33571 10.6599 9.13562 10.9225 9.13562C11.1851 9.13562 11.3821 9.33571 11.3821 9.6025C11.3821 9.86929 11.1851 10.0694 10.9225 10.0694C10.6599 10.0694 10.4629 9.86929 10.4629 9.6025Z" fill="#A19FBB"/>
<path d="M2.19141 9.6025C2.19141 9.33571 2.38838 9.13562 2.651 9.13562C2.91363 9.13562 3.1106 9.33571 3.1106 9.6025C3.1106 9.86929 2.91363 10.0694 2.651 10.0694C2.38838 10.0694 2.19141 9.86929 2.19141 9.6025Z" fill="#A19FBB"/>
<path d="M12.1055 9.6025C12.1055 9.33571 12.3024 9.13562 12.5651 9.13562C12.8277 9.13562 13.0247 9.33571 13.0247 9.6025C13.0247 9.86929 12.8277 10.0694 12.5651 10.0694C12.3024 10.0694 12.1055 9.86929 12.1055 9.6025Z" fill="#A19FBB"/>
<path d="M0.550781 9.6025C0.550781 9.33571 0.747752 9.13562 1.01038 9.13562C1.27301 9.13562 1.46998 9.33571 1.46998 9.6025C1.46998 9.86929 1.27301 10.0694 1.01038 10.0694C0.747752 10.0694 0.550781 9.86929 0.550781 9.6025Z" fill="#A19FBB"/>
<path d="M5.47461 9.6025C5.47461 9.33571 5.67158 9.13562 5.93421 9.13562C6.19684 9.13562 6.39381 9.33571 6.39381 9.6025C6.39381 9.86929 6.19684 10.0694 5.93421 10.0694C5.67158 10.0694 5.47461 9.86929 5.47461 9.6025Z" fill="#A19FBB"/>
<path d="M7.11719 9.6025C7.11719 9.33571 7.31416 9.13562 7.57679 9.13562C7.83941 9.13562 8.03638 9.33571 8.03638 9.6025C8.03638 9.86929 7.83941 10.0694 7.57679 10.0694C7.31416 10.0694 7.11719 9.86929 7.11719 9.6025Z" fill="#A19FBB"/>
<path d="M5.66992 11.2696C5.66992 11.1364 5.80124 11.0032 5.93255 11.0032C6.06386 11.0032 6.19518 11.1364 6.19518 11.2696C6.19518 11.4028 6.06386 11.536 5.93255 11.536C5.80124 11.6026 5.66992 11.4694 5.66992 11.2696Z" fill="#A19FBB"/>
<path d="M7.11719 11.2699C7.11719 11.0031 7.31416 10.803 7.57679 10.803C7.83941 10.803 8.03638 11.0698 8.03638 11.2699C8.03638 11.5366 7.83941 11.7367 7.57679 11.7367C7.31416 11.7367 7.11719 11.5366 7.11719 11.2699Z" fill="#A19FBB"/>
<path d="M3.63672 11.2698C3.63672 10.9363 3.89935 10.6028 4.29329 10.6028C4.62157 10.6028 4.94986 10.8696 4.94986 11.2698C4.94986 11.6032 4.68723 11.9367 4.29329 11.9367C3.965 11.9367 3.63672 11.6699 3.63672 11.2698Z" fill="#A19FBB"/>
<path d="M8.82422 11.2699C8.82422 11.0031 9.02119 10.803 9.28382 10.803C9.54645 10.803 9.74342 11.0031 9.74342 11.2699C9.74342 11.5366 9.54645 11.7367 9.28382 11.7367C9.02119 11.7367 8.82422 11.5366 8.82422 11.2699Z" fill="#A19FBB"/>
<path d="M10.4629 11.2699C10.4629 11.0031 10.6599 10.803 10.9225 10.803C11.1851 10.803 11.3821 11.0031 11.3821 11.2699C11.3821 11.5366 11.1851 11.7367 10.9225 11.7367C10.6599 11.7367 10.4629 11.5366 10.4629 11.2699Z" fill="#A19FBB"/>
<path d="M2.19141 11.2699C2.19141 11.0031 2.38838 10.803 2.651 10.803C2.91363 10.803 3.1106 11.0031 3.1106 11.2699C3.1106 11.5366 2.91363 11.7367 2.651 11.7367C2.38838 11.7367 2.19141 11.5366 2.19141 11.2699Z" fill="#A19FBB"/>
<path d="M2.19141 4.60006C2.19141 4.33327 2.38838 4.13318 2.651 4.13318C2.91363 4.13318 3.1106 4.33327 3.1106 4.60006C3.1106 4.86685 2.91363 5.06694 2.651 5.06694C2.38838 5.06694 2.19141 4.86685 2.19141 4.60006Z" fill="#A19FBB"/>
<path d="M5.47461 4.60006C5.47461 4.33327 5.67158 4.13318 5.93421 4.13318C6.19684 4.13318 6.39381 4.33327 6.39381 4.60006C6.39381 4.86685 6.19684 5.06694 5.93421 5.06694C5.67158 5.06694 5.47461 4.86685 5.47461 4.60006Z" fill="#A19FBB"/>
<path d="M3.83203 4.60006C3.83203 4.33327 4.029 4.13318 4.29163 4.13318C4.55426 4.13318 4.75123 4.33327 4.75123 4.60006C4.75123 4.86685 4.55426 5.06694 4.29163 5.06694C4.029 5.06694 3.83203 4.86685 3.83203 4.60006Z" fill="#A19FBB"/>
<path d="M8.82422 4.60006C8.82422 4.33327 9.02119 4.13318 9.28382 4.13318C9.54645 4.13318 9.74342 4.33327 9.74342 4.60006C9.74342 4.86685 9.54645 5.06694 9.28382 5.06694C9.02119 5.06694 8.82422 4.86685 8.82422 4.60006Z" fill="#A19FBB"/>
<path d="M12.1055 4.60006C12.1055 4.33327 12.3024 4.13318 12.5651 4.13318C12.8277 4.13318 13.0247 4.33327 13.0247 4.60006C13.0247 4.86685 12.8277 5.06694 12.5651 5.06694C12.3024 5.06694 12.1055 4.86685 12.1055 4.60006Z" fill="#A19FBB"/>
<path d="M0.550781 4.60006C0.550781 4.33327 0.747752 4.13318 1.01038 4.13318C1.20735 4.13318 1.46998 4.33327 1.46998 4.60006C1.46998 4.86685 1.27301 5.06694 1.01038 5.06694C0.747752 5.06694 0.550781 4.86685 0.550781 4.60006Z" fill="#A19FBB"/>
<path d="M7.3125 4.59989C7.3125 4.46669 7.44381 4.3335 7.57513 4.3335C7.70644 4.3335 7.83776 4.46669 7.83776 4.59989C7.83776 4.73309 7.70644 4.86628 7.57513 4.86628C7.44381 4.86628 7.3125 4.73309 7.3125 4.59989Z" fill="#A19FBB"/>
<path d="M10.4629 4.60006C10.4629 4.33327 10.6599 4.13318 10.9225 4.13318C11.1851 4.13318 11.3821 4.33327 11.3821 4.60006C11.3821 4.86685 11.1851 5.06694 10.9225 5.06694C10.6599 5.06694 10.4629 4.86685 10.4629 4.60006Z" fill="#A19FBB"/>
<path d="M0.681641 6.26737C0.681641 6.13417 0.812955 6.00098 0.944268 6.00098C1.07558 6.00098 1.2069 6.13417 1.2069 6.26737C1.2069 6.40057 1.07558 6.53376 0.944268 6.53376C0.812955 6.53376 0.681641 6.40057 0.681641 6.26737Z" fill="#A19FBB"/>
<path d="M4.0293 6.26737C4.0293 6.13417 4.16061 6.00098 4.29192 6.00098C4.42324 6.00098 4.55455 6.13417 4.55455 6.26737C4.55455 6.40057 4.42324 6.53376 4.29192 6.53376C4.16061 6.53376 4.0293 6.40057 4.0293 6.26737Z" fill="#A19FBB"/>
<path d="M7.11719 6.26766C7.11719 6.00087 7.31416 5.80078 7.57679 5.80078C7.83941 5.80078 8.03638 6.00087 8.03638 6.26766C8.03638 6.53445 7.83941 6.73454 7.57679 6.73454C7.31416 6.73454 7.11719 6.53445 7.11719 6.26766Z" fill="#A19FBB"/>
<path d="M10.4629 6.26766C10.4629 6.00087 10.6599 5.80078 10.9225 5.80078C11.1851 5.80078 11.3821 6.00087 11.3821 6.26766C11.3821 6.53445 11.1851 6.73454 10.9225 6.73454C10.6599 6.73454 10.4629 6.53445 10.4629 6.26766Z" fill="#A19FBB"/>
<path d="M8.82422 6.26766C8.82422 6.00087 9.02119 5.80078 9.28382 5.80078C9.54645 5.80078 9.74342 6.00087 9.74342 6.26766C9.74342 6.53445 9.54645 6.73454 9.28382 6.73454C9.02119 6.73454 8.82422 6.53445 8.82422 6.26766Z" fill="#A19FBB"/>
<path d="M2.19141 6.26766C2.19141 6.00087 2.38838 5.80078 2.651 5.80078C2.91363 5.80078 3.1106 6.00087 3.1106 6.26766C3.1106 6.53445 2.91363 6.73454 2.651 6.73454C2.38838 6.73454 2.19141 6.53445 2.19141 6.26766Z" fill="#A19FBB"/>
<path d="M5.27734 6.26756C5.27734 5.93407 5.53997 5.60059 5.93391 5.60059C6.2622 5.60059 6.59048 5.86738 6.59048 6.26756C6.59048 6.60105 6.32785 6.93453 5.93391 6.93453C5.60563 6.93453 5.27734 6.60105 5.27734 6.26756Z" fill="#A19FBB"/>
<path d="M11.9082 6.26756C11.9082 5.93407 12.1708 5.60059 12.5648 5.60059C12.8931 5.60059 13.2213 5.86738 13.2213 6.26756C13.2213 6.60105 12.9587 6.93453 12.5648 6.93453C12.2365 6.93453 11.9082 6.60105 11.9082 6.26756Z" fill="#A19FBB"/>
<path d="M2.19141 7.93502C2.19141 7.66823 2.38838 7.46814 2.651 7.46814C2.91363 7.46814 3.1106 7.66823 3.1106 7.93502C3.1106 8.20181 2.91363 8.4019 2.651 8.4019C2.38838 8.4019 2.19141 8.20181 2.19141 7.93502Z" fill="#A19FBB"/>
<path d="M5.47461 7.93502C5.47461 7.66823 5.67158 7.46814 5.93421 7.46814C6.19684 7.46814 6.39381 7.66823 6.39381 7.93502C6.39381 8.20181 6.19684 8.4019 5.93421 8.4019C5.67158 8.4019 5.47461 8.20181 5.47461 7.93502Z" fill="#A19FBB"/>
<path d="M8.82422 7.93502C8.82422 7.66823 9.02119 7.46814 9.28382 7.46814C9.54645 7.46814 9.74342 7.66823 9.74342 7.93502C9.74342 8.20181 9.54645 8.4019 9.28382 8.4019C9.02119 8.4019 8.82422 8.20181 8.82422 7.93502Z" fill="#A19FBB"/>
<path d="M12.1055 7.93502C12.1055 7.66823 12.3024 7.46814 12.5651 7.46814C12.8277 7.46814 13.0247 7.66823 13.0247 7.93502C13.0247 8.20181 12.8277 8.4019 12.5651 8.4019C12.3024 8.4019 12.1055 8.20181 12.1055 7.93502Z" fill="#A19FBB"/>
<path d="M6.98438 7.93492C6.98438 7.60143 7.247 7.26794 7.64094 7.26794C7.96923 7.26794 8.29751 7.53473 8.29751 7.93492C8.29751 8.26841 8.03489 8.60189 7.64094 8.60189C7.247 8.60189 6.98438 8.26841 6.98438 7.93492Z" fill="#A19FBB"/>
<path d="M0.353516 7.93492C0.353516 7.60143 0.616143 7.26794 1.01009 7.26794C1.40403 7.26794 1.66665 7.53473 1.66665 7.93492C1.66665 8.26841 1.40403 8.60189 1.01009 8.60189C0.616143 8.60189 0.353516 8.26841 0.353516 7.93492Z" fill="#A19FBB"/>
<path d="M3.83203 7.93502C3.83203 7.66823 4.029 7.46814 4.29163 7.46814C4.55426 7.46814 4.75123 7.66823 4.75123 7.93502C4.75123 8.20181 4.55426 8.4019 4.29163 8.4019C4.029 8.4019 3.83203 8.20181 3.83203 7.93502Z" fill="#A19FBB"/>
<path d="M10.4629 7.93502C10.4629 7.66823 10.6599 7.46814 10.9225 7.46814C11.1851 7.46814 11.3821 7.66823 11.3821 7.93502C11.3821 8.20181 11.1851 8.4019 10.9225 8.4019C10.6599 8.4019 10.4629 8.20181 10.4629 7.93502Z" fill="#A19FBB"/>
<path d="M3.83203 13.0039C3.83203 12.7371 4.029 12.537 4.29163 12.537C4.55426 12.537 4.75123 12.7371 4.75123 13.0039C4.75123 13.2707 4.55426 13.4708 4.29163 13.4708C4.029 13.4708 3.83203 13.204 3.83203 13.0039Z" fill="#A19FBB"/>
<path d="M7.3125 13.0037C7.3125 12.8705 7.44381 12.7373 7.57513 12.7373C7.70644 12.7373 7.83776 12.8705 7.83776 13.0037C7.83776 13.1369 7.70644 13.2701 7.57513 13.2701C7.44381 13.2701 7.3125 13.1369 7.3125 13.0037Z" fill="#A19FBB"/>
<path d="M5.27734 13.0038C5.27734 12.6703 5.53997 12.3368 5.93391 12.3368C6.2622 12.3368 6.59048 12.6036 6.59048 13.0038C6.59048 13.3373 6.32785 13.6707 5.93391 13.6707C5.60563 13.604 5.27734 13.3373 5.27734 13.0038Z" fill="#A19FBB"/>
<path d="M8.82422 13.0039C8.82422 12.7371 9.02119 12.537 9.28382 12.537C9.54645 12.537 9.74342 12.7371 9.74342 13.0039C9.74342 13.2707 9.54645 13.4708 9.28382 13.4708C9.02119 13.4708 8.82422 13.204 8.82422 13.0039Z" fill="#A19FBB"/>
<path d="M22.5451 1.13184C24.1865 1.13184 25.434 1.73211 26.5502 2.66588C26.6815 2.79927 26.6815 2.99936 26.5502 3.13276L26.0906 3.59964C25.9593 3.79973 25.8279 3.73303 25.631 3.59964C24.7774 2.86597 23.5956 2.33239 22.4794 2.33239C19.8532 2.33239 17.8835 4.6001 17.8835 7.2013C17.8835 9.8025 19.8532 12.0035 22.4794 12.0035C23.9239 12.0035 24.7774 11.4032 25.631 10.7363C25.8279 10.6029 25.9593 10.6029 26.0249 10.6696L26.5502 11.1364C26.6815 11.2698 26.6815 11.4699 26.5502 11.6033C25.434 12.7372 23.9895 13.2041 22.5451 13.2041C19.2622 13.2041 16.5703 10.5362 16.5703 7.2013C16.5703 3.86643 19.1966 1.13184 22.5451 1.13184Z" fill="#A19FBB"/>
<path d="M27.5359 12.6705L32.5915 1.33193C32.6571 1.19853 32.7228 1.13184 32.8541 1.13184H32.9854C33.1167 1.13184 33.248 1.19853 33.248 1.33193L38.238 12.6705C38.3693 12.8706 38.238 13.1374 37.9753 13.1374H37.3188C37.1875 13.1374 37.0561 13.004 37.0561 12.9373L35.8087 10.136H29.8995L28.7177 12.9373C28.6521 13.004 28.5864 13.1374 28.4551 13.1374H27.7985C27.5359 13.0707 27.4046 12.8706 27.5359 12.6705ZM35.4147 9.06882C34.5612 7.268 33.7733 5.40047 32.9854 3.59964H32.8541L30.4248 9.13552H35.4147V9.06882Z" fill="#A19FBB"/>
<path d="M40.0754 1.66552C40.0754 1.46543 40.2067 1.33203 40.4037 1.33203H44.0805C46.1159 1.33203 47.7573 2.99947 47.7573 5.06709C47.7573 7.1347 46.1159 8.86884 44.0805 8.86884H41.3229V12.804C41.3229 13.0041 41.1916 13.1375 40.9946 13.1375H40.3381C40.1411 13.1375 40.0098 13.0041 40.0098 12.804V1.66552H40.0754ZM43.9492 7.60159C45.328 7.60159 46.4441 6.46773 46.4441 5.00039C46.4441 3.66644 45.2623 2.59928 43.9492 2.59928H41.3229V7.60159H43.9492Z" fill="#A19FBB"/>
<path d="M0.418336 20.6077L2.78199 15.2719C2.78199 15.2052 2.84764 15.2052 2.9133 15.2052H2.97896C3.04461 15.2052 3.11027 15.2719 3.11027 15.2719L5.47392 20.6077C5.53958 20.7411 5.47392 20.8078 5.34261 20.8078H5.01432C4.94866 20.8078 4.88301 20.7411 4.88301 20.7411L4.29209 19.4738H1.5345L0.943591 20.7411C0.943591 20.8078 0.877934 20.8078 0.812277 20.8078H0.54965C0.418336 20.8078 0.352679 20.6744 0.418336 20.6077ZM4.09512 18.9403C3.70118 18.0732 3.3729 17.2061 2.97896 16.3391H2.9133L1.79713 18.9403H4.09512Z" fill="#A19FBB"/>
<path d="M8.69171 15.2052C9.47959 15.2052 10.0705 15.472 10.5958 15.9389C10.6614 16.0056 10.6614 16.0723 10.5958 16.139L10.3988 16.3391C10.3331 16.4058 10.2675 16.4058 10.2018 16.3391C9.80788 16.0056 9.21697 15.7388 8.69171 15.7388C7.44423 15.7388 6.52503 16.8059 6.52503 18.0065C6.52503 19.207 7.44423 20.2742 8.69171 20.2742C9.34828 20.2742 9.74222 20.0074 10.2018 19.6739C10.2675 19.6072 10.3331 19.6072 10.3988 19.6739L10.6614 19.874C10.7271 19.9407 10.7271 20.0074 10.6614 20.0741C10.1362 20.6077 9.47959 20.8078 8.75737 20.8078C7.1816 20.8078 5.93412 19.5405 5.93412 18.0065C5.86846 16.4725 7.11594 15.2052 8.69171 15.2052Z" fill="#A19FBB"/>
<path d="M14.1409 15.2052C14.9288 15.2052 15.5197 15.472 16.045 15.9389C16.1106 16.0056 16.1106 16.0723 16.045 16.139L15.848 16.3391C15.7824 16.4058 15.7167 16.4058 15.651 16.3391C15.2571 16.0056 14.6662 15.7388 14.1409 15.7388C12.8934 15.7388 11.9742 16.8059 11.9742 18.0065C11.9742 19.207 12.8934 20.2742 14.1409 20.2742C14.7975 20.2742 15.1914 20.0074 15.651 19.6739C15.7167 19.6072 15.7824 19.6072 15.848 19.6739L16.1106 19.874C16.1763 19.9407 16.1763 20.0074 16.1106 20.0741C15.5854 20.6077 14.9288 20.8078 14.2066 20.8078C12.6308 20.8078 11.3833 19.5405 11.3833 18.0065C11.3177 16.4725 12.5652 15.2052 14.1409 15.2052Z" fill="#A19FBB"/>
<path d="M17.2266 15.4717C17.2266 15.405 17.2922 15.3383 17.3579 15.3383H19.3932C20.3124 15.3383 21.1003 16.0719 21.1003 17.0057C21.1003 17.7394 20.6407 18.3396 19.9842 18.6064L21.0347 20.6074C21.1003 20.7407 21.0347 20.8074 20.9034 20.8074H20.5094C20.4438 20.8074 20.3781 20.7407 20.3781 20.7407L19.3276 18.6731H17.8175V20.674C17.8175 20.7407 17.7518 20.8074 17.6862 20.8074H17.3579C17.2922 20.8074 17.2266 20.7407 17.2266 20.674V15.4717ZM19.3276 18.1395C19.9185 18.1395 20.4438 17.606 20.4438 17.0057C20.4438 16.4054 19.9185 15.8718 19.3276 15.8718H17.8175V18.1395H19.3276Z" fill="#A19FBB"/>
<path d="M22.3477 15.4717C22.3477 15.405 22.4133 15.3383 22.479 15.3383H25.5648C25.6305 15.3383 25.6962 15.405 25.6962 15.4717V15.6717C25.6962 15.7384 25.6305 15.8051 25.5648 15.8051H22.9386V17.7394H25.1709C25.2366 17.7394 25.3022 17.8061 25.3022 17.8728V18.0728C25.3022 18.1395 25.2366 18.2062 25.1709 18.2062H22.9386V20.2072H25.5648C25.6305 20.2072 25.6962 20.2739 25.6962 20.3406V20.5407C25.6962 20.6073 25.6305 20.674 25.5648 20.674H22.479C22.4133 20.674 22.3477 20.6073 22.3477 20.5407V15.4717Z" fill="#A19FBB"/>
<path d="M26.9434 15.4717C26.9434 15.405 27.009 15.3383 27.0747 15.3383H28.7818C30.2919 15.3383 31.4737 16.6055 31.4737 18.0728C31.4737 19.6069 30.2262 20.8074 28.7818 20.8074H27.0747C27.009 20.8074 26.9434 20.7407 26.9434 20.674V15.4717ZM28.7161 20.2739C29.9636 20.2739 30.8828 19.3401 30.8828 18.0728C30.8828 16.8056 29.9636 15.8718 28.7161 15.8718H27.5343V20.3406H28.7161V20.2739Z" fill="#A19FBB"/>
<path d="M32.7227 15.4717C32.7227 15.405 32.7883 15.3383 32.854 15.3383H33.1823C33.2479 15.3383 33.3136 15.405 33.3136 15.4717V20.674C33.3136 20.7407 33.2479 20.8074 33.1823 20.8074H32.854C32.7883 20.8074 32.7227 20.7407 32.7227 20.674V15.4717Z" fill="#A19FBB"/>
<path d="M35.6761 15.8051H34.2973C34.2317 15.8051 34.166 15.7384 34.166 15.6717V15.4717C34.166 15.405 34.2317 15.3383 34.2973 15.3383H37.5802C37.6458 15.3383 37.7115 15.405 37.7115 15.4717V15.6717C37.7115 15.7384 37.6458 15.8051 37.5802 15.8051H36.267V20.674C36.267 20.7407 36.2014 20.8074 36.1357 20.8074H35.8731C35.8074 20.8074 35.7418 20.7407 35.7418 20.674V15.8051H35.6761Z" fill="#A19FBB"/>
<path d="M38.6309 15.4717C38.6309 15.405 38.6965 15.3383 38.7622 15.3383H41.848C41.9137 15.3383 41.9794 15.405 41.9794 15.4717V15.6717C41.9794 15.7384 41.9137 15.8051 41.848 15.8051H39.2218V17.7394H41.4541C41.5198 17.7394 41.5854 17.8061 41.5854 17.8728V18.0728C41.5854 18.1395 41.5198 18.2062 41.4541 18.2062H39.2218V20.2072H41.848C41.9137 20.2072 41.9794 20.2739 41.9794 20.3406V20.5407C41.9794 20.6073 41.9137 20.674 41.848 20.674H38.7622C38.6965 20.674 38.6309 20.6073 38.6309 20.5407V15.4717Z" fill="#A19FBB"/>
<path d="M43.2266 15.4717C43.2266 15.405 43.2922 15.3383 43.3579 15.3383H45.065C46.5751 15.3383 47.7569 16.6055 47.7569 18.0728C47.7569 19.6069 46.5094 20.8074 45.065 20.8074H43.3579C43.2922 20.8074 43.2266 20.7407 43.2266 20.674V15.4717ZM44.9993 20.2739C46.2468 20.2739 47.166 19.3401 47.166 18.0728C47.166 16.8056 46.2468 15.8718 44.9993 15.8718H43.8175V20.3406H44.9993V20.2739Z" fill="#A19FBB"/>
<path d="M65.091 8.26855L53.2727 21.1412L47.5605 14.4047L53.8636 17.9397L65.091 8.26855Z" fill="#A19FBB"/>
</svg>
