<svg width="49" height="27" viewBox="0 0 49 27" fill="none" xmlns="http://www.w3.org/2000/svg">
<g clip-path="url(#clip0_902_997)">
<path d="M25.5277 14.3749C25.4606 14.3658 25.4074 14.3525 25.3544 14.3524C24.8394 14.3508 24.3244 14.3508 23.8094 14.3524C23.6464 14.3524 23.629 14.3716 23.6287 14.544C23.6278 15.3266 23.6278 16.1093 23.6287 16.8919C23.6287 16.9336 23.6307 16.9755 23.6287 17.0172C23.6225 17.1197 23.6099 17.1375 23.5124 17.138C23.0328 17.1402 22.5532 17.1402 22.0734 17.138C21.9645 17.138 21.9544 17.1234 21.9522 17.0084C21.9498 16.8832 21.9522 16.7579 21.9522 16.6327V10.4184C21.9522 10.3871 21.9522 10.3558 21.9522 10.3245C21.9522 10.2675 21.9807 10.2378 22.0353 10.235C22.0655 10.2334 22.0958 10.2329 22.1261 10.2329H23.4439C23.4792 10.2329 23.5147 10.2339 23.55 10.2359C23.5974 10.2386 23.6257 10.2644 23.6272 10.3142C23.6293 10.3611 23.6296 10.4081 23.6296 10.4551C23.6296 11.1803 23.6296 11.9056 23.6296 12.6308C23.6296 12.8619 23.6296 12.8627 23.8599 12.863C24.3446 12.863 24.8293 12.863 25.314 12.863C25.3493 12.863 25.3846 12.8617 25.42 12.8606C25.4927 12.8586 25.5325 12.8246 25.5286 12.7446C25.5266 12.703 25.5286 12.6612 25.5286 12.6194C25.5286 11.8994 25.5286 11.1793 25.5286 10.4593C25.5286 10.4383 25.5286 10.4175 25.5286 10.3967C25.5304 10.2389 25.5336 10.2345 25.6952 10.2336C25.9121 10.2322 26.1293 10.2336 26.3465 10.2326C26.5837 10.2326 26.8209 10.2311 27.0584 10.2326C27.1948 10.2336 27.2042 10.2433 27.2045 10.3849C27.2058 10.8076 27.2045 11.2302 27.2045 11.6528C27.2045 13.4007 27.2045 15.1486 27.2045 16.8966C27.2045 17.1452 27.2196 17.1388 26.9756 17.1385C26.5466 17.1385 26.1175 17.1385 25.6881 17.1385C25.5321 17.1385 25.5289 17.1341 25.5288 16.9694C25.5288 16.1711 25.5288 15.3728 25.5288 14.5745L25.5277 14.3749Z" fill="#A19FBB"/>
<path d="M48.9829 17.1239C48.9194 17.1297 48.8713 17.138 48.8229 17.1382C48.3382 17.1391 47.8535 17.1391 47.3688 17.1382C47.2143 17.1382 47.2113 17.1372 47.1665 16.9874C47.0604 16.634 46.9593 16.2794 46.8549 15.9257C46.8049 15.7558 46.8038 15.7544 46.6392 15.7535C46.0737 15.7525 45.5082 15.7525 44.9427 15.7535C44.7848 15.7535 44.7854 15.7558 44.737 15.9172C44.6296 16.2757 44.5218 16.6339 44.4137 16.992C44.3699 17.136 44.3682 17.1368 44.2261 17.1371C43.8274 17.1382 43.4285 17.1382 43.0295 17.1371C42.9906 17.1371 42.9517 17.1303 42.8906 17.1247C43.5987 14.8143 44.3026 12.517 45.0085 10.2138C45.0624 10.2106 45.1068 10.2055 45.1512 10.2055C45.6864 10.2049 46.2215 10.2049 46.7567 10.2055C46.9205 10.2055 46.9234 10.2055 46.9688 10.36C47.2898 11.4299 47.6103 12.5 47.9302 13.5703C48.1856 14.4212 48.4419 15.2717 48.6993 16.1218C48.7861 16.4102 48.8724 16.6989 48.9584 16.9879C48.9688 17.0328 48.977 17.0782 48.9829 17.1239ZM45.8216 12.1281C45.7242 12.2799 45.1984 14.1926 45.2075 14.3273H46.4167C46.2286 13.5913 46.0229 12.8785 45.8216 12.1281Z" fill="#A19FBB"/>
<path d="M36.4492 17.1251C36.5668 16.7395 36.674 16.3873 36.7825 16.0351C37.1105 14.9628 37.4387 13.8903 37.767 12.8178C38.0163 12.0038 38.2657 11.1899 38.5153 10.3759C38.526 10.3412 38.5304 10.3009 38.551 10.2737C38.575 10.2445 38.606 10.2222 38.6408 10.2092C38.6673 10.1989 38.7007 10.2067 38.731 10.2067H40.3214C40.4773 10.2067 40.4792 10.2067 40.5227 10.3516C40.8364 11.3963 41.1495 12.4412 41.4618 13.4862C41.7366 14.4015 42.0122 15.3164 42.2887 16.231C42.3665 16.4895 42.4445 16.7475 42.521 17.0072C42.5298 17.0459 42.5363 17.0851 42.5406 17.1246C42.5 17.1314 42.4591 17.1361 42.418 17.1385C41.9184 17.1394 41.4185 17.1394 40.9185 17.1385C40.7616 17.1385 40.7607 17.137 40.7132 16.9735C40.6119 16.6243 40.5124 16.2746 40.4103 15.9257C40.3602 15.7546 40.3585 15.7545 40.1946 15.7535C39.6291 15.7535 39.0636 15.7535 38.4982 15.7535C38.3384 15.7535 38.338 15.7549 38.2905 15.9154C38.1872 16.264 38.0851 16.6129 37.9807 16.9612C37.9279 17.1376 37.926 17.1376 37.7522 17.1377C37.3785 17.1384 37.0049 17.1384 36.6313 17.1377C36.5795 17.1381 36.5265 17.1309 36.4492 17.1251ZM38.74 14.3075C38.8929 14.3545 39.8426 14.3501 39.9527 14.3086C39.9397 14.1168 39.418 12.2533 39.3368 12.1438C39.1277 12.8731 38.9286 13.5886 38.7399 14.3069L38.74 14.3075Z" fill="#A19FBB"/>
<path d="M31.6671 13.6858C31.6671 12.611 31.6671 11.5364 31.6671 10.4621C31.6671 10.2285 31.6681 10.2284 31.8905 10.2284C32.7589 10.2284 33.627 10.228 34.4949 10.2274C34.8694 10.2274 35.2452 10.2453 35.5979 10.3839C36.3051 10.6624 36.7592 11.1815 36.894 11.9608C36.9968 12.5557 36.904 13.1279 36.6001 13.6472C36.2612 14.2263 35.7487 14.5461 35.0985 14.5926C34.6112 14.6275 34.1209 14.6181 33.6319 14.6283C33.5865 14.6292 33.5411 14.6303 33.4956 14.6283C33.4211 14.6263 33.3823 14.6613 33.382 14.7396C33.382 14.7761 33.3808 14.8125 33.3808 14.8492C33.3808 15.5429 33.3808 16.2369 33.3808 16.931C33.3808 16.9675 33.3799 17.0041 33.3797 17.0406C33.3797 17.1041 33.3489 17.1368 33.2872 17.1386C33.2569 17.1395 33.2266 17.1406 33.1963 17.1406H31.8634C31.8331 17.1406 31.8028 17.1394 31.7725 17.1389C31.7062 17.1378 31.6684 17.1057 31.6674 17.0345C31.6674 16.9875 31.666 16.9406 31.666 16.8936C31.6666 15.8245 31.667 14.7552 31.6671 13.6858ZM33.3567 13.251C33.4241 13.2566 33.483 13.2666 33.5418 13.2657C33.8493 13.2593 34.1569 13.2549 34.464 13.2403C35.0477 13.2125 35.2983 12.7238 35.2071 12.2368C35.1389 11.8719 34.887 11.6633 34.4782 11.6276C34.1572 11.5997 33.8332 11.6072 33.5106 11.6016C33.462 11.6016 33.4132 11.6144 33.3567 11.6224V13.251Z" fill="#A19FBB"/>
<path d="M18.5027 14.4714C18.0987 14.2087 17.6898 13.9409 17.197 13.8111C17.2567 13.7235 17.3358 13.7147 17.4001 13.6834C17.6554 13.5591 17.9151 13.4428 18.1667 13.3126C18.5222 13.1293 18.5951 12.7772 18.48 12.4349C18.3948 12.1754 18.2229 11.9557 17.9953 11.8152C17.6192 11.5804 17.2123 11.4298 16.7708 11.4023C16.1923 11.3661 15.6125 11.3483 15.0346 11.3043C14.2852 11.2471 13.5365 11.167 12.8242 10.8984C12.3571 10.7225 11.9195 10.4836 11.5651 10.112C11.4773 10.0187 11.4014 9.9142 11.3394 9.80096C11.1661 9.48696 11.0313 9.15511 10.9737 8.79634C10.9283 8.51615 10.9609 8.23643 10.9896 7.95577C11.0436 7.42873 11.3109 7.04241 11.6891 6.70508C12.0566 6.37715 12.4751 6.19119 12.9463 6.10338C13.1232 6.07035 13.2933 5.99944 13.47 5.96359C13.7935 5.89785 14.1213 5.87484 14.4466 5.94794C14.8147 6.02996 15.1157 6.23502 15.3567 6.52852C15.48 6.67879 15.4627 6.77897 15.3129 6.89918C15.1254 7.05008 14.9006 7.11488 14.6747 7.17155C14.5624 7.19972 14.4475 7.21569 14.3323 7.23291C14.2063 7.25254 14.0775 7.22813 13.9665 7.16356C13.7452 7.03756 13.5001 6.99764 13.2559 6.96508C13.0873 6.94238 12.9378 7.01548 12.8156 7.1346C12.4672 7.47224 12.2855 7.89049 12.2661 8.38185C12.2574 8.59269 12.3103 8.7954 12.3762 8.99232C12.4186 9.11958 12.5112 9.21146 12.6158 9.28769C13.1193 9.65491 13.6734 9.88815 14.29 9.95561C14.6354 9.99334 14.9804 10.0353 15.3262 10.0693C15.5319 10.0894 15.739 10.0932 15.9447 10.1128C16.2255 10.1395 16.5062 10.1699 16.7859 10.2067C17.1307 10.2522 17.4759 10.3023 17.8056 10.4225C18.1976 10.5655 18.5807 10.7337 18.8861 11.0346C19.2938 11.4361 19.5963 11.9018 19.6283 12.508C19.6387 12.7049 19.6569 12.9039 19.642 13.0995C19.6214 13.3689 19.47 13.5859 19.32 13.7961C19.1499 14.0345 18.7878 14.3283 18.5027 14.4714ZM14.5142 6.4119C14.6051 6.41425 14.6855 6.36416 14.691 6.30233C14.6967 6.23627 14.6102 6.17789 14.5112 6.18117C14.4176 6.18415 14.3397 6.23737 14.3402 6.29795C14.3406 6.35852 14.4213 6.40955 14.5142 6.4119Z" fill="#A19FBB"/>
<path d="M16.394 6.04981C16.1703 5.94258 16.0377 5.7668 15.9244 5.57286C15.872 5.48254 15.8879 5.42039 15.9767 5.35997C16.0777 5.29126 16.1856 5.23365 16.2889 5.16869C16.6162 4.96301 16.9602 4.78003 17.2655 4.54398C17.6677 4.2331 17.936 3.81344 18.038 3.2936C18.0782 3.10009 18.0989 2.90281 18.0998 2.70489C18.0998 2.5493 18.1168 2.39355 18.1301 2.23827C18.1437 2.07543 18.2171 1.92417 18.3354 1.81564C18.5044 1.65472 18.6939 1.53388 18.9166 1.46313C19.4257 1.30096 19.9296 1.35731 20.4176 1.52652C20.8851 1.68853 21.3431 1.88388 21.7942 2.09004C22.2637 2.30495 22.7213 2.5493 23.1824 2.78456C23.2672 2.83047 23.3482 2.88339 23.4248 2.94282C23.58 3.05787 23.5561 3.25901 23.4169 3.3617C23.192 3.52746 22.9529 3.6278 22.6771 3.64345C22.476 3.65488 22.2757 3.68806 22.0747 3.69448C21.9336 3.69677 21.7925 3.68556 21.6533 3.66098C21.356 3.6123 21.0656 3.64157 20.7937 3.76555C20.4113 3.93992 20.0324 4.12447 19.6626 4.32546C19.1763 4.58968 18.6994 4.87207 18.2206 5.15069C17.9163 5.32773 17.597 5.46892 17.2707 5.59477C16.9653 5.71279 16.6579 5.82988 16.394 6.04981Z" fill="#A19FBB"/>
<path d="M15.1836 6.05065C14.8958 5.80458 14.5489 5.6875 14.2089 5.55836C13.7037 5.36676 13.2475 5.0789 12.7825 4.80607C12.1816 4.45372 11.5736 4.1142 10.9402 3.82665C10.606 3.67482 10.2626 3.60657 9.89503 3.66276C9.47243 3.72726 9.05058 3.67294 8.63238 3.6036C8.42653 3.56931 8.25991 3.44503 8.10708 3.30822C8.00226 3.2143 8.01408 3.06998 8.12904 2.96651C8.2015 2.90172 8.2813 2.84627 8.3667 2.80137C8.77127 2.58896 9.17388 2.37154 9.58588 2.17525C9.9797 1.98741 10.3826 1.82149 10.7848 1.65369C11.2278 1.46929 11.6877 1.35205 12.1686 1.37443C12.5161 1.39009 12.847 1.47712 13.1245 1.71379C13.2704 1.83808 13.4093 1.97019 13.4379 2.17587C13.4594 2.33006 13.4793 2.4869 13.4758 2.64202C13.4694 2.94478 13.5127 3.24646 13.6039 3.53425C13.7402 3.97082 14 4.32145 14.3602 4.58082C14.6453 4.78603 14.9509 4.95978 15.2492 5.1459C15.3613 5.21618 15.4781 5.27864 15.5891 5.35064C15.6915 5.41685 15.7037 5.47947 15.6471 5.587C15.5529 5.76748 15.3814 5.9417 15.1836 6.05065Z" fill="#A19FBB"/>
<path d="M28.5312 17.1259V10.2157C28.5903 10.2119 28.6392 10.2063 28.6882 10.2063C29.1325 10.2057 29.5768 10.2057 30.0211 10.2063C30.2029 10.2063 30.2039 10.2063 30.2039 10.3976V16.1714C30.2039 16.4375 30.205 16.7036 30.2039 16.9697C30.2039 17.1297 30.1962 17.1378 30.0413 17.1383C29.5868 17.1397 29.1324 17.1397 28.678 17.1383C28.6344 17.1381 28.589 17.1309 28.5312 17.1259Z" fill="#A19FBB"/>
<path d="M12.5875 11.1443L14.0567 11.5771C13.959 11.6241 13.8501 11.6741 13.7421 11.7274C13.5325 11.8307 13.3716 11.9914 13.2341 12.1833C12.9174 12.6249 13.1267 13.1567 13.4475 13.3616C13.6016 13.4599 13.76 13.5596 13.9292 13.6217C14.2131 13.7258 14.5048 13.8074 14.7979 13.8837C14.9234 13.9165 15.0577 13.9169 15.1882 13.9243C15.6313 13.9495 16.0769 13.9492 16.5171 13.9994C17.2215 14.0799 17.882 14.2784 18.3601 14.8813C18.5811 15.1598 18.695 15.4829 18.7788 15.8238C18.8718 16.2024 18.823 16.5672 18.6854 16.9244C18.634 17.0574 18.5642 17.1748 18.4486 17.2607C18.2773 17.388 18.1093 17.5198 17.9382 17.651C17.6352 17.4439 17.3823 17.1781 16.9981 17.0945C17.1531 17.0319 17.2794 16.9815 17.4048 16.9291C17.9222 16.7126 18.0012 16.1264 17.7381 15.7009C17.5201 15.3489 17.1993 15.1531 16.8047 15.0662C16.5152 15.0028 16.224 14.9925 15.9321 15.0036C15.3948 15.0238 14.8632 14.9676 14.3377 14.8689C14.0172 14.8087 13.7026 14.7046 13.3922 14.5985C12.7814 14.389 12.3183 13.9908 12.033 13.3893C11.9875 13.2936 11.9528 13.1809 11.9531 13.0762C11.9531 12.8009 11.9531 12.5216 11.9963 12.2511C12.0664 11.8097 12.3226 11.4639 12.5875 11.1443Z" fill="#A19FBB"/>
<path d="M9.40634 3.97625C9.09492 4.09506 8.78623 4.22232 8.47147 4.33064C7.7732 4.57091 7.07356 4.80743 6.37104 5.03424C5.95692 5.16792 5.52902 5.24243 5.09869 5.3016C4.7591 5.34856 4.42117 5.41399 4.08021 5.44138C3.5125 5.48693 2.94419 5.52419 2.37481 5.43027C2.0852 5.38253 1.79817 5.32931 1.52658 5.21112C1.22834 5.08073 1.01613 4.8511 0.824219 4.55886C0.942062 4.54007 1.03416 4.52239 1.12716 4.51112C1.4925 4.46666 1.85845 4.42769 2.22334 4.3801C2.83316 4.30074 3.44056 4.20619 4.04219 4.0722C4.63808 3.93946 5.23638 3.81878 5.83393 3.69496C6.21063 3.6167 6.57613 3.49992 6.93966 3.37454C7.13521 3.30708 7.33787 3.26231 7.5363 3.20424C7.61203 3.18217 7.6599 3.19751 7.69246 3.27702C7.85408 3.67211 8.18701 3.82144 8.55872 3.90534C8.70218 3.93531 8.84758 3.95435 8.99374 3.96232C9.12779 3.97155 9.26305 3.9642 9.39771 3.9642L9.40634 3.97625Z" fill="#A19FBB"/>
<path d="M22.1843 3.9432C22.2044 3.94137 22.2247 3.94137 22.2449 3.9432C22.4977 3.99016 22.7485 3.95103 22.9955 3.90704C23.2871 3.85507 23.5632 3.7538 23.7562 3.50006C23.8054 3.43526 23.8418 3.35997 23.8813 3.2878C23.9353 3.18903 23.943 3.18027 24.0479 3.20954C24.2815 3.27372 24.5175 3.33257 24.7461 3.41146C25.2252 3.57645 25.7155 3.69447 26.2096 3.7959C26.8221 3.92113 27.4321 4.06201 28.0469 4.17361C28.577 4.27004 29.1123 4.33922 29.6463 4.41405C29.9946 4.46288 30.3461 4.50014 30.6958 4.5435C30.7043 4.54444 30.711 4.55461 30.7353 4.57246C30.6929 4.6382 30.6561 4.7113 30.6052 4.77156C30.4097 5.00276 30.1826 5.1859 29.8904 5.27513C29.5946 5.36529 29.2956 5.43479 28.9878 5.4542C28.7265 5.47079 28.4644 5.48769 28.2028 5.483C27.729 5.47425 27.2566 5.42989 26.7891 5.35026C26.3718 5.27982 25.951 5.22128 25.541 5.11828C25.0766 5.00151 24.619 4.85218 24.1647 4.69721C23.5622 4.49137 22.9657 4.26675 22.3669 4.04886C22.3018 4.02522 22.2396 3.99329 22.1758 3.96527L22.1843 3.9432Z" fill="#A19FBB"/>
<path d="M17.3098 9.9535C17.6382 9.91757 17.9597 9.83192 18.264 9.69929C18.5387 9.57993 18.7977 9.42525 19.0349 9.23893C19.1209 9.17084 19.1878 9.08756 19.2222 8.97987C19.404 8.41135 19.3342 7.88024 18.995 7.39186C18.9353 7.3079 18.8688 7.22935 18.7961 7.15706C18.643 7.00053 18.4576 6.93119 18.2434 6.97314C18.0258 7.01587 17.8075 7.05735 17.6098 7.17209C17.5068 7.23011 17.3884 7.25208 17.2723 7.2347C16.9862 7.19776 16.7046 7.13906 16.4449 7.00288C16.3681 6.96413 16.2962 6.91565 16.231 6.85856C16.1451 6.78029 16.1344 6.69326 16.193 6.59136C16.2309 6.52374 16.2781 6.46215 16.3331 6.40853C16.7652 6.0003 17.2648 5.82123 17.8505 5.94223C18.1713 6.00844 18.4959 6.05915 18.8126 6.14212C19.0358 6.2005 19.2502 6.29724 19.4649 6.38599C19.5438 6.42103 19.6172 6.46803 19.6827 6.52546C19.819 6.64051 19.9499 6.7637 20.0824 6.88423C20.3766 7.15127 20.5323 7.4947 20.5894 7.88822C20.6103 8.03207 20.6156 8.17812 20.6286 8.32322C20.6666 8.74586 20.5539 9.13531 20.3954 9.51975C20.2136 9.96132 19.9106 10.2825 19.518 10.5215C19.4094 10.5876 19.2969 10.6468 19.1878 10.7122C19.1292 10.7474 19.0807 10.7451 19.0212 10.7056C18.5895 10.4178 18.1101 10.2398 17.6289 10.0664C17.5305 10.0305 17.4305 9.99592 17.3098 9.9535ZM17.0068 6.41307C17.0969 6.41307 17.1812 6.35625 17.181 6.29646C17.1809 6.23666 17.0919 6.17984 17.0053 6.18125C16.9075 6.18297 16.8341 6.23322 16.8351 6.29818C16.836 6.36314 16.9112 6.41338 17.0064 6.41307H17.0068Z" fill="#A19FBB"/>
<path d="M17.1908 20.5701C16.9712 20.3574 16.7005 20.2501 16.4053 20.1842C16.599 20.0778 16.782 19.9833 16.9592 19.8784C17.1498 19.7657 17.2866 19.604 17.3478 19.3801C17.3802 19.2617 17.3894 19.1427 17.3541 19.0254C17.3152 18.8965 17.2763 18.7661 17.2208 18.6441C17.1422 18.4668 17.0058 18.3236 16.8355 18.2395C16.4689 18.056 16.0886 17.9674 15.6778 18.0291C15.5244 18.052 15.3655 18.0418 15.2093 18.0368C14.6592 18.0191 14.1245 17.9196 13.6358 17.6477C13.3356 17.4808 13.0787 17.2563 12.9138 16.9332C12.8268 16.7634 12.7846 16.5889 12.7676 16.3979C12.7234 15.9039 12.8709 15.4619 13.0901 15.037C13.2031 14.8179 13.2903 14.7919 13.5069 14.8902C13.7882 15.0179 14.0727 15.1377 14.4082 15.194C14.3574 15.2344 14.3279 15.2663 14.2919 15.2851C13.976 15.4493 13.8129 15.7189 13.7734 16.0764C13.7682 16.1234 13.7532 16.168 13.7487 16.2145C13.7217 16.4898 13.82 16.6997 14.0495 16.849C14.279 16.9984 14.5342 17.0801 14.8005 17.1211C15.0344 17.1572 15.27 17.1851 15.5059 17.2026C15.7113 17.2183 15.9186 17.2061 16.124 17.2206C16.3758 17.2383 16.6249 17.28 16.8614 17.3772C17.082 17.4674 17.291 17.5854 17.4836 17.7286C17.621 17.8272 17.7325 17.9596 17.8081 18.1138C17.8709 18.2444 17.9461 18.3686 18.0086 18.4993C18.1822 18.862 18.178 19.2286 18.0351 19.6029C17.8717 20.0305 17.5713 20.3251 17.1908 20.5701Z" fill="#A19FBB"/>
<path d="M20.2461 4.39295C20.4108 4.23183 20.6032 4.10389 20.8133 4.01571C21.0557 3.91303 21.3073 3.92962 21.559 3.94152C21.5891 3.94378 21.6184 3.95253 21.6451 3.96719C22.3956 4.36619 23.1805 4.67815 23.9803 4.95224C24.4153 5.10126 24.8455 5.26734 25.2861 5.39585C25.7557 5.53266 26.2364 5.62423 26.7202 5.7003C27.1705 5.7709 27.6207 5.80675 28.0754 5.79172C28.1106 5.79176 28.1457 5.7958 28.1801 5.80377C28.1981 5.80753 28.2145 5.81942 28.262 5.84337C28.1575 5.89769 28.0762 5.94355 27.9921 5.98331C27.7149 6.11402 27.4209 6.1843 27.1222 6.23627C26.4974 6.34474 25.8694 6.36008 25.2388 6.30686C24.3331 6.23016 23.4677 5.98707 22.6172 5.66289C21.9189 5.39679 21.2575 5.05712 20.6089 4.68598C20.5596 4.65964 20.5126 4.62906 20.4683 4.59457C20.3979 4.53634 20.3321 4.47169 20.2461 4.39295Z" fill="#A19FBB"/>
<path d="M3.31836 5.82076C3.40636 5.80824 3.46377 5.79603 3.52148 5.7929C3.59722 5.78867 3.67295 5.78883 3.74868 5.79196C4.0664 5.80392 4.38443 5.7802 4.69719 5.72121C5.14372 5.63997 5.59419 5.5747 6.03361 5.46325C6.46802 5.35367 6.8938 5.20278 7.31792 5.05392C7.80474 4.88314 8.28732 4.69984 8.76839 4.51138C9.02256 4.41167 9.26945 4.2913 9.51787 4.17609C9.65555 4.11223 9.78915 4.03897 9.92532 3.97135C9.95181 3.95646 9.98062 3.9465 10.0104 3.94192C10.3694 3.90842 10.7167 3.93738 11.0286 4.15058C11.1325 4.22164 11.2443 4.28331 11.322 4.39977C11.2272 4.50923 11.1154 4.60164 10.9912 4.67323C10.4553 4.97518 9.9235 5.28574 9.35004 5.50911C8.69448 5.76457 8.03816 6.01565 7.34746 6.15903C6.65019 6.30651 5.93773 6.36273 5.22688 6.32636C4.79337 6.30288 4.36214 6.24809 3.9459 6.11348C3.76413 6.05478 3.58964 5.96978 3.41288 5.89433C3.38713 5.88369 3.36728 5.8599 3.31836 5.82076Z" fill="#A19FBB"/>
<path d="M12.9271 5.23167C12.6835 5.36848 12.4614 5.50043 12.2332 5.62002C11.5719 5.96674 10.903 6.29671 10.2168 6.58942C9.72818 6.79808 9.22802 6.93129 8.69727 6.97042C8.10987 7.01409 7.53989 6.9604 6.98142 6.77178C6.86328 6.73187 6.74437 6.68898 6.62305 6.58222C6.76861 6.55671 6.88979 6.53526 7.01111 6.51413C8.18425 6.31267 9.30209 5.94044 10.3536 5.36159C10.5626 5.24654 10.7777 5.14245 10.9887 5.03288C11.188 4.92988 11.3804 4.81608 11.5417 4.65407C11.6326 4.56234 11.722 4.5445 11.8533 4.59396C12.1435 4.70042 12.4191 4.84533 12.6732 5.02505C12.7553 5.08297 12.8304 5.15215 12.9271 5.23167Z" fill="#A19FBB"/>
<path d="M18.6582 5.22501C18.9419 4.97083 19.2675 4.77147 19.6194 4.63645C19.662 4.62002 19.708 4.6111 19.7473 4.58871C19.8448 4.53299 19.9277 4.54692 20.0063 4.62706C20.2486 4.87329 20.5516 5.01839 20.8498 5.17101C21.2379 5.37074 21.6264 5.57048 22.0222 5.75284C22.7199 6.07435 23.4518 6.28692 24.199 6.44455C24.44 6.49542 24.6837 6.53408 24.9368 6.58042C24.9065 6.64898 24.8459 6.66494 24.7941 6.68999C24.5602 6.80598 24.3094 6.86796 24.0572 6.91633C23.5623 7.01025 23.0664 6.99162 22.5667 6.93919C22.0758 6.88753 21.6291 6.70361 21.1835 6.5106C20.3551 6.15366 19.5476 5.74687 18.7651 5.29232C18.7348 5.27541 18.7056 5.25632 18.6582 5.22501Z" fill="#A19FBB"/>
<path d="M15.7604 3.11283C15.1272 3.15494 14.5032 2.57468 14.4904 1.84368C14.4782 1.12395 15.0218 0.508622 15.7416 0.497822C16.506 0.486551 17.0194 1.1529 17.028 1.79218C17.0383 2.53868 16.4067 3.15572 15.7604 3.11283Z" fill="#A19FBB"/>
<path d="M14.6516 18.2452C14.5607 18.38 14.468 18.5028 14.3895 18.6345C14.1605 19.0188 14.1967 19.5447 14.5702 19.8272C14.7028 19.9304 14.846 20.0182 14.9972 20.089C15.2478 20.2014 15.5189 20.2417 15.7876 20.2885C16.0654 20.3369 16.3447 20.3853 16.6154 20.4632C16.9183 20.5507 17.1496 20.7606 17.3088 21.0357C17.3753 21.1507 17.4015 21.3005 17.4136 21.4376C17.451 21.8631 17.3682 22.2779 17.2806 22.691C17.1844 23.1487 17.0884 23.6065 16.9886 24.0636C16.9177 24.3875 16.8003 24.6897 16.5869 24.9455C16.4544 25.1039 16.3179 25.1563 16.124 25.1161C16.1719 25.0826 16.2106 25.0535 16.2517 25.0272C16.387 24.9422 16.4728 24.8182 16.5283 24.6672C16.6214 24.4122 16.6723 24.1467 16.7058 23.8783C16.7602 23.4447 16.808 23.0101 16.8544 22.5756C16.8776 22.3584 16.9059 22.14 16.9048 21.9223C16.9048 21.7474 16.8745 21.5699 16.8361 21.3987C16.8018 21.2454 16.7014 21.134 16.5581 21.0684C16.3347 20.9662 16.1008 20.9118 15.8576 20.8898C15.602 20.8657 15.3453 20.8414 15.0931 20.7946C14.6982 20.723 14.3281 20.5469 14.0187 20.2834C13.5598 19.8936 13.348 19.1877 13.5252 18.6625C13.5834 18.4903 13.6429 18.3181 13.7137 18.1516C13.7844 17.985 13.8488 17.9722 14.0146 18.0334C14.2181 18.1088 14.426 18.171 14.6516 18.2452Z" fill="#A19FBB"/>
<path d="M31.8349 19.027C31.8116 19.0943 31.7878 19.1613 31.7651 19.2289C31.4591 20.1391 31.1532 21.0494 30.8474 21.9598C30.834 21.9992 30.8162 22.038 30.8063 22.0775C30.7866 22.1587 30.7345 22.1802 30.6598 22.1806C30.5852 22.1811 30.5414 22.1543 30.5155 22.0758C30.3469 21.5627 30.1742 21.051 30.0025 20.5391C29.8438 20.0669 29.6848 19.5948 29.5253 19.1228C29.5143 19.0901 29.4969 19.0602 29.4758 19.014C29.4235 19.0735 29.4417 19.1325 29.4416 19.184C29.4401 20.1128 29.4396 21.0412 29.4401 21.9693V22.1558C29.3931 22.1664 29.3643 22.1767 29.336 22.1786C29.1795 22.1883 29.1621 22.172 29.1621 22.0092C29.1621 20.8927 29.1621 19.7764 29.1621 18.6606C29.1621 18.507 29.1673 18.5015 29.3149 18.5003C29.6086 18.4976 29.5531 18.4846 29.633 18.7222C29.9432 19.6421 30.2537 20.5619 30.5644 21.4814C30.5838 21.5387 30.6099 21.5937 30.633 21.6495L30.6668 21.6538C30.6885 21.6057 30.7144 21.5598 30.7313 21.5096C30.8644 21.1163 30.9966 20.7226 31.1279 20.3284C31.3142 19.7721 31.5005 19.2159 31.687 18.6598C31.7033 18.611 31.7259 18.5643 31.7486 18.5089H32.1521C32.1589 18.5552 32.1635 18.6019 32.1658 18.6487C32.1666 19.7757 32.1666 20.9023 32.1658 22.0285C32.1658 22.1637 32.0482 22.232 31.931 22.1653C31.9099 22.1531 31.8946 22.1183 31.8899 22.0905C31.883 22.0499 31.8875 22.0074 31.8875 21.9653C31.8875 21.0365 31.8872 20.1081 31.8866 19.1799V19.0328L31.8349 19.027Z" fill="#A19FBB"/>
<path d="M45.9106 22.176C45.8099 22.176 45.7193 22.186 45.6325 22.1716C45.5927 22.1649 45.5498 22.1165 45.5265 22.076C45.3123 21.7103 45.1016 21.3425 44.8903 20.975C44.7077 20.6566 44.5253 20.3383 44.3432 20.0201C44.1876 19.7482 44.0319 19.4764 43.8759 19.2047C43.8483 19.1547 43.8121 19.1102 43.7692 19.0734C43.7271 19.417 43.7445 19.7571 43.7411 20.0965C43.7378 20.4359 43.7411 20.7748 43.7411 21.114V22.1566C43.6933 22.1658 43.6557 22.1784 43.6178 22.1796C43.478 22.1846 43.4635 22.1701 43.4633 22.0215C43.4627 20.8999 43.4627 19.7781 43.4633 18.6561C43.4633 18.5076 43.4711 18.5093 43.6207 18.4986C43.7561 18.4888 43.836 18.534 43.9085 18.6627C44.4349 19.5948 44.9711 20.5209 45.5047 21.4489C45.5342 21.5004 45.5682 21.5491 45.6 21.599L45.6372 21.5898C45.6397 21.531 45.6442 21.4721 45.6442 21.4134C45.6442 20.516 45.6442 19.6185 45.6442 18.7211C45.6442 18.4841 45.6659 18.467 45.9115 18.5238L45.9106 22.176Z" fill="#A19FBB"/>
<path d="M25.3371 20.3311C25.319 19.9437 25.3792 19.5654 25.5509 19.2136C25.7603 18.7846 26.08 18.4825 26.552 18.4163C27.4214 18.2943 27.9985 18.7162 28.2374 19.512C28.4216 20.1253 28.4142 20.7486 28.1701 21.3481C27.9802 21.8149 27.6583 22.1464 27.1617 22.2525C26.4894 22.3967 25.9045 22.142 25.5712 21.4995C25.3836 21.1361 25.3201 20.744 25.3371 20.3311ZM28.0687 20.3438C28.0687 20.2499 28.0749 20.1559 28.0676 20.062C28.044 19.7621 27.9672 19.4794 27.8156 19.2186C27.3814 18.4725 26.3009 18.4221 25.8511 19.2387C25.7054 19.5032 25.635 19.7879 25.6088 20.0857C25.569 20.5291 25.6117 20.9644 25.8099 21.3656C26.0158 21.7818 26.3437 22.0293 26.8096 22.0343C27.3246 22.0398 27.6853 21.7656 27.9095 21.273C28.0417 20.9804 28.0762 20.6642 28.0687 20.3438Z" fill="#A19FBB"/>
<path d="M24.6712 19.5345H24.4307C24.4192 19.506 24.4091 19.4769 24.4004 19.4474C24.2944 19.0091 24.019 18.7544 23.5952 18.6843C23.1936 18.6179 22.8188 18.6861 22.5208 19.0045C22.3285 19.2099 22.2309 19.4658 22.174 19.7402C22.0825 20.1753 22.0936 20.6267 22.2065 21.0563C22.3116 21.4611 22.5193 21.7891 22.9174 21.9501C23.3406 22.1214 23.9019 22.0284 24.1882 21.6817C24.2991 21.5461 24.377 21.3851 24.4154 21.2121C24.4665 20.9942 24.4677 20.9945 24.6952 21.0218C24.7003 21.0423 24.714 21.067 24.7112 21.0897C24.6275 21.7642 24.2205 22.1946 23.5958 22.2763C23.297 22.3155 23.0108 22.292 22.7365 22.1699C22.2947 21.9717 22.051 21.5951 21.9286 21.1352C21.7915 20.6187 21.785 20.0943 21.9207 19.5748C22.0464 19.0936 22.2942 18.6944 22.7623 18.5173C23.2851 18.3194 23.8054 18.3401 24.2721 18.699C24.5145 18.8853 24.6403 19.149 24.6811 19.4567C24.6835 19.4751 24.6764 19.4959 24.6712 19.5345Z" fill="#A19FBB"/>
<path d="M42.7838 22.1701C42.7223 22.1748 42.6828 22.1803 42.6434 22.1801C42.5162 22.1801 42.5035 22.1705 42.4589 22.0424C42.3585 21.7531 42.2601 21.4632 42.1587 21.1741C42.1146 21.0481 42.1124 21.0465 41.9865 21.0463C41.5321 21.0453 41.078 21.0453 40.6242 21.0463C40.4974 21.0463 40.4956 21.0481 40.4504 21.1716C40.3532 21.4399 40.2573 21.7086 40.1626 21.9777C40.084 22.2009 40.0707 22.2092 39.8184 22.1593C39.8408 22.0901 39.8608 22.0217 39.8847 21.9547C40.2797 20.8508 40.6749 19.7472 41.0703 18.6437C41.1198 18.5052 41.1249 18.501 41.2646 18.4982C41.2897 18.4982 41.315 18.4982 41.3403 18.4982C41.4766 18.501 41.4809 18.5036 41.5272 18.6318C41.6484 18.9687 41.7696 19.3057 41.8908 19.6427C42.1752 20.4388 42.4593 21.2352 42.7431 22.0317C42.7558 22.0705 42.7658 22.11 42.7838 22.1701ZM41.9888 20.7555C41.9412 20.503 41.3737 18.9487 41.284 18.8338C41.262 18.8799 41.2399 18.9175 41.2255 18.9579C41.0277 19.5142 40.8308 20.0708 40.6348 20.6278C40.6205 20.668 40.6219 20.714 40.6165 20.7549C40.7376 20.7884 41.5969 20.8059 41.8826 20.7834C41.9153 20.7807 41.9479 20.7668 41.9888 20.7555Z" fill="#A19FBB"/>
<path d="M33.1309 18.5119C33.2002 18.5063 33.2399 18.5002 33.2798 18.5C33.6836 18.5 34.0877 18.4934 34.4915 18.5044C34.6325 18.5097 34.7718 18.5374 34.9046 18.5867C35.2063 18.6963 35.3861 18.9297 35.4287 19.2551C35.4533 19.4307 35.4529 19.609 35.4276 19.7845C35.3743 20.1224 35.1666 20.3394 34.8573 20.4535C34.6651 20.5244 34.4656 20.5509 34.2625 20.5518C34.0454 20.5518 33.8284 20.5518 33.6112 20.5535C33.5519 20.5535 33.4927 20.562 33.4129 20.5681C33.4115 20.7534 33.4097 20.9281 33.409 21.1036C33.409 21.2758 33.409 21.448 33.409 21.6201V22.148C33.3755 22.1611 33.3576 22.173 33.339 22.1749C33.146 22.1954 33.131 22.181 33.131 21.982V18.5117L33.1309 18.5119ZM33.4199 18.7523V20.2735C33.4617 20.2807 33.504 20.2856 33.5463 20.2882C33.814 20.2882 34.0815 20.292 34.3491 20.2846C34.4548 20.2804 34.5598 20.2643 34.6621 20.2364C34.9568 20.1597 35.1374 19.9703 35.1649 19.6496C35.1744 19.536 35.1722 19.4217 35.1584 19.3086C35.1263 19.0425 34.9738 18.8704 34.7283 18.8009C34.5921 18.7633 34.4523 18.7419 34.3114 18.7371C34.0747 18.7271 33.8372 18.7339 33.5995 18.7357C33.5453 18.7356 33.4909 18.7453 33.42 18.7523H33.4199Z" fill="#A19FBB"/>
<path d="M15.3315 8.44506C15.3315 8.18976 15.3217 7.93399 15.3355 7.67947C15.3432 7.5364 15.3852 7.39427 15.4206 7.25402C15.4903 6.97821 15.4563 7.00952 15.729 7.00795C16.0259 7.00623 16.0234 7.00795 16.1092 7.30176C16.1602 7.4763 16.184 7.65812 16.1796 7.84038C16.1717 8.2206 16.1751 8.60113 16.1695 8.98134C16.1663 9.19469 16.1557 9.40804 16.1455 9.62124C16.1404 9.73081 16.1254 9.7474 16.0183 9.75007C15.8517 9.75398 15.6851 9.75335 15.5184 9.75132C15.3821 9.74975 15.3727 9.73942 15.3689 9.60011C15.358 9.21525 15.3479 8.83029 15.3387 8.44522L15.3315 8.44506Z" fill="#A19FBB"/>
<path d="M15.3421 25.1C15.2331 25.1443 15.1452 25.1235 15.0628 25.0662C14.938 24.9798 14.8546 24.8558 14.7772 24.7264C14.6345 24.4875 14.5628 24.2216 14.5054 23.9513C14.393 23.4223 14.2819 22.8929 14.1752 22.3626C14.1157 22.0652 14.0843 21.7651 14.0995 21.4613C14.1036 21.336 14.1316 21.2127 14.1819 21.0985C14.2322 20.9843 14.3037 20.8815 14.3924 20.7959L14.9183 21.0705C14.8788 21.1082 14.8418 21.1393 14.8094 21.1749C14.6931 21.3027 14.6428 21.463 14.6343 21.6311C14.6223 21.8496 14.6238 22.0687 14.6389 22.287C14.6669 22.6553 14.7082 23.0227 14.7511 23.3896C14.7958 23.772 14.8337 24.1557 14.9426 24.527C15.0057 24.7424 15.0907 24.9382 15.2982 25.0471C15.3138 25.0542 15.3223 25.0748 15.3421 25.1Z" fill="#A19FBB"/>
<path d="M15.9187 21.1648C15.9255 21.2248 15.9326 21.2555 15.932 21.2861C15.9246 21.703 15.9151 22.12 15.9084 22.537C15.9032 22.8657 15.9025 23.1944 15.8978 23.5231C15.8884 24.1747 15.8783 24.8264 15.8675 25.478C15.8663 25.5659 15.8826 25.6531 15.9152 25.7343C16.0212 26.0088 16.0196 26.2821 15.8773 26.5483C15.8601 26.5854 15.8461 26.624 15.8354 26.6636C15.8165 26.729 15.7906 26.792 15.7583 26.8515C15.7044 26.644 15.5738 26.4728 15.5514 26.2566C15.5311 26.06 15.5449 25.8741 15.6218 25.6914C15.6447 25.6368 15.6488 25.5702 15.648 25.5094C15.6397 24.8576 15.628 24.2059 15.6188 23.5541C15.6133 23.1784 15.6123 22.8028 15.6064 22.4271C15.6006 22.0622 15.5897 21.6975 15.5838 21.3326C15.5812 21.1702 15.5864 21.168 15.7453 21.1669C15.7989 21.1644 15.853 21.1648 15.9187 21.1648Z" fill="#A19FBB"/>
<path d="M49.0011 18.7226C48.644 18.7554 48.2913 18.711 47.9216 18.7515V18.947C47.9216 19.8862 47.9216 20.8254 47.9216 21.7646C47.9216 21.848 47.9216 21.9315 47.9216 22.015C47.9201 22.1658 47.835 22.2267 47.6982 22.1703C47.6856 22.1636 47.6745 22.1542 47.6657 22.1427C47.6569 22.1312 47.6506 22.1179 47.6471 22.1036C47.6385 22.0584 47.6431 22.0097 47.6431 21.9628V18.7609C47.4567 18.7118 47.2795 18.7404 47.1059 18.7354C46.9324 18.7304 46.7545 18.7345 46.5664 18.7345V18.484H49.0011V18.7226Z" fill="#A19FBB"/>
<path d="M36.2912 18.509H36.5466C36.5735 18.674 36.5567 18.8345 36.5596 18.9933C36.5626 19.155 36.5603 19.3166 36.5603 19.4786V21.9048C36.7666 21.9288 36.9617 21.9142 37.1558 21.9167C37.3575 21.9192 37.5593 21.9167 37.7617 21.9167H38.364V22.1672C38.3083 22.1719 38.2547 22.1802 38.2012 22.1802C37.621 22.1808 37.0408 22.1808 36.4607 22.1802C36.4304 22.1802 36.4001 22.1794 36.3698 22.1783C36.3162 22.1762 36.2853 22.1492 36.2836 22.0919C36.2827 22.0606 36.2836 22.0293 36.2836 21.998C36.2836 20.8874 36.2836 19.7768 36.2836 18.666C36.2827 18.6199 36.2875 18.5742 36.2912 18.509Z" fill="#A19FBB"/>
<path d="M15.436 13.625C15.4484 12.9345 15.3872 12.2721 15.4124 11.5963H16.1026C16.1378 12.2663 16.0628 12.9328 16.0844 13.6174C15.8666 13.6412 15.6643 13.6329 15.436 13.625Z" fill="#A19FBB"/>
<path d="M15.5277 3.70675C15.4464 3.70675 15.3823 3.70878 15.3185 3.70675C15.196 3.70205 15.1383 3.64414 15.1367 3.52705C15.1352 3.41325 15.1943 3.34939 15.3173 3.34829C15.6145 3.34558 15.9117 3.34605 16.209 3.3497C16.3271 3.35111 16.3799 3.40762 16.3839 3.5175C16.3882 3.63584 16.3346 3.69407 16.2105 3.70409C16.1417 3.70972 16.073 3.71411 16.0029 3.71974C16.0029 3.90523 15.9974 4.07554 16.0042 4.24537C16.0135 4.46843 16.0325 4.69133 16.0471 4.91423C16.0512 4.97794 16.0236 5.01285 15.9597 5.01285C15.8385 5.01285 15.7173 5.01519 15.5971 5.01285C15.4768 5.0105 15.4644 4.98937 15.473 4.86023C15.4932 4.5647 15.5112 4.26896 15.5271 3.97301C15.5315 3.89459 15.5277 3.81632 15.5277 3.70675Z" fill="#A19FBB"/>
<path d="M39.2353 22.16C39.2189 22.1668 39.2018 22.1721 39.1844 22.1756C38.9903 22.1941 38.9771 22.1819 38.9771 21.9817C38.9771 20.881 38.9771 19.78 38.9771 18.6789C38.9771 18.6581 38.9783 18.6371 38.9771 18.6163C38.9721 18.5391 39.0027 18.4975 39.0811 18.4993C39.1307 18.5004 39.1804 18.4993 39.2253 18.4993C39.262 18.6213 39.2693 21.9864 39.2353 22.16Z" fill="#A19FBB"/>
<path d="M15.4956 16.9423C15.4956 16.7838 15.4979 16.6544 15.4956 16.5251C15.4877 16.1555 15.4778 15.786 15.4691 15.4164C15.4682 15.3748 15.4623 15.3306 15.4738 15.2923C15.4821 15.2639 15.514 15.2234 15.5368 15.2223C15.6828 15.2157 15.829 15.2171 15.9752 15.2188C16.0339 15.2188 16.0495 15.2628 16.0492 15.3154C16.0492 15.4563 16.0502 15.5972 16.0471 15.7381C16.04 16.0713 16.0306 16.4046 16.0223 16.7377C16.0212 16.7793 16.0223 16.8211 16.0197 16.8629C16.0171 16.9109 15.9938 16.9423 15.944 16.9426C15.8043 16.9429 15.6644 16.9423 15.4956 16.9423Z" fill="#A19FBB"/>
<path d="M15.5606 20.0016C15.5474 19.4152 15.5347 18.8433 15.5215 18.2499C15.6677 18.2499 15.7917 18.2469 15.9153 18.2499C15.9621 18.2499 15.988 18.2812 15.9891 18.3314C15.9891 18.3576 15.9903 18.3837 15.9898 18.4097C15.9797 18.9154 15.9696 19.4211 15.9595 19.9269C15.9575 19.9507 15.9539 19.9743 15.9488 19.9975C15.827 20.0337 15.7051 20.0255 15.5606 20.0016Z" fill="#A19FBB"/>
</g>
<defs>
<clipPath id="clip0_902_997">
<rect width="48.1765" height="26.3519" fill="white" transform="translate(0.824219 0.497803)"/>
</clipPath>
</defs>
</svg>
