<svg width="76" height="29" viewBox="0 0 76 29" fill="none" xmlns="http://www.w3.org/2000/svg">
<path d="M75.6952 16.0606L68.4962 8.36014L62.5634 1.94307C61.5786 0.873555 60.195 0.255615 58.7646 0.255615H44.8356C42.5141 0.255615 40.9898 0.873555 40.3567 2.10943C39.4891 3.77312 40.685 5.67447 40.8257 5.88838L40.8726 5.98344L49.4317 14.6584C49.7365 14.9673 49.7834 15.1812 49.76 15.2525C49.7365 15.3238 49.4786 15.514 48.9158 15.514H34.3771C33.5329 15.514 32.29 14.801 31.0238 13.6126L27.3187 10.1189H32.2901C32.5245 10.1189 34.4943 10.0951 35.8778 8.74041C36.7689 7.86103 37.2145 6.67268 37.2145 5.19913C37.2145 1.42019 34.0722 0.326916 32.4073 0.279382H20.2604C19.1817 0.279382 18.1734 0.707187 17.423 1.46773C16.6726 2.22827 16.2505 3.27401 16.2505 4.34353L16.2974 13.8978C16.2974 14.896 15.4767 15.7279 14.4918 15.7279H9.12188C7.05832 15.7279 5.08856 14.8485 3.70503 13.3037C3.61123 13.2086 3.54088 13.1135 3.44709 13.0185C2.556 12.0202 2.06356 10.7368 2.06356 9.40588V1.7054C2.06356 1.13499 1.59457 0.659653 1.03178 0.659653C0.468991 0.659653 0 1.13499 0 1.7054V9.40588C0 11.2597 0.680037 13.0422 1.89941 14.4207C1.99321 14.5158 2.08701 14.6108 2.15736 14.7297C3.93953 16.7023 6.47208 17.8194 9.09843 17.8194H14.4684C16.6023 17.8194 18.361 16.0606 18.361 13.8741L18.3141 4.29599C18.3141 3.77312 18.5017 3.27401 18.8769 2.89374C19.2521 2.51347 19.7211 2.32334 20.237 2.32334H32.3369C32.4307 2.32334 33.1577 2.39464 33.8377 2.75114C34.7054 3.22648 35.1274 4.01079 35.1274 5.12783C35.1274 6.03098 34.8929 6.67268 34.424 7.14802C33.6267 7.9561 32.3135 7.9561 32.3135 7.9561H22.0426L29.6168 15.1099C30.8127 16.227 32.5949 17.5817 34.3771 17.5817H48.9158C50.2524 17.5817 51.2842 17.0113 51.6828 16.0369C52.058 15.1099 51.7766 14.0404 50.909 13.1611L42.4906 4.62873C42.303 4.29599 41.9513 3.51168 42.1858 3.08388C42.2796 2.91751 42.7251 2.3471 44.8356 2.3471H58.7646C59.6322 2.3471 60.453 2.70361 61.0392 3.36908L65.3539 8.0274H60.922H60.8985C60.8751 8.0274 60.8516 8.0274 60.8282 8.0274C60.8047 8.0274 60.8047 8.0274 60.7813 8.0274C60.7578 8.0274 60.7344 8.0274 60.7344 8.0274C60.7109 8.0274 60.6875 8.0274 60.6875 8.05117C60.664 8.05117 60.664 8.05117 60.6406 8.05117C60.6171 8.05117 60.5937 8.07493 60.5937 8.07493C60.5702 8.07493 60.5702 8.07493 60.5468 8.0987C60.5233 8.0987 60.5233 8.12247 60.4999 8.12247C60.4764 8.12247 60.4764 8.14623 60.453 8.14623C60.4295 8.14623 60.4295 8.17 60.4061 8.17C60.3826 8.17 60.3826 8.19377 60.3592 8.19377C60.3357 8.19377 60.3357 8.21753 60.3123 8.21753C60.2888 8.21753 60.2888 8.2413 60.2654 8.2413L60.2419 8.26507C60.2185 8.28883 60.2185 8.28884 60.195 8.3126L60.1716 8.33637C60.1481 8.36014 60.1481 8.36014 60.1247 8.3839C60.1247 8.40767 60.1012 8.40767 60.1012 8.43144C60.1012 8.4552 60.0778 8.4552 60.0778 8.47897C60.0543 8.50274 60.0543 8.5265 60.0309 8.55027C60.0309 8.55027 60.0309 8.57404 60.0074 8.57404L55.7865 16.1795C55.5051 16.6786 55.6927 17.3203 56.1852 17.6055C56.3493 17.7005 56.5134 17.7481 56.701 17.7481C57.0528 17.7481 57.428 17.5579 57.6156 17.2014L61.5082 10.1189H67.3002L74.1944 17.4866C74.4055 17.7005 74.6634 17.8194 74.9448 17.8194C75.2028 17.8194 75.4607 17.7243 75.6483 17.5342C76.0704 17.1539 76.0938 16.4884 75.6952 16.0606Z" fill="white" fill-opacity="0.6"/>
<path d="M3.56428 24.4264C3.56428 25.5673 2.767 26.4942 1.64142 26.4942H0.09375V22.335H1.64142C2.767 22.3587 3.56428 23.2856 3.56428 24.4264ZM3.25944 24.4264C3.25944 23.452 2.60285 22.6439 1.64142 22.6439H0.422044V26.209H1.64142C2.60285 26.209 3.25944 25.4247 3.25944 24.4264Z" fill="white" fill-opacity="0.6"/>
<path d="M14.0236 22.3586V26.5179H13.6953V22.3586H14.0236Z" fill="white" fill-opacity="0.6"/>
<path d="M28.256 24.7355C28.256 25.7337 27.5056 26.5655 26.2863 26.5655C25.02 26.5655 24.1289 25.6148 24.1289 24.4265C24.1289 23.2382 25.02 22.2875 26.2628 22.2875C27.0132 22.2875 27.6932 22.6915 28.0215 23.2857L27.7401 23.4521C27.4822 22.9292 26.896 22.5964 26.2628 22.5964C25.1841 22.5964 24.4338 23.4045 24.4338 24.4265C24.4338 25.4485 25.1841 26.2566 26.2863 26.2566C27.2711 26.2566 27.8808 25.6386 27.9512 24.8543H26.2159V24.5691H28.2795V24.7355H28.256Z" fill="white" fill-opacity="0.6"/>
<path d="M38.6681 22.3586V26.5179H38.3633V22.3586H38.6681Z" fill="white" fill-opacity="0.6"/>
<path d="M51.4722 22.6438H50.1825V26.5178H49.8776V22.6675H48.5879V22.3823H51.4722V22.6438Z" fill="white" fill-opacity="0.6"/>
<path d="M63.3139 25.4484H61.2504L60.8517 26.4942H60.5234L62.118 22.335H62.4463L64.0409 26.4942H63.7126L63.3139 25.4484ZM63.2201 25.1632L62.3056 22.739L61.3911 25.1632H63.2201Z" fill="white" fill-opacity="0.6"/>
<path d="M75.9523 26.209V26.4942H73.7246V22.335H74.0295V26.1852H75.9523V26.209Z" fill="white" fill-opacity="0.6"/>
<path d="M76 20.006H0.09375V20.3372H76V20.006Z" fill="white" fill-opacity="0.6"/>
<path d="M76 28.5856H0.09375V28.9168H76V28.5856Z" fill="white" fill-opacity="0.6"/>
</svg>
