<svg width="73" height="47" viewBox="0 0 73 47" fill="none" xmlns="http://www.w3.org/2000/svg">
<path d="M5.616 40.9L5.23042 41.2183L5.23226 41.2205L5.616 40.9ZM5.616 6.288L5.99975 6.60854L6.00158 6.60632L5.616 6.288ZM34.652 6.288L34.2642 6.60366L34.2683 6.60853L34.652 6.288ZM34.652 40.9L34.2664 40.5817L34.266 40.5821L34.652 40.9ZM23.5 34.916L23.8433 35.2795L23.5 34.916ZM25.268 31.04L25.7583 31.1381L25.7587 31.1358L25.268 31.04ZM25.268 16.148L24.7773 16.2438L24.7777 16.2461L25.268 16.148ZM23.5 12.204L23.8433 11.8405L23.5 12.204ZM16.768 12.204L16.4345 11.8312L16.4247 11.8405L16.768 12.204ZM15 16.148L15.4903 16.2461L15.4907 16.2438L15 16.148ZM15 31.04L14.5092 31.1358L14.5097 31.1381L15 31.04ZM16.768 34.916L16.4246 35.2796L16.4346 35.2886L16.768 34.916ZM20.168 46.18C13.7871 46.18 9.09719 44.2877 5.99974 40.5795L5.23226 41.2205C8.57214 45.219 13.5836 47.18 20.168 47.18V46.18ZM6.00158 40.5817C2.88662 36.8086 1.288 31.1625 1.288 23.56H0.288C0.288 31.2802 1.90805 37.194 5.23042 41.2183L6.00158 40.5817ZM1.288 23.56C1.288 15.9569 2.88686 10.3352 5.99974 6.60853L5.23226 5.96746C1.9078 9.94744 0.288 15.8405 0.288 23.56H1.288ZM6.00158 6.60632C9.09965 2.85373 13.789 0.939999 20.168 0.939999V-0.0600014C13.5817 -0.0600014 8.56968 1.92494 5.23042 5.96967L6.00158 6.60632ZM20.168 0.939999C26.5474 0.939999 31.212 2.85381 34.2642 6.60363L35.0398 5.97236C31.7453 1.92485 26.754 -0.0600014 20.168 -0.0600014V0.939999ZM34.2683 6.60853C37.3811 10.3352 38.98 15.9569 38.98 23.56H39.98C39.98 15.8405 38.3602 9.94744 35.0357 5.96746L34.2683 6.60853ZM38.98 23.56C38.98 31.1625 37.3814 36.8086 34.2664 40.5817L35.0376 41.2183C38.36 37.194 39.98 31.2802 39.98 23.56H38.98ZM34.266 40.5821C31.2145 44.2876 26.5493 46.18 20.168 46.18V47.18C26.752 47.18 31.7428 45.2191 35.038 41.2179L34.266 40.5821ZM20.168 36.572C21.6673 36.572 22.9126 36.1585 23.8433 35.2795L23.1567 34.5525C22.4554 35.2148 21.4793 35.572 20.168 35.572V36.572ZM23.8433 35.2795C24.7693 34.405 25.3873 32.9932 25.7583 31.1381L24.7777 30.9419C24.4234 32.7135 23.8627 33.8857 23.1567 34.5525L23.8433 35.2795ZM25.7587 31.1358C26.1302 29.2318 26.312 26.7023 26.312 23.56H25.312C25.312 26.6737 25.1311 29.1308 24.7773 30.9442L25.7587 31.1358ZM26.312 23.56C26.312 20.4183 26.1303 17.9101 25.7583 16.0499L24.7777 16.2461C25.131 18.0125 25.312 20.4457 25.312 23.56H26.312ZM25.7587 16.0522C25.3885 14.1545 24.7715 12.7171 23.8433 11.8405L23.1567 12.5675C23.8605 13.2322 24.4222 14.4241 24.7773 16.2438L25.7587 16.0522ZM23.8433 11.8405C22.9126 10.9615 21.6673 10.548 20.168 10.548V11.548C21.4793 11.548 22.4554 11.9052 23.1567 12.5675L23.8433 11.8405ZM20.168 10.548C18.6675 10.548 17.4064 10.9618 16.4346 11.8314L17.1014 12.5766C17.8522 11.9048 18.8578 11.548 20.168 11.548V10.548ZM16.4247 11.8405C15.4965 12.7171 14.8795 14.1545 14.5093 16.0522L15.4907 16.2438C15.8458 14.4241 16.4075 13.2322 17.1113 12.5675L16.4247 11.8405ZM14.5097 16.0499C14.1377 17.9101 13.956 20.4183 13.956 23.56H14.956C14.956 20.4457 15.137 18.0125 15.4903 16.2461L14.5097 16.0499ZM13.956 23.56C13.956 26.7023 14.1378 29.2318 14.5093 31.1358L15.4907 30.9442C15.1369 29.1308 14.956 26.6737 14.956 23.56H13.956ZM14.5097 31.1381C14.8807 32.9932 15.4987 34.405 16.4247 35.2795L17.1113 34.5525C16.4053 33.8857 15.8446 32.7135 15.4903 30.9419L14.5097 31.1381ZM16.4346 35.2886C17.4064 36.1582 18.6675 36.572 20.168 36.572V35.572C18.8578 35.572 17.8522 35.2152 17.1014 34.5434L16.4346 35.2886ZM58.953 46H58.453V46.5H58.953V46ZM59.021 14.448L59.5207 14.4641L59.5579 13.3105L58.6909 14.0724L59.021 14.448ZM54.125 17.848L53.8879 17.4077L53.8831 17.4104L54.125 17.848ZM48.685 19.752L48.1867 19.794L48.2323 20.3343L48.7672 20.2452L48.685 19.752ZM47.733 8.464L47.6973 7.96527L47.1922 8.00135L47.2347 8.50602L47.733 8.464ZM51.677 7.58L51.5098 7.10876L51.5048 7.11056L51.677 7.58ZM55.689 5.812L55.9252 6.2529L55.937 6.24612L55.689 5.812ZM59.089 3.568L59.3947 3.96365L59.3971 3.96175L59.089 3.568ZM61.401 1.12V0.619998H61.1206L60.9743 0.859273L61.401 1.12ZM72.349 1.12H72.849V0.619998H72.349V1.12ZM72.349 46V46.5H72.849V46H72.349ZM59.453 46V22.744H58.453V46H59.453ZM59.453 22.744C59.453 22.7413 59.453 22.7387 59.453 22.736C59.453 22.7334 59.453 22.7307 59.453 22.7281C59.453 22.7254 59.453 22.7227 59.453 22.7201C59.453 22.7174 59.453 22.7148 59.453 22.7121C59.453 22.7095 59.453 22.7068 59.453 22.7042C59.453 22.7015 59.453 22.6988 59.453 22.6962C59.453 22.6935 59.453 22.6909 59.453 22.6882C59.453 22.6856 59.453 22.6829 59.453 22.6802C59.453 22.6776 59.453 22.6749 59.453 22.6723C59.453 22.6696 59.453 22.667 59.453 22.6643C59.453 22.6617 59.453 22.659 59.453 22.6563C59.453 22.6537 59.453 22.651 59.453 22.6484C59.453 22.6457 59.453 22.6431 59.453 22.6404C59.453 22.6377 59.453 22.6351 59.453 22.6324C59.453 22.6298 59.453 22.6271 59.453 22.6245C59.453 22.6218 59.453 22.6192 59.453 22.6165C59.453 22.6138 59.453 22.6112 59.453 22.6085C59.453 22.6059 59.453 22.6032 59.453 22.6006C59.453 22.5979 59.453 22.5952 59.453 22.5926C59.453 22.5899 59.453 22.5873 59.453 22.5846C59.453 22.582 59.453 22.5793 59.453 22.5767C59.453 22.574 59.453 22.5713 59.453 22.5687C59.453 22.566 59.453 22.5634 59.453 22.5607C59.453 22.5581 59.453 22.5554 59.453 22.5527C59.453 22.5501 59.453 22.5474 59.453 22.5448C59.453 22.5421 59.453 22.5395 59.453 22.5368C59.453 22.5342 59.453 22.5315 59.453 22.5288C59.453 22.5262 59.453 22.5235 59.453 22.5209C59.453 22.5182 59.453 22.5156 59.453 22.5129C59.453 22.5103 59.453 22.5076 59.453 22.5049C59.453 22.5023 59.453 22.4996 59.453 22.497C59.453 22.4943 59.453 22.4917 59.453 22.489C59.453 22.4863 59.453 22.4837 59.453 22.481C59.453 22.4784 59.453 22.4757 59.453 22.4731C59.453 22.4704 59.453 22.4678 59.453 22.4651C59.453 22.4624 59.453 22.4598 59.453 22.4571C59.453 22.4545 59.453 22.4518 59.453 22.4492C59.453 22.4465 59.453 22.4438 59.453 22.4412C59.453 22.4385 59.453 22.4359 59.453 22.4332C59.453 22.4306 59.453 22.4279 59.453 22.4253C59.453 22.4226 59.453 22.4199 59.453 22.4173C59.453 22.4146 59.453 22.412 59.453 22.4093C59.453 22.4067 59.453 22.404 59.453 22.4013C59.453 22.3987 59.453 22.396 59.453 22.3934C59.453 22.3907 59.453 22.3881 59.453 22.3854C59.453 22.3827 59.453 22.3801 59.453 22.3774C59.453 22.3748 59.453 22.3721 59.453 22.3695C59.453 22.3668 59.453 22.3642 59.453 22.3615C59.453 22.3588 59.453 22.3562 59.453 22.3535C59.453 22.3509 59.453 22.3482 59.453 22.3456C59.453 22.3429 59.453 22.3402 59.453 22.3376C59.453 22.3349 59.453 22.3323 59.453 22.3296C59.453 22.327 59.453 22.3243 59.453 22.3217C59.453 22.319 59.453 22.3163 59.453 22.3137C59.453 22.311 59.453 22.3084 59.453 22.3057C59.453 22.3031 59.453 22.3004 59.453 22.2977C59.453 22.2951 59.453 22.2924 59.453 22.2898C59.453 22.2871 59.453 22.2845 59.453 22.2818C59.453 22.2792 59.453 22.2765 59.453 22.2738C59.453 22.2712 59.453 22.2685 59.453 22.2659C59.453 22.2632 59.453 22.2606 59.453 22.2579C59.453 22.2552 59.453 22.2526 59.453 22.2499C59.453 22.2473 59.453 22.2446 59.453 22.242C59.453 22.2393 59.453 22.2367 59.453 22.234C59.453 22.2313 59.453 22.2287 59.453 22.226C59.453 22.2234 59.453 22.2207 59.453 22.2181C59.453 22.2154 59.453 22.2127 59.453 22.2101C59.453 22.2074 59.453 22.2048 59.453 22.2021C59.453 22.1995 59.453 22.1968 59.453 22.1942C59.453 22.1915 59.453 22.1888 59.453 22.1862C59.453 22.1835 59.453 22.1809 59.453 22.1782C59.453 22.1756 59.453 22.1729 59.453 22.1702C59.453 22.1676 59.453 22.1649 59.453 22.1623C59.453 22.1596 59.453 22.157 59.453 22.1543C59.453 22.1517 59.453 22.149 59.453 22.1463C59.453 22.1437 59.453 22.141 59.453 22.1384C59.453 22.1357 59.453 22.1331 59.453 22.1304C59.453 22.1278 59.453 22.1251 59.453 22.1224C59.453 22.1198 59.453 22.1171 59.453 22.1145C59.453 22.1118 59.453 22.1092 59.453 22.1065C59.453 22.1038 59.453 22.1012 59.453 22.0985C59.453 22.0959 59.453 22.0932 59.453 22.0906C59.453 22.0879 59.453 22.0853 59.453 22.0826C59.453 22.0799 59.453 22.0773 59.453 22.0746C59.453 22.072 59.453 22.0693 59.453 22.0667C59.453 22.064 59.453 22.0613 59.453 22.0587C59.453 22.056 59.453 22.0534 59.453 22.0507C59.453 22.0481 59.453 22.0454 59.453 22.0428C59.453 22.0401 59.453 22.0374 59.453 22.0348C59.453 22.0321 59.453 22.0295 59.453 22.0268C59.453 22.0242 59.453 22.0215 59.453 22.0188C59.453 22.0162 59.453 22.0135 59.453 22.0109C59.453 22.0082 59.453 22.0056 59.453 22.0029C59.453 22.0002 59.453 21.9976 59.453 21.9949C59.453 21.9923 59.453 21.9896 59.453 21.987C59.453 21.9843 59.453 21.9817 59.453 21.979C59.453 21.9763 59.453 21.9737 59.453 21.971C59.453 21.9684 59.453 21.9657 59.453 21.9631C59.453 21.9604 59.453 21.9577 59.453 21.9551C59.453 21.9524 59.453 21.9498 59.453 21.9471C59.453 21.9445 59.453 21.9418 59.453 21.9392C59.453 21.9365 59.453 21.9338 59.453 21.9312C59.453 21.9285 59.453 21.9259 59.453 21.9232C59.453 21.9206 59.453 21.9179 59.453 21.9152C59.453 21.9126 59.453 21.9099 59.453 21.9073C59.453 21.9046 59.453 21.902 59.453 21.8993C59.453 21.8967 59.453 21.894 59.453 21.8913C59.453 21.8887 59.453 21.886 59.453 21.8834C59.453 21.8807 59.453 21.8781 59.453 21.8754C59.453 21.8727 59.453 21.8701 59.453 21.8674C59.453 21.8648 59.453 21.8621 59.453 21.8595C59.453 21.8568 59.453 21.8542 59.453 21.8515C59.453 21.8488 59.453 21.8462 59.453 21.8435C59.453 21.8409 59.453 21.8382 59.453 21.8356C59.453 21.8329 59.453 21.8302 59.453 21.8276C59.453 21.8249 59.453 21.8223 59.453 21.8196C59.453 21.817 59.453 21.8143 59.453 21.8117C59.453 21.809 59.453 21.8063 59.453 21.8037C59.453 21.801 59.453 21.7984 59.453 21.7957C59.453 21.7931 59.453 21.7904 59.453 21.7878C59.453 21.7851 59.453 21.7824 59.453 21.7798C59.453 21.7771 59.453 21.7745 59.453 21.7718C59.453 21.7692 59.453 21.7665 59.453 21.7638C59.453 21.7612 59.453 21.7585 59.453 21.7559C59.453 21.7532 59.453 21.7506 59.453 21.7479C59.453 21.7453 59.453 21.7426 59.453 21.7399C59.453 21.7373 59.453 21.7346 59.453 21.732C59.453 21.7293 59.453 21.7267 59.453 21.724C59.453 21.7213 59.453 21.7187 59.453 21.716C59.453 21.7134 59.453 21.7107 59.453 21.7081C59.453 21.7054 59.453 21.7028 59.453 21.7001C59.453 21.6974 59.453 21.6948 59.453 21.6921C59.453 21.6895 59.453 21.6868 59.453 21.6842C59.453 21.6815 59.453 21.6788 59.453 21.6762C59.453 21.6735 59.453 21.6709 59.453 21.6682C59.453 21.6656 59.453 21.6629 59.453 21.6602C59.453 21.6576 59.453 21.6549 59.453 21.6523C59.453 21.6496 59.453 21.647 59.453 21.6443C59.453 21.6417 59.453 21.639 59.453 21.6363C59.453 21.6337 59.453 21.631 59.453 21.6284C59.453 21.6257 59.453 21.6231 59.453 21.6204C59.453 21.6177 59.453 21.6151 59.453 21.6124C59.453 21.6098 59.453 21.6071 59.453 21.6045C59.453 21.6018 59.453 21.5992 59.453 21.5965C59.453 21.5938 59.453 21.5912 59.453 21.5885C59.453 21.5859 59.453 21.5832 59.453 21.5806C59.453 21.5779 59.453 21.5752 59.453 21.5726C59.453 21.5699 59.453 21.5673 59.453 21.5646C59.453 21.562 59.453 21.5593 59.453 21.5567C59.453 21.554 59.453 21.5513 59.453 21.5487C59.453 21.546 59.453 21.5434 59.453 21.5407C59.453 21.5381 59.453 21.5354 59.453 21.5327C59.453 21.5301 59.453 21.5274 59.453 21.5248C59.453 21.5221 59.453 21.5195 59.453 21.5168C59.453 21.5142 59.453 21.5115 59.453 21.5088C59.453 21.5062 59.453 21.5035 59.453 21.5009C59.453 21.4982 59.453 21.4956 59.453 21.4929C59.453 21.4902 59.453 21.4876 59.453 21.4849C59.453 21.4823 59.453 21.4796 59.453 21.477C59.453 21.4743 59.453 21.4717 59.453 21.469C59.453 21.4663 59.453 21.4637 59.453 21.461C59.453 21.4584 59.453 21.4557 59.453 21.4531C59.453 21.4504 59.453 21.4478 59.453 21.4451C59.453 21.4424 59.453 21.4398 59.453 21.4371C59.453 21.4345 59.453 21.4318 59.453 21.4292C59.453 21.4265 59.453 21.4238 59.453 21.4212C59.453 21.4185 59.453 21.4159 59.453 21.4132C59.453 21.4106 59.453 21.4079 59.453 21.4053C59.453 21.4026 59.453 21.3999 59.453 21.3973C59.453 21.3946 59.453 21.392 59.453 21.3893C59.453 21.3867 59.453 21.384 59.453 21.3813C59.453 21.3787 59.453 21.376 59.453 21.3734C59.453 21.3707 59.453 21.3681 59.453 21.3654C59.453 21.3628 59.453 21.3601 59.453 21.3574C59.453 21.3548 59.453 21.3521 59.453 21.3495C59.453 21.3468 59.453 21.3442 59.453 21.3415C59.453 21.3388 59.453 21.3362 59.453 21.3335C59.453 21.3309 59.453 21.3282 59.453 21.3256C59.453 21.3229 59.453 21.3202 59.453 21.3176C59.453 21.3149 59.453 21.3123 59.453 21.3096C59.453 21.307 59.453 21.3043 59.453 21.3017C59.453 21.299 59.453 21.2963 59.453 21.2937C59.453 21.291 59.453 21.2884 59.453 21.2857C59.453 21.2831 59.453 21.2804 59.453 21.2777C59.453 21.2751 59.453 21.2724 59.453 21.2698C59.453 21.2671 59.453 21.2645 59.453 21.2618C59.453 21.2592 59.453 21.2565 59.453 21.2538C59.453 21.2512 59.453 21.2485 59.453 21.2459C59.453 21.2432 59.453 21.2406 59.453 21.2379C59.453 21.2352 59.453 21.2326 59.453 21.2299C59.453 21.2273 59.453 21.2246 59.453 21.222C59.453 21.2193 59.453 21.2167 59.453 21.214C59.453 21.2113 59.453 21.2087 59.453 21.206C59.453 21.2034 59.453 21.2007 59.453 21.1981C59.453 21.1954 59.453 21.1927 59.453 21.1901C59.453 21.1874 59.453 21.1848 59.453 21.1821C59.453 21.1795 59.453 21.1768 59.453 21.1742C59.453 21.1715 59.453 21.1688 59.453 21.1662C59.453 21.1635 59.453 21.1609 59.453 21.1582C59.453 21.1556 59.453 21.1529 59.453 21.1502C59.453 21.1476 59.453 21.1449 59.453 21.1423C59.453 21.1396 59.453 21.137 59.453 21.1343C59.453 21.1317 59.453 21.129 59.453 21.1263C59.453 21.1237 59.453 21.121 59.453 21.1184C59.453 21.1157 59.453 21.1131 59.453 21.1104C59.453 21.1077 59.453 21.1051 59.453 21.1024C59.453 21.0998 59.453 21.0971 59.453 21.0945C59.453 21.0918 59.453 21.0892 59.453 21.0865C59.453 21.0838 59.453 21.0812 59.453 21.0785C59.453 21.0759 59.453 21.0732 59.453 21.0706C59.453 21.0679 59.453 21.0653 59.453 21.0626C59.453 21.0599 59.453 21.0573 59.453 21.0546C59.453 21.052 59.453 21.0493 59.453 21.0467C59.453 21.044 59.453 21.0413 59.453 21.0387C59.453 21.036 59.453 21.0334 59.453 21.0307C59.453 21.0281 59.453 21.0254 59.453 21.0228C59.453 21.0201 59.453 21.0174 59.453 21.0148C59.453 21.0121 59.453 21.0095 59.453 21.0068C59.453 21.0042 59.453 21.0015 59.453 20.9988C59.453 20.9962 59.453 20.9935 59.453 20.9909C59.453 20.9882 59.453 20.9856 59.453 20.9829C59.453 20.9802 59.453 20.9776 59.453 20.9749C59.453 20.9723 59.453 20.9696 59.453 20.967C59.453 20.9643 59.453 20.9617 59.453 20.959C59.453 20.9563 59.453 20.9537 59.453 20.951C59.453 20.9484 59.453 20.9457 59.453 20.9431C59.453 20.9404 59.453 20.9377 59.453 20.9351C59.453 20.9324 59.453 20.9298 59.453 20.9271C59.453 20.9245 59.453 20.9218 59.453 20.9192C59.453 20.9165 59.453 20.9138 59.453 20.9112C59.453 20.9085 59.453 20.9059 59.453 20.9032C59.453 20.9006 59.453 20.8979 59.453 20.8953C59.453 20.8926 59.453 20.8899 59.453 20.8873C59.453 20.8846 59.453 20.882 59.453 20.8793C59.453 20.8767 59.453 20.874 59.453 20.8713C59.453 20.8687 59.453 20.866 59.453 20.8634C59.453 20.8607 59.453 20.8581 59.453 20.8554C59.453 20.8527 59.453 20.8501 59.453 20.8474C59.453 20.8448 59.453 20.8421 59.453 20.8395C59.453 20.8368 59.453 20.8342 59.453 20.8315C59.453 20.8288 59.453 20.8262 59.453 20.8235C59.453 20.8209 59.453 20.8182 59.453 20.8156C59.453 20.8129 59.453 20.8102 59.453 20.8076C59.453 20.8049 59.453 20.8023 59.453 20.7996C59.453 20.797 59.453 20.7943 59.453 20.7917C59.453 20.789 59.453 20.7863 59.453 20.7837C59.453 20.781 59.453 20.7784 59.453 20.7757C59.453 20.7731 59.453 20.7704 59.453 20.7677C59.453 20.7651 59.453 20.7624 59.453 20.7598C59.453 20.7571 59.453 20.7545 59.453 20.7518C59.453 20.7492 59.453 20.7465 59.453 20.7438C59.453 20.7412 59.453 20.7385 59.453 20.7359C59.453 20.7332 59.453 20.7306 59.453 20.7279C59.453 20.7253 59.453 20.7226 59.453 20.7199C59.453 20.7173 59.453 20.7146 59.453 20.712C59.453 20.7093 59.453 20.7067 59.453 20.704C59.453 20.7013 59.453 20.6987 59.453 20.696C59.453 20.6934 59.453 20.6907 59.453 20.6881C59.453 20.6854 59.453 20.6827 59.453 20.6801C59.453 20.6774 59.453 20.6748 59.453 20.6721C59.453 20.6695 59.453 20.6668 59.453 20.6642C59.453 20.6615 59.453 20.6588 59.453 20.6562C59.453 20.6535 59.453 20.6509 59.453 20.6482C59.453 20.6456 59.453 20.6429 59.453 20.6402C59.453 20.6376 59.453 20.6349 59.453 20.6323C59.453 20.6296 59.453 20.627 59.453 20.6243C59.453 20.6217 59.453 20.619 59.453 20.6163C59.453 20.6137 59.453 20.611 59.453 20.6084C59.453 20.6057 59.453 20.6031 59.453 20.6004C59.453 20.5977 59.453 20.5951 59.453 20.5924C59.453 20.5898 59.453 20.5871 59.453 20.5845C59.453 20.5818 59.453 20.5792 59.453 20.5765C59.453 20.5738 59.453 20.5712 59.453 20.5685C59.453 20.5659 59.453 20.5632 59.453 20.5606C59.453 20.5579 59.453 20.5553 59.453 20.5526C59.453 20.5499 59.453 20.5473 59.453 20.5446C59.453 20.542 59.453 20.5393 59.453 20.5367C59.453 20.534 59.453 20.5313 59.453 20.5287C59.453 20.526 59.453 20.5234 59.453 20.5207C59.453 20.5181 59.453 20.5154 59.453 20.5127C59.453 20.5101 59.453 20.5074 59.453 20.5048C59.453 20.5021 59.453 20.4995 59.453 20.4968C59.453 20.4942 59.453 20.4915 59.453 20.4888C59.453 20.4862 59.453 20.4835 59.453 20.4809C59.453 20.4782 59.453 20.4756 59.453 20.4729C59.453 20.4702 59.453 20.4676 59.453 20.4649C59.453 20.4623 59.453 20.4596 59.453 20.457C59.453 20.4543 59.453 20.4517 59.453 20.449C59.453 20.4463 59.453 20.4437 59.453 20.441C59.453 20.4384 59.453 20.4357 59.453 20.4331C59.453 20.4304 59.453 20.4277 59.453 20.4251C59.453 20.4224 59.453 20.4198 59.453 20.4171C59.453 20.4145 59.453 20.4118 59.453 20.4092C59.453 20.4065 59.453 20.4038 59.453 20.4012C59.453 20.3985 59.453 20.3959 59.453 20.3932C59.453 20.3906 59.453 20.3879 59.453 20.3853C59.453 20.3826 59.453 20.3799 59.453 20.3773C59.453 20.3746 59.453 20.372 59.453 20.3693C59.453 20.3667 59.453 20.364 59.453 20.3613C59.453 20.3587 59.453 20.356 59.453 20.3534C59.453 20.3507 59.453 20.3481 59.453 20.3454C59.453 20.3427 59.453 20.3401 59.453 20.3374C59.453 20.3348 59.453 20.3321 59.453 20.3295C59.453 20.3268 59.453 20.3242 59.453 20.3215C59.453 20.3188 59.453 20.3162 59.453 20.3135C59.453 20.3109 59.453 20.3082 59.453 20.3056C59.453 20.3029 59.453 20.3002 59.453 20.2976C59.453 20.2949 59.453 20.2923 59.453 20.2896C59.453 20.287 59.453 20.2843 59.453 20.2817C59.453 20.279 59.453 20.2763 59.453 20.2737C59.453 20.271 59.453 20.2684 59.453 20.2657C59.453 20.2631 59.453 20.2604 59.453 20.2577C59.453 20.2551 59.453 20.2524 59.453 20.2498C59.453 20.2471 59.453 20.2445 59.453 20.2418C59.453 20.2392 59.453 20.2365 59.453 20.2338C59.453 20.2312 59.453 20.2285 59.453 20.2259C59.453 20.2232 59.453 20.2206 59.453 20.2179C59.453 20.2153 59.453 20.2126 59.453 20.2099C59.453 20.2073 59.453 20.2046 59.453 20.202C59.453 20.1993 59.453 20.1967 59.453 20.194C59.453 20.1913 59.453 20.1887 59.453 20.186C59.453 20.1834 59.453 20.1807 59.453 20.1781C59.453 20.1754 59.453 20.1727 59.453 20.1701C59.453 20.1674 59.453 20.1648 59.453 20.1621C59.453 20.1595 59.453 20.1568 59.453 20.1542C59.453 20.1515 59.453 20.1488 59.453 20.1462C59.453 20.1435 59.453 20.1409 59.453 20.1382C59.453 20.1356 59.453 20.1329 59.453 20.1302C59.453 20.1276 59.453 20.1249 59.453 20.1223C59.453 20.1196 59.453 20.117 59.453 20.1143C59.453 20.1117 59.453 20.109 59.453 20.1063C59.453 20.1037 59.453 20.101 59.453 20.0984C59.453 20.0957 59.453 20.0931 59.453 20.0904C59.453 20.0877 59.453 20.0851 59.453 20.0824C59.453 20.0798 59.453 20.0771 59.453 20.0745C59.453 20.0718 59.453 20.0692 59.453 20.0665C59.453 20.0638 59.453 20.0612 59.453 20.0585C59.453 20.0559 59.453 20.0532 59.453 20.0506C59.453 20.0479 59.453 20.0452 59.453 20.0426C59.453 20.0399 59.453 20.0373 59.453 20.0346C59.453 20.032 59.453 20.0293 59.453 20.0267C59.453 20.024 59.453 20.0213 59.453 20.0187C59.453 20.016 59.453 20.0134 59.453 20.0107C59.453 20.0081 59.453 20.0054 59.453 20.0027C59.453 20.0001 59.453 19.9974 59.453 19.9948C59.453 19.9921 59.453 19.9895 59.453 19.9868C59.453 19.9842 59.453 19.9815 59.453 19.9788C59.453 19.9762 59.453 19.9735 59.453 19.9709C59.453 19.9682 59.453 19.9656 59.453 19.9629C59.453 19.9602 59.453 19.9576 59.453 19.9549C59.453 19.9523 59.453 19.9496 59.453 19.947C59.453 19.9443 59.453 19.9417 59.453 19.939C59.453 19.9363 59.453 19.9337 59.453 19.931C59.453 19.9284 59.453 19.9257 59.453 19.9231C59.453 19.9204 59.453 19.9177 59.453 19.9151C59.453 19.9124 59.453 19.9098 59.453 19.9071C59.453 19.9045 59.453 19.9018 59.453 19.8992C59.453 19.8965 59.453 19.8938 59.453 19.8912C59.453 19.8885 59.453 19.8859 59.453 19.8832C59.453 19.8806 59.453 19.8779 59.453 19.8752C59.453 19.8726 59.453 19.8699 59.453 19.8673C59.453 19.8646 59.453 19.862 59.453 19.8593C59.453 19.8567 59.453 19.854 59.453 19.8513C59.453 19.8487 59.453 19.846 59.453 19.8434C59.453 19.8407 59.453 19.8381 59.453 19.8354C59.453 19.8327 59.453 19.8301 59.453 19.8274C59.453 19.8248 59.453 19.8221 59.453 19.8195C59.453 19.8168 59.453 19.8142 59.453 19.8115C59.453 19.8088 59.453 19.8062 59.453 19.8035C59.453 19.8009 59.453 19.7982 59.453 19.7956C59.453 19.7929 59.453 19.7902 59.453 19.7876C59.453 19.7849 59.453 19.7823 59.453 19.7796C59.453 19.777 59.453 19.7743 59.453 19.7717C59.453 19.769 59.453 19.7663 59.453 19.7637C59.453 19.761 59.453 19.7584 59.453 19.7557C59.453 19.7531 59.453 19.7504 59.453 19.7477C59.453 19.7451 59.453 19.7424 59.453 19.7398C59.453 19.7371 59.453 19.7345 59.453 19.7318C59.453 19.7292 59.453 19.7265 59.453 19.7238C59.453 19.7212 59.453 19.7185 59.453 19.7159C59.453 19.7132 59.453 19.7106 59.453 19.7079C59.453 19.7052 59.453 19.7026 59.453 19.6999C59.453 19.6973 59.453 19.6946 59.453 19.692C59.453 19.6893 59.453 19.6867 59.453 19.684C59.453 19.6813 59.453 19.6787 59.453 19.676C59.453 19.6734 59.453 19.6707 59.453 19.6681C59.453 19.6654 59.453 19.6628 59.453 19.6601C59.453 19.6574 59.453 19.6548 59.453 19.6521C59.453 19.6495 59.453 19.6468 59.453 19.6442C59.453 19.6415 59.453 19.6388 59.453 19.6362C59.453 19.6335 59.453 19.6309 59.453 19.6282C59.453 19.6256 59.453 19.6229 59.453 19.6202C59.453 19.6176 59.453 19.6149 59.453 19.6123C59.453 19.6096 59.453 19.607 59.453 19.6043C59.453 19.6017 59.453 19.599 59.453 19.5963C59.453 19.5937 59.453 19.591 59.453 19.5884C59.453 19.5857 59.453 19.5831 59.453 19.5804C59.453 19.5777 59.453 19.5751 59.453 19.5724C59.453 19.5698 59.453 19.5671 59.453 19.5645C59.453 19.5618 59.453 19.5592 59.453 19.5565C59.453 19.5538 59.453 19.5512 59.453 19.5485C59.453 19.5459 59.453 19.5432 59.453 19.5406C59.453 19.5379 59.453 19.5352 59.453 19.5326C59.453 19.5299 59.453 19.5273 59.453 19.5246C59.453 19.522 59.453 19.5193 59.453 19.5167C59.453 19.514 59.453 19.5113 59.453 19.5087C59.453 19.506 59.453 19.5034 59.453 19.5007C59.453 19.4981 59.453 19.4954 59.453 19.4928C59.453 19.4901 59.453 19.4874 59.453 19.4848C59.453 19.4821 59.453 19.4795 59.453 19.4768C59.453 19.4742 59.453 19.4715 59.453 19.4688C59.453 19.4662 59.453 19.4635 59.453 19.4609C59.453 19.4582 59.453 19.4556 59.453 19.4529C59.453 19.4502 59.453 19.4476 59.453 19.4449C59.453 19.4423 59.453 19.4396 59.453 19.437C59.453 19.4343 59.453 19.4317 59.453 19.429C59.453 19.4263 59.453 19.4237 59.453 19.421C59.453 19.4184 59.453 19.4157 59.453 19.4131C59.453 19.4104 59.453 19.4077 59.453 19.4051C59.453 19.4024 59.453 19.3998 59.453 19.3971C59.453 19.3945 59.453 19.3918 59.453 19.3892C59.453 19.3865 59.453 19.3838 59.453 19.3812C59.453 19.3785 59.453 19.3759 59.453 19.3732C59.453 19.3706 59.453 19.3679 59.453 19.3652C59.453 19.3626 59.453 19.3599 59.453 19.3573C59.453 19.3546 59.453 19.352 59.453 19.3493C59.453 19.3467 59.453 19.344 59.453 19.3413C59.453 19.3387 59.453 19.336 59.453 19.3334C59.453 19.3307 59.453 19.3281 59.453 19.3254C59.453 19.3228 59.453 19.3201 59.453 19.3174C59.453 19.3148 59.453 19.3121 59.453 19.3095C59.453 19.3068 59.453 19.3042 59.453 19.3015C59.453 19.2988 59.453 19.2962 59.453 19.2935C59.453 19.2909 59.453 19.2882 59.453 19.2856C59.453 19.2829 59.453 19.2802 59.453 19.2776C59.453 19.2749 59.453 19.2723 59.453 19.2696C59.453 19.267 59.453 19.2643 59.453 19.2617C59.453 19.259 59.453 19.2563 59.453 19.2537C59.453 19.251 59.453 19.2484 59.453 19.2457C59.453 19.2431 59.453 19.2404 59.453 19.2377C59.453 19.2351 59.453 19.2324 59.453 19.2298C59.453 19.2271 59.453 19.2245 59.453 19.2218C59.453 19.2192 59.453 19.2165 59.453 19.2138C59.453 19.2112 59.453 19.2085 59.453 19.2059C59.453 19.2032 59.453 19.2006 59.453 19.1979C59.453 19.1952 59.453 19.1926 59.453 19.1899C59.453 19.1873 59.453 19.1846 59.453 19.182C59.453 19.1793 59.453 19.1767 59.453 19.174C59.453 19.1713 59.453 19.1687 59.453 19.166C59.453 19.1634 59.453 19.1607 59.453 19.1581C59.453 19.1554 59.453 19.1528 59.453 19.1501C59.453 19.1474 59.453 19.1448 59.453 19.1421C59.453 19.1395 59.453 19.1368 59.453 19.1342C59.453 19.1315 59.453 19.1288 59.453 19.1262C59.453 19.1235 59.453 19.1209 59.453 19.1182C59.453 19.1156 59.453 19.1129 59.453 19.1102C59.453 19.1076 59.453 19.1049 59.453 19.1023C59.453 19.0996 59.453 19.097 59.453 19.0943C59.453 19.0917 59.453 19.089 59.453 19.0863C59.453 19.0837 59.453 19.081 59.453 19.0784C59.453 19.0757 59.453 19.0731 59.453 19.0704C59.453 19.0677 59.453 19.0651 59.453 19.0624C59.453 19.0598 59.453 19.0571 59.453 19.0545C59.453 19.0518 59.453 19.0492 59.453 19.0465C59.453 19.0438 59.453 19.0412 59.453 19.0385C59.453 19.0359 59.453 19.0332 59.453 19.0306C59.453 19.0279 59.453 19.0252 59.453 19.0226C59.453 19.0199 59.453 19.0173 59.453 19.0146C59.453 19.012 59.453 19.0093 59.453 19.0067C59.453 19.004 59.453 19.0013 59.453 18.9987C59.453 18.996 59.453 18.9934 59.453 18.9907C59.453 18.9881 59.453 18.9854 59.453 18.9827C59.453 18.9801 59.453 18.9774 59.453 18.9748C59.453 18.9721 59.453 18.9695 59.453 18.9668C59.453 18.9642 59.453 18.9615 59.453 18.9588C59.453 18.9562 59.453 18.9535 59.453 18.9509C59.453 18.9482 59.453 18.9456 59.453 18.9429C59.453 18.9402 59.453 18.9376 59.453 18.9349C59.453 18.9323 59.453 18.9296 59.453 18.927C59.453 18.9243 59.453 18.9217 59.453 18.919C59.453 18.9163 59.453 18.9137 59.453 18.911C59.453 18.9084 59.453 18.9057 59.453 18.9031C59.453 18.9004 59.453 18.8977 59.453 18.8951C59.453 18.8924 59.453 18.8898 59.453 18.8871C59.453 18.8845 59.453 18.8818 59.453 18.8792C59.453 18.8765 59.453 18.8738 59.453 18.8712C59.453 18.8685 59.453 18.8659 59.453 18.8632C59.453 18.8606 59.453 18.8579 59.453 18.8552C59.453 18.8526 59.453 18.8499 59.453 18.8473C59.453 18.8446 59.453 18.842 59.453 18.8393C59.453 18.8367 59.453 18.834 59.453 18.8313C59.453 18.8287 59.453 18.826 59.453 18.8234C59.453 18.8207 59.453 18.8181 59.453 18.8154C59.453 18.8127 59.453 18.8101 59.453 18.8074C59.453 18.8048 59.453 18.8021 59.453 18.7995C59.453 18.7968 59.453 18.7942 59.453 18.7915C59.453 18.7888 59.453 18.7862 59.453 18.7835C59.453 18.7809 59.453 18.7782 59.453 18.7756C59.453 18.7729 59.453 18.7702 59.453 18.7676C59.453 18.7649 59.453 18.7623 59.453 18.7596C59.453 18.757 59.453 18.7543 59.453 18.7517C59.453 18.749 59.453 18.7463 59.453 18.7437C59.453 18.741 59.453 18.7384 59.453 18.7357C59.453 18.7331 59.453 18.7304 59.453 18.7277C59.453 18.7251 59.453 18.7224 59.453 18.7198C59.453 18.7171 59.453 18.7145 59.453 18.7118C59.453 18.7092 59.453 18.7065 59.453 18.7038C59.453 18.7012 59.453 18.6985 59.453 18.6959C59.453 18.6932 59.453 18.6906 59.453 18.6879C59.453 18.6852 59.453 18.6826 59.453 18.6799C59.453 18.6773 59.453 18.6746 59.453 18.672C59.453 18.6693 59.453 18.6667 59.453 18.664H58.453C58.453 18.6667 58.453 18.6693 58.453 18.672C58.453 18.6746 58.453 18.6773 58.453 18.6799C58.453 18.6826 58.453 18.6852 58.453 18.6879C58.453 18.6906 58.453 18.6932 58.453 18.6959C58.453 18.6985 58.453 18.7012 58.453 18.7038C58.453 18.7065 58.453 18.7092 58.453 18.7118C58.453 18.7145 58.453 18.7171 58.453 18.7198C58.453 18.7224 58.453 18.7251 58.453 18.7277C58.453 18.7304 58.453 18.7331 58.453 18.7357C58.453 18.7384 58.453 18.741 58.453 18.7437C58.453 18.7463 58.453 18.749 58.453 18.7517C58.453 18.7543 58.453 18.757 58.453 18.7596C58.453 18.7623 58.453 18.7649 58.453 18.7676C58.453 18.7702 58.453 18.7729 58.453 18.7756C58.453 18.7782 58.453 18.7809 58.453 18.7835C58.453 18.7862 58.453 18.7888 58.453 18.7915C58.453 18.7942 58.453 18.7968 58.453 18.7995C58.453 18.8021 58.453 18.8048 58.453 18.8074C58.453 18.8101 58.453 18.8127 58.453 18.8154C58.453 18.8181 58.453 18.8207 58.453 18.8234C58.453 18.826 58.453 18.8287 58.453 18.8313C58.453 18.834 58.453 18.8367 58.453 18.8393C58.453 18.842 58.453 18.8446 58.453 18.8473C58.453 18.8499 58.453 18.8526 58.453 18.8552C58.453 18.8579 58.453 18.8606 58.453 18.8632C58.453 18.8659 58.453 18.8685 58.453 18.8712C58.453 18.8738 58.453 18.8765 58.453 18.8792C58.453 18.8818 58.453 18.8845 58.453 18.8871C58.453 18.8898 58.453 18.8924 58.453 18.8951C58.453 18.8977 58.453 18.9004 58.453 18.9031C58.453 18.9057 58.453 18.9084 58.453 18.911C58.453 18.9137 58.453 18.9163 58.453 18.919C58.453 18.9217 58.453 18.9243 58.453 18.927C58.453 18.9296 58.453 18.9323 58.453 18.9349C58.453 18.9376 58.453 18.9402 58.453 18.9429C58.453 18.9456 58.453 18.9482 58.453 18.9509C58.453 18.9535 58.453 18.9562 58.453 18.9588C58.453 18.9615 58.453 18.9642 58.453 18.9668C58.453 18.9695 58.453 18.9721 58.453 18.9748C58.453 18.9774 58.453 18.9801 58.453 18.9827C58.453 18.9854 58.453 18.9881 58.453 18.9907C58.453 18.9934 58.453 18.996 58.453 18.9987C58.453 19.0013 58.453 19.004 58.453 19.0067C58.453 19.0093 58.453 19.012 58.453 19.0146C58.453 19.0173 58.453 19.0199 58.453 19.0226C58.453 19.0252 58.453 19.0279 58.453 19.0306C58.453 19.0332 58.453 19.0359 58.453 19.0385C58.453 19.0412 58.453 19.0438 58.453 19.0465C58.453 19.0492 58.453 19.0518 58.453 19.0545C58.453 19.0571 58.453 19.0598 58.453 19.0624C58.453 19.0651 58.453 19.0677 58.453 19.0704C58.453 19.0731 58.453 19.0757 58.453 19.0784C58.453 19.081 58.453 19.0837 58.453 19.0863C58.453 19.089 58.453 19.0917 58.453 19.0943C58.453 19.097 58.453 19.0996 58.453 19.1023C58.453 19.1049 58.453 19.1076 58.453 19.1102C58.453 19.1129 58.453 19.1156 58.453 19.1182C58.453 19.1209 58.453 19.1235 58.453 19.1262C58.453 19.1288 58.453 19.1315 58.453 19.1342C58.453 19.1368 58.453 19.1395 58.453 19.1421C58.453 19.1448 58.453 19.1474 58.453 19.1501C58.453 19.1528 58.453 19.1554 58.453 19.1581C58.453 19.1607 58.453 19.1634 58.453 19.166C58.453 19.1687 58.453 19.1713 58.453 19.174C58.453 19.1767 58.453 19.1793 58.453 19.182C58.453 19.1846 58.453 19.1873 58.453 19.1899C58.453 19.1926 58.453 19.1952 58.453 19.1979C58.453 19.2006 58.453 19.2032 58.453 19.2059C58.453 19.2085 58.453 19.2112 58.453 19.2138C58.453 19.2165 58.453 19.2192 58.453 19.2218C58.453 19.2245 58.453 19.2271 58.453 19.2298C58.453 19.2324 58.453 19.2351 58.453 19.2377C58.453 19.2404 58.453 19.2431 58.453 19.2457C58.453 19.2484 58.453 19.251 58.453 19.2537C58.453 19.2563 58.453 19.259 58.453 19.2617C58.453 19.2643 58.453 19.267 58.453 19.2696C58.453 19.2723 58.453 19.2749 58.453 19.2776C58.453 19.2802 58.453 19.2829 58.453 19.2856C58.453 19.2882 58.453 19.2909 58.453 19.2935C58.453 19.2962 58.453 19.2988 58.453 19.3015C58.453 19.3042 58.453 19.3068 58.453 19.3095C58.453 19.3121 58.453 19.3148 58.453 19.3174C58.453 19.3201 58.453 19.3228 58.453 19.3254C58.453 19.3281 58.453 19.3307 58.453 19.3334C58.453 19.336 58.453 19.3387 58.453 19.3413C58.453 19.344 58.453 19.3467 58.453 19.3493C58.453 19.352 58.453 19.3546 58.453 19.3573C58.453 19.3599 58.453 19.3626 58.453 19.3652C58.453 19.3679 58.453 19.3706 58.453 19.3732C58.453 19.3759 58.453 19.3785 58.453 19.3812C58.453 19.3838 58.453 19.3865 58.453 19.3892C58.453 19.3918 58.453 19.3945 58.453 19.3971C58.453 19.3998 58.453 19.4024 58.453 19.4051C58.453 19.4077 58.453 19.4104 58.453 19.4131C58.453 19.4157 58.453 19.4184 58.453 19.421C58.453 19.4237 58.453 19.4263 58.453 19.429C58.453 19.4317 58.453 19.4343 58.453 19.437C58.453 19.4396 58.453 19.4423 58.453 19.4449C58.453 19.4476 58.453 19.4502 58.453 19.4529C58.453 19.4556 58.453 19.4582 58.453 19.4609C58.453 19.4635 58.453 19.4662 58.453 19.4688C58.453 19.4715 58.453 19.4742 58.453 19.4768C58.453 19.4795 58.453 19.4821 58.453 19.4848C58.453 19.4874 58.453 19.4901 58.453 19.4928C58.453 19.4954 58.453 19.4981 58.453 19.5007C58.453 19.5034 58.453 19.506 58.453 19.5087C58.453 19.5113 58.453 19.514 58.453 19.5167C58.453 19.5193 58.453 19.522 58.453 19.5246C58.453 19.5273 58.453 19.5299 58.453 19.5326C58.453 19.5352 58.453 19.5379 58.453 19.5406C58.453 19.5432 58.453 19.5459 58.453 19.5485C58.453 19.5512 58.453 19.5538 58.453 19.5565C58.453 19.5592 58.453 19.5618 58.453 19.5645C58.453 19.5671 58.453 19.5698 58.453 19.5724C58.453 19.5751 58.453 19.5777 58.453 19.5804C58.453 19.5831 58.453 19.5857 58.453 19.5884C58.453 19.591 58.453 19.5937 58.453 19.5963C58.453 19.599 58.453 19.6017 58.453 19.6043C58.453 19.607 58.453 19.6096 58.453 19.6123C58.453 19.6149 58.453 19.6176 58.453 19.6202C58.453 19.6229 58.453 19.6256 58.453 19.6282C58.453 19.6309 58.453 19.6335 58.453 19.6362C58.453 19.6388 58.453 19.6415 58.453 19.6442C58.453 19.6468 58.453 19.6495 58.453 19.6521C58.453 19.6548 58.453 19.6574 58.453 19.6601C58.453 19.6628 58.453 19.6654 58.453 19.6681C58.453 19.6707 58.453 19.6734 58.453 19.676C58.453 19.6787 58.453 19.6813 58.453 19.684C58.453 19.6867 58.453 19.6893 58.453 19.692C58.453 19.6946 58.453 19.6973 58.453 19.6999C58.453 19.7026 58.453 19.7052 58.453 19.7079C58.453 19.7106 58.453 19.7132 58.453 19.7159C58.453 19.7185 58.453 19.7212 58.453 19.7238C58.453 19.7265 58.453 19.7292 58.453 19.7318C58.453 19.7345 58.453 19.7371 58.453 19.7398C58.453 19.7424 58.453 19.7451 58.453 19.7477C58.453 19.7504 58.453 19.7531 58.453 19.7557C58.453 19.7584 58.453 19.761 58.453 19.7637C58.453 19.7663 58.453 19.769 58.453 19.7717C58.453 19.7743 58.453 19.777 58.453 19.7796C58.453 19.7823 58.453 19.7849 58.453 19.7876C58.453 19.7902 58.453 19.7929 58.453 19.7956C58.453 19.7982 58.453 19.8009 58.453 19.8035C58.453 19.8062 58.453 19.8088 58.453 19.8115C58.453 19.8142 58.453 19.8168 58.453 19.8195C58.453 19.8221 58.453 19.8248 58.453 19.8274C58.453 19.8301 58.453 19.8327 58.453 19.8354C58.453 19.8381 58.453 19.8407 58.453 19.8434C58.453 19.846 58.453 19.8487 58.453 19.8513C58.453 19.854 58.453 19.8567 58.453 19.8593C58.453 19.862 58.453 19.8646 58.453 19.8673C58.453 19.8699 58.453 19.8726 58.453 19.8752C58.453 19.8779 58.453 19.8806 58.453 19.8832C58.453 19.8859 58.453 19.8885 58.453 19.8912C58.453 19.8938 58.453 19.8965 58.453 19.8992C58.453 19.9018 58.453 19.9045 58.453 19.9071C58.453 19.9098 58.453 19.9124 58.453 19.9151C58.453 19.9177 58.453 19.9204 58.453 19.9231C58.453 19.9257 58.453 19.9284 58.453 19.931C58.453 19.9337 58.453 19.9363 58.453 19.939C58.453 19.9417 58.453 19.9443 58.453 19.947C58.453 19.9496 58.453 19.9523 58.453 19.9549C58.453 19.9576 58.453 19.9602 58.453 19.9629C58.453 19.9656 58.453 19.9682 58.453 19.9709C58.453 19.9735 58.453 19.9762 58.453 19.9788C58.453 19.9815 58.453 19.9842 58.453 19.9868C58.453 19.9895 58.453 19.9921 58.453 19.9948C58.453 19.9974 58.453 20.0001 58.453 20.0027C58.453 20.0054 58.453 20.0081 58.453 20.0107C58.453 20.0134 58.453 20.016 58.453 20.0187C58.453 20.0213 58.453 20.024 58.453 20.0267C58.453 20.0293 58.453 20.032 58.453 20.0346C58.453 20.0373 58.453 20.0399 58.453 20.0426C58.453 20.0452 58.453 20.0479 58.453 20.0506C58.453 20.0532 58.453 20.0559 58.453 20.0585C58.453 20.0612 58.453 20.0638 58.453 20.0665C58.453 20.0692 58.453 20.0718 58.453 20.0745C58.453 20.0771 58.453 20.0798 58.453 20.0824C58.453 20.0851 58.453 20.0877 58.453 20.0904C58.453 20.0931 58.453 20.0957 58.453 20.0984C58.453 20.101 58.453 20.1037 58.453 20.1063C58.453 20.109 58.453 20.1117 58.453 20.1143C58.453 20.117 58.453 20.1196 58.453 20.1223C58.453 20.1249 58.453 20.1276 58.453 20.1302C58.453 20.1329 58.453 20.1356 58.453 20.1382C58.453 20.1409 58.453 20.1435 58.453 20.1462C58.453 20.1488 58.453 20.1515 58.453 20.1542C58.453 20.1568 58.453 20.1595 58.453 20.1621C58.453 20.1648 58.453 20.1674 58.453 20.1701C58.453 20.1727 58.453 20.1754 58.453 20.1781C58.453 20.1807 58.453 20.1834 58.453 20.186C58.453 20.1887 58.453 20.1913 58.453 20.194C58.453 20.1967 58.453 20.1993 58.453 20.202C58.453 20.2046 58.453 20.2073 58.453 20.2099C58.453 20.2126 58.453 20.2153 58.453 20.2179C58.453 20.2206 58.453 20.2232 58.453 20.2259C58.453 20.2285 58.453 20.2312 58.453 20.2338C58.453 20.2365 58.453 20.2392 58.453 20.2418C58.453 20.2445 58.453 20.2471 58.453 20.2498C58.453 20.2524 58.453 20.2551 58.453 20.2577C58.453 20.2604 58.453 20.2631 58.453 20.2657C58.453 20.2684 58.453 20.271 58.453 20.2737C58.453 20.2763 58.453 20.279 58.453 20.2817C58.453 20.2843 58.453 20.287 58.453 20.2896C58.453 20.2923 58.453 20.2949 58.453 20.2976C58.453 20.3002 58.453 20.3029 58.453 20.3056C58.453 20.3082 58.453 20.3109 58.453 20.3135C58.453 20.3162 58.453 20.3188 58.453 20.3215C58.453 20.3242 58.453 20.3268 58.453 20.3295C58.453 20.3321 58.453 20.3348 58.453 20.3374C58.453 20.3401 58.453 20.3427 58.453 20.3454C58.453 20.3481 58.453 20.3507 58.453 20.3534C58.453 20.356 58.453 20.3587 58.453 20.3613C58.453 20.364 58.453 20.3667 58.453 20.3693C58.453 20.372 58.453 20.3746 58.453 20.3773C58.453 20.3799 58.453 20.3826 58.453 20.3853C58.453 20.3879 58.453 20.3906 58.453 20.3932C58.453 20.3959 58.453 20.3985 58.453 20.4012C58.453 20.4038 58.453 20.4065 58.453 20.4092C58.453 20.4118 58.453 20.4145 58.453 20.4171C58.453 20.4198 58.453 20.4224 58.453 20.4251C58.453 20.4277 58.453 20.4304 58.453 20.4331C58.453 20.4357 58.453 20.4384 58.453 20.441C58.453 20.4437 58.453 20.4463 58.453 20.449C58.453 20.4517 58.453 20.4543 58.453 20.457C58.453 20.4596 58.453 20.4623 58.453 20.4649C58.453 20.4676 58.453 20.4702 58.453 20.4729C58.453 20.4756 58.453 20.4782 58.453 20.4809C58.453 20.4835 58.453 20.4862 58.453 20.4888C58.453 20.4915 58.453 20.4942 58.453 20.4968C58.453 20.4995 58.453 20.5021 58.453 20.5048C58.453 20.5074 58.453 20.5101 58.453 20.5127C58.453 20.5154 58.453 20.5181 58.453 20.5207C58.453 20.5234 58.453 20.526 58.453 20.5287C58.453 20.5313 58.453 20.534 58.453 20.5367C58.453 20.5393 58.453 20.542 58.453 20.5446C58.453 20.5473 58.453 20.5499 58.453 20.5526C58.453 20.5553 58.453 20.5579 58.453 20.5606C58.453 20.5632 58.453 20.5659 58.453 20.5685C58.453 20.5712 58.453 20.5738 58.453 20.5765C58.453 20.5792 58.453 20.5818 58.453 20.5845C58.453 20.5871 58.453 20.5898 58.453 20.5924C58.453 20.5951 58.453 20.5977 58.453 20.6004C58.453 20.6031 58.453 20.6057 58.453 20.6084C58.453 20.611 58.453 20.6137 58.453 20.6163C58.453 20.619 58.453 20.6217 58.453 20.6243C58.453 20.627 58.453 20.6296 58.453 20.6323C58.453 20.6349 58.453 20.6376 58.453 20.6402C58.453 20.6429 58.453 20.6456 58.453 20.6482C58.453 20.6509 58.453 20.6535 58.453 20.6562C58.453 20.6588 58.453 20.6615 58.453 20.6642C58.453 20.6668 58.453 20.6695 58.453 20.6721C58.453 20.6748 58.453 20.6774 58.453 20.6801C58.453 20.6827 58.453 20.6854 58.453 20.6881C58.453 20.6907 58.453 20.6934 58.453 20.696C58.453 20.6987 58.453 20.7013 58.453 20.704C58.453 20.7067 58.453 20.7093 58.453 20.712C58.453 20.7146 58.453 20.7173 58.453 20.7199C58.453 20.7226 58.453 20.7253 58.453 20.7279C58.453 20.7306 58.453 20.7332 58.453 20.7359C58.453 20.7385 58.453 20.7412 58.453 20.7438C58.453 20.7465 58.453 20.7492 58.453 20.7518C58.453 20.7545 58.453 20.7571 58.453 20.7598C58.453 20.7624 58.453 20.7651 58.453 20.7677C58.453 20.7704 58.453 20.7731 58.453 20.7757C58.453 20.7784 58.453 20.781 58.453 20.7837C58.453 20.7863 58.453 20.789 58.453 20.7917C58.453 20.7943 58.453 20.797 58.453 20.7996C58.453 20.8023 58.453 20.8049 58.453 20.8076C58.453 20.8102 58.453 20.8129 58.453 20.8156C58.453 20.8182 58.453 20.8209 58.453 20.8235C58.453 20.8262 58.453 20.8288 58.453 20.8315C58.453 20.8342 58.453 20.8368 58.453 20.8395C58.453 20.8421 58.453 20.8448 58.453 20.8474C58.453 20.8501 58.453 20.8527 58.453 20.8554C58.453 20.8581 58.453 20.8607 58.453 20.8634C58.453 20.866 58.453 20.8687 58.453 20.8713C58.453 20.874 58.453 20.8767 58.453 20.8793C58.453 20.882 58.453 20.8846 58.453 20.8873C58.453 20.8899 58.453 20.8926 58.453 20.8953C58.453 20.8979 58.453 20.9006 58.453 20.9032C58.453 20.9059 58.453 20.9085 58.453 20.9112C58.453 20.9138 58.453 20.9165 58.453 20.9192C58.453 20.9218 58.453 20.9245 58.453 20.9271C58.453 20.9298 58.453 20.9324 58.453 20.9351C58.453 20.9377 58.453 20.9404 58.453 20.9431C58.453 20.9457 58.453 20.9484 58.453 20.951C58.453 20.9537 58.453 20.9563 58.453 20.959C58.453 20.9617 58.453 20.9643 58.453 20.967C58.453 20.9696 58.453 20.9723 58.453 20.9749C58.453 20.9776 58.453 20.9802 58.453 20.9829C58.453 20.9856 58.453 20.9882 58.453 20.9909C58.453 20.9935 58.453 20.9962 58.453 20.9988C58.453 21.0015 58.453 21.0042 58.453 21.0068C58.453 21.0095 58.453 21.0121 58.453 21.0148C58.453 21.0174 58.453 21.0201 58.453 21.0228C58.453 21.0254 58.453 21.0281 58.453 21.0307C58.453 21.0334 58.453 21.036 58.453 21.0387C58.453 21.0413 58.453 21.044 58.453 21.0467C58.453 21.0493 58.453 21.052 58.453 21.0546C58.453 21.0573 58.453 21.0599 58.453 21.0626C58.453 21.0653 58.453 21.0679 58.453 21.0706C58.453 21.0732 58.453 21.0759 58.453 21.0785C58.453 21.0812 58.453 21.0838 58.453 21.0865C58.453 21.0892 58.453 21.0918 58.453 21.0945C58.453 21.0971 58.453 21.0998 58.453 21.1024C58.453 21.1051 58.453 21.1077 58.453 21.1104C58.453 21.1131 58.453 21.1157 58.453 21.1184C58.453 21.121 58.453 21.1237 58.453 21.1263C58.453 21.129 58.453 21.1317 58.453 21.1343C58.453 21.137 58.453 21.1396 58.453 21.1423C58.453 21.1449 58.453 21.1476 58.453 21.1502C58.453 21.1529 58.453 21.1556 58.453 21.1582C58.453 21.1609 58.453 21.1635 58.453 21.1662C58.453 21.1688 58.453 21.1715 58.453 21.1742C58.453 21.1768 58.453 21.1795 58.453 21.1821C58.453 21.1848 58.453 21.1874 58.453 21.1901C58.453 21.1927 58.453 21.1954 58.453 21.1981C58.453 21.2007 58.453 21.2034 58.453 21.206C58.453 21.2087 58.453 21.2113 58.453 21.214C58.453 21.2167 58.453 21.2193 58.453 21.222C58.453 21.2246 58.453 21.2273 58.453 21.2299C58.453 21.2326 58.453 21.2352 58.453 21.2379C58.453 21.2406 58.453 21.2432 58.453 21.2459C58.453 21.2485 58.453 21.2512 58.453 21.2538C58.453 21.2565 58.453 21.2592 58.453 21.2618C58.453 21.2645 58.453 21.2671 58.453 21.2698C58.453 21.2724 58.453 21.2751 58.453 21.2777C58.453 21.2804 58.453 21.2831 58.453 21.2857C58.453 21.2884 58.453 21.291 58.453 21.2937C58.453 21.2963 58.453 21.299 58.453 21.3017C58.453 21.3043 58.453 21.307 58.453 21.3096C58.453 21.3123 58.453 21.3149 58.453 21.3176C58.453 21.3202 58.453 21.3229 58.453 21.3256C58.453 21.3282 58.453 21.3309 58.453 21.3335C58.453 21.3362 58.453 21.3388 58.453 21.3415C58.453 21.3442 58.453 21.3468 58.453 21.3495C58.453 21.3521 58.453 21.3548 58.453 21.3574C58.453 21.3601 58.453 21.3628 58.453 21.3654C58.453 21.3681 58.453 21.3707 58.453 21.3734C58.453 21.376 58.453 21.3787 58.453 21.3813C58.453 21.384 58.453 21.3867 58.453 21.3893C58.453 21.392 58.453 21.3946 58.453 21.3973C58.453 21.3999 58.453 21.4026 58.453 21.4053C58.453 21.4079 58.453 21.4106 58.453 21.4132C58.453 21.4159 58.453 21.4185 58.453 21.4212C58.453 21.4238 58.453 21.4265 58.453 21.4292C58.453 21.4318 58.453 21.4345 58.453 21.4371C58.453 21.4398 58.453 21.4424 58.453 21.4451C58.453 21.4478 58.453 21.4504 58.453 21.4531C58.453 21.4557 58.453 21.4584 58.453 21.461C58.453 21.4637 58.453 21.4663 58.453 21.469C58.453 21.4717 58.453 21.4743 58.453 21.477C58.453 21.4796 58.453 21.4823 58.453 21.4849C58.453 21.4876 58.453 21.4902 58.453 21.4929C58.453 21.4956 58.453 21.4982 58.453 21.5009C58.453 21.5035 58.453 21.5062 58.453 21.5088C58.453 21.5115 58.453 21.5142 58.453 21.5168C58.453 21.5195 58.453 21.5221 58.453 21.5248C58.453 21.5274 58.453 21.5301 58.453 21.5327C58.453 21.5354 58.453 21.5381 58.453 21.5407C58.453 21.5434 58.453 21.546 58.453 21.5487C58.453 21.5513 58.453 21.554 58.453 21.5567C58.453 21.5593 58.453 21.562 58.453 21.5646C58.453 21.5673 58.453 21.5699 58.453 21.5726C58.453 21.5752 58.453 21.5779 58.453 21.5806C58.453 21.5832 58.453 21.5859 58.453 21.5885C58.453 21.5912 58.453 21.5938 58.453 21.5965C58.453 21.5992 58.453 21.6018 58.453 21.6045C58.453 21.6071 58.453 21.6098 58.453 21.6124C58.453 21.6151 58.453 21.6177 58.453 21.6204C58.453 21.6231 58.453 21.6257 58.453 21.6284C58.453 21.631 58.453 21.6337 58.453 21.6363C58.453 21.639 58.453 21.6417 58.453 21.6443C58.453 21.647 58.453 21.6496 58.453 21.6523C58.453 21.6549 58.453 21.6576 58.453 21.6602C58.453 21.6629 58.453 21.6656 58.453 21.6682C58.453 21.6709 58.453 21.6735 58.453 21.6762C58.453 21.6788 58.453 21.6815 58.453 21.6842C58.453 21.6868 58.453 21.6895 58.453 21.6921C58.453 21.6948 58.453 21.6974 58.453 21.7001C58.453 21.7028 58.453 21.7054 58.453 21.7081C58.453 21.7107 58.453 21.7134 58.453 21.716C58.453 21.7187 58.453 21.7213 58.453 21.724C58.453 21.7267 58.453 21.7293 58.453 21.732C58.453 21.7346 58.453 21.7373 58.453 21.7399C58.453 21.7426 58.453 21.7453 58.453 21.7479C58.453 21.7506 58.453 21.7532 58.453 21.7559C58.453 21.7585 58.453 21.7612 58.453 21.7638C58.453 21.7665 58.453 21.7692 58.453 21.7718C58.453 21.7745 58.453 21.7771 58.453 21.7798C58.453 21.7824 58.453 21.7851 58.453 21.7878C58.453 21.7904 58.453 21.7931 58.453 21.7957C58.453 21.7984 58.453 21.801 58.453 21.8037C58.453 21.8063 58.453 21.809 58.453 21.8117C58.453 21.8143 58.453 21.817 58.453 21.8196C58.453 21.8223 58.453 21.8249 58.453 21.8276C58.453 21.8302 58.453 21.8329 58.453 21.8356C58.453 21.8382 58.453 21.8409 58.453 21.8435C58.453 21.8462 58.453 21.8488 58.453 21.8515C58.453 21.8542 58.453 21.8568 58.453 21.8595C58.453 21.8621 58.453 21.8648 58.453 21.8674C58.453 21.8701 58.453 21.8727 58.453 21.8754C58.453 21.8781 58.453 21.8807 58.453 21.8834C58.453 21.886 58.453 21.8887 58.453 21.8913C58.453 21.894 58.453 21.8967 58.453 21.8993C58.453 21.902 58.453 21.9046 58.453 21.9073C58.453 21.9099 58.453 21.9126 58.453 21.9152C58.453 21.9179 58.453 21.9206 58.453 21.9232C58.453 21.9259 58.453 21.9285 58.453 21.9312C58.453 21.9338 58.453 21.9365 58.453 21.9392C58.453 21.9418 58.453 21.9445 58.453 21.9471C58.453 21.9498 58.453 21.9524 58.453 21.9551C58.453 21.9577 58.453 21.9604 58.453 21.9631C58.453 21.9657 58.453 21.9684 58.453 21.971C58.453 21.9737 58.453 21.9763 58.453 21.979C58.453 21.9817 58.453 21.9843 58.453 21.987C58.453 21.9896 58.453 21.9923 58.453 21.9949C58.453 21.9976 58.453 22.0002 58.453 22.0029C58.453 22.0056 58.453 22.0082 58.453 22.0109C58.453 22.0135 58.453 22.0162 58.453 22.0188C58.453 22.0215 58.453 22.0242 58.453 22.0268C58.453 22.0295 58.453 22.0321 58.453 22.0348C58.453 22.0374 58.453 22.0401 58.453 22.0428C58.453 22.0454 58.453 22.0481 58.453 22.0507C58.453 22.0534 58.453 22.056 58.453 22.0587C58.453 22.0613 58.453 22.064 58.453 22.0667C58.453 22.0693 58.453 22.072 58.453 22.0746C58.453 22.0773 58.453 22.0799 58.453 22.0826C58.453 22.0853 58.453 22.0879 58.453 22.0906C58.453 22.0932 58.453 22.0959 58.453 22.0985C58.453 22.1012 58.453 22.1038 58.453 22.1065C58.453 22.1092 58.453 22.1118 58.453 22.1145C58.453 22.1171 58.453 22.1198 58.453 22.1224C58.453 22.1251 58.453 22.1278 58.453 22.1304C58.453 22.1331 58.453 22.1357 58.453 22.1384C58.453 22.141 58.453 22.1437 58.453 22.1463C58.453 22.149 58.453 22.1517 58.453 22.1543C58.453 22.157 58.453 22.1596 58.453 22.1623C58.453 22.1649 58.453 22.1676 58.453 22.1702C58.453 22.1729 58.453 22.1756 58.453 22.1782C58.453 22.1809 58.453 22.1835 58.453 22.1862C58.453 22.1888 58.453 22.1915 58.453 22.1942C58.453 22.1968 58.453 22.1995 58.453 22.2021C58.453 22.2048 58.453 22.2074 58.453 22.2101C58.453 22.2127 58.453 22.2154 58.453 22.2181C58.453 22.2207 58.453 22.2234 58.453 22.226C58.453 22.2287 58.453 22.2313 58.453 22.234C58.453 22.2367 58.453 22.2393 58.453 22.242C58.453 22.2446 58.453 22.2473 58.453 22.2499C58.453 22.2526 58.453 22.2552 58.453 22.2579C58.453 22.2606 58.453 22.2632 58.453 22.2659C58.453 22.2685 58.453 22.2712 58.453 22.2738C58.453 22.2765 58.453 22.2792 58.453 22.2818C58.453 22.2845 58.453 22.2871 58.453 22.2898C58.453 22.2924 58.453 22.2951 58.453 22.2977C58.453 22.3004 58.453 22.3031 58.453 22.3057C58.453 22.3084 58.453 22.311 58.453 22.3137C58.453 22.3163 58.453 22.319 58.453 22.3217C58.453 22.3243 58.453 22.327 58.453 22.3296C58.453 22.3323 58.453 22.3349 58.453 22.3376C58.453 22.3402 58.453 22.3429 58.453 22.3456C58.453 22.3482 58.453 22.3509 58.453 22.3535C58.453 22.3562 58.453 22.3588 58.453 22.3615C58.453 22.3642 58.453 22.3668 58.453 22.3695C58.453 22.3721 58.453 22.3748 58.453 22.3774C58.453 22.3801 58.453 22.3827 58.453 22.3854C58.453 22.3881 58.453 22.3907 58.453 22.3934C58.453 22.396 58.453 22.3987 58.453 22.4013C58.453 22.404 58.453 22.4067 58.453 22.4093C58.453 22.412 58.453 22.4146 58.453 22.4173C58.453 22.4199 58.453 22.4226 58.453 22.4253C58.453 22.4279 58.453 22.4306 58.453 22.4332C58.453 22.4359 58.453 22.4385 58.453 22.4412C58.453 22.4438 58.453 22.4465 58.453 22.4492C58.453 22.4518 58.453 22.4545 58.453 22.4571C58.453 22.4598 58.453 22.4624 58.453 22.4651C58.453 22.4678 58.453 22.4704 58.453 22.4731C58.453 22.4757 58.453 22.4784 58.453 22.481C58.453 22.4837 58.453 22.4863 58.453 22.489C58.453 22.4917 58.453 22.4943 58.453 22.497C58.453 22.4996 58.453 22.5023 58.453 22.5049C58.453 22.5076 58.453 22.5103 58.453 22.5129C58.453 22.5156 58.453 22.5182 58.453 22.5209C58.453 22.5235 58.453 22.5262 58.453 22.5288C58.453 22.5315 58.453 22.5342 58.453 22.5368C58.453 22.5395 58.453 22.5421 58.453 22.5448C58.453 22.5474 58.453 22.5501 58.453 22.5527C58.453 22.5554 58.453 22.5581 58.453 22.5607C58.453 22.5634 58.453 22.566 58.453 22.5687C58.453 22.5713 58.453 22.574 58.453 22.5767C58.453 22.5793 58.453 22.582 58.453 22.5846C58.453 22.5873 58.453 22.5899 58.453 22.5926C58.453 22.5952 58.453 22.5979 58.453 22.6006C58.453 22.6032 58.453 22.6059 58.453 22.6085C58.453 22.6112 58.453 22.6138 58.453 22.6165C58.453 22.6192 58.453 22.6218 58.453 22.6245C58.453 22.6271 58.453 22.6298 58.453 22.6324C58.453 22.6351 58.453 22.6377 58.453 22.6404C58.453 22.6431 58.453 22.6457 58.453 22.6484C58.453 22.651 58.453 22.6537 58.453 22.6563C58.453 22.659 58.453 22.6617 58.453 22.6643C58.453 22.667 58.453 22.6696 58.453 22.6723C58.453 22.6749 58.453 22.6776 58.453 22.6802C58.453 22.6829 58.453 22.6856 58.453 22.6882C58.453 22.6909 58.453 22.6935 58.453 22.6962C58.453 22.6988 58.453 22.7015 58.453 22.7042C58.453 22.7068 58.453 22.7095 58.453 22.7121C58.453 22.7148 58.453 22.7174 58.453 22.7201C58.453 22.7227 58.453 22.7254 58.453 22.7281C58.453 22.7307 58.453 22.7334 58.453 22.736C58.453 22.7387 58.453 22.7413 58.453 22.744H59.453ZM59.453 18.664C59.453 17.264 59.4756 15.8641 59.5207 14.4641L58.5212 14.4319C58.4757 15.8426 58.453 17.2533 58.453 18.664H59.453ZM58.6909 14.0724C57.2236 15.3619 55.6228 16.4736 53.8879 17.4078L54.362 18.2882C56.1631 17.3184 57.8263 16.1635 59.351 14.8236L58.6909 14.0724ZM53.8831 17.4104C52.2091 18.3355 50.4497 18.951 48.6028 19.2588L48.7672 20.2452C50.7283 19.9183 52.5955 19.2645 54.3668 18.2856L53.8831 17.4104ZM49.1832 19.71L48.2312 8.42198L47.2347 8.50602L48.1867 19.794L49.1832 19.71ZM47.7686 8.96273C49.0905 8.86831 50.4511 8.56202 51.8491 8.04944L51.5048 7.11056C50.1828 7.59531 48.9141 7.87836 47.6973 7.96527L47.7686 8.96273ZM51.8442 8.05121C53.2724 7.54443 54.6328 6.94503 55.9251 6.25274L55.4529 5.37126C54.2065 6.03897 52.8922 6.61823 51.5098 7.10879L51.8442 8.05121ZM55.937 6.24612C57.2234 5.51108 58.3764 4.75048 59.3947 3.96364L58.7832 3.17236C57.8068 3.92685 56.6932 4.66225 55.4409 5.37788L55.937 6.24612ZM59.3971 3.96175C60.4701 3.12203 61.2883 2.26331 61.8276 1.38072L60.9743 0.859273C60.5164 1.60869 59.7932 2.38197 58.7808 3.17425L59.3971 3.96175ZM61.401 1.62H72.349V0.619998H61.401V1.62ZM71.849 1.12V46H72.849V1.12H71.849ZM72.349 45.5H58.953V46.5H72.349V45.5Z" fill="#2EB7FF"/>
</svg>
