<svg width="85" height="47" viewBox="0 0 85 47" fill="none" xmlns="http://www.w3.org/2000/svg">
<path d="M5.616 40.9L5.23042 41.2183L5.23226 41.2205L5.616 40.9ZM5.616 6.288L5.99975 6.60854L6.00158 6.60632L5.616 6.288ZM34.652 6.288L34.2642 6.60366L34.2683 6.60853L34.652 6.288ZM34.652 40.9L34.2664 40.5817L34.266 40.5821L34.652 40.9ZM23.5 34.916L23.8433 35.2795L23.5 34.916ZM25.268 31.04L25.7583 31.1381L25.7587 31.1358L25.268 31.04ZM25.268 16.148L24.7773 16.2438L24.7777 16.2461L25.268 16.148ZM23.5 12.204L23.8433 11.8405L23.5 12.204ZM16.768 12.204L16.4345 11.8312L16.4247 11.8405L16.768 12.204ZM15 16.148L15.4903 16.2461L15.4907 16.2438L15 16.148ZM15 31.04L14.5092 31.1358L14.5097 31.1381L15 31.04ZM16.768 34.916L16.4246 35.2796L16.4346 35.2886L16.768 34.916ZM20.168 46.18C13.7871 46.18 9.09719 44.2877 5.99974 40.5795L5.23226 41.2205C8.57214 45.219 13.5836 47.18 20.168 47.18V46.18ZM6.00158 40.5817C2.88662 36.8086 1.288 31.1625 1.288 23.56H0.288C0.288 31.2802 1.90805 37.194 5.23042 41.2183L6.00158 40.5817ZM1.288 23.56C1.288 15.9569 2.88686 10.3352 5.99974 6.60853L5.23226 5.96746C1.9078 9.94744 0.288 15.8405 0.288 23.56H1.288ZM6.00158 6.60632C9.09965 2.85373 13.789 0.939999 20.168 0.939999V-0.0600014C13.5817 -0.0600014 8.56968 1.92494 5.23042 5.96967L6.00158 6.60632ZM20.168 0.939999C26.5474 0.939999 31.212 2.85381 34.2642 6.60363L35.0398 5.97236C31.7453 1.92485 26.754 -0.0600014 20.168 -0.0600014V0.939999ZM34.2683 6.60853C37.3811 10.3352 38.98 15.9569 38.98 23.56H39.98C39.98 15.8405 38.3602 9.94744 35.0357 5.96746L34.2683 6.60853ZM38.98 23.56C38.98 31.1625 37.3814 36.8086 34.2664 40.5817L35.0376 41.2183C38.36 37.194 39.98 31.2802 39.98 23.56H38.98ZM34.266 40.5821C31.2145 44.2876 26.5493 46.18 20.168 46.18V47.18C26.752 47.18 31.7428 45.2191 35.038 41.2179L34.266 40.5821ZM20.168 36.572C21.6673 36.572 22.9126 36.1585 23.8433 35.2795L23.1567 34.5525C22.4554 35.2148 21.4793 35.572 20.168 35.572V36.572ZM23.8433 35.2795C24.7693 34.405 25.3873 32.9932 25.7583 31.1381L24.7777 30.9419C24.4234 32.7135 23.8627 33.8857 23.1567 34.5525L23.8433 35.2795ZM25.7587 31.1358C26.1302 29.2318 26.312 26.7023 26.312 23.56H25.312C25.312 26.6737 25.1311 29.1308 24.7773 30.9442L25.7587 31.1358ZM26.312 23.56C26.312 20.4183 26.1303 17.9101 25.7583 16.0499L24.7777 16.2461C25.131 18.0125 25.312 20.4457 25.312 23.56H26.312ZM25.7587 16.0522C25.3885 14.1545 24.7715 12.7171 23.8433 11.8405L23.1567 12.5675C23.8605 13.2322 24.4222 14.4241 24.7773 16.2438L25.7587 16.0522ZM23.8433 11.8405C22.9126 10.9615 21.6673 10.548 20.168 10.548V11.548C21.4793 11.548 22.4554 11.9052 23.1567 12.5675L23.8433 11.8405ZM20.168 10.548C18.6675 10.548 17.4064 10.9618 16.4346 11.8314L17.1014 12.5766C17.8522 11.9048 18.8578 11.548 20.168 11.548V10.548ZM16.4247 11.8405C15.4965 12.7171 14.8795 14.1545 14.5093 16.0522L15.4907 16.2438C15.8458 14.4241 16.4075 13.2322 17.1113 12.5675L16.4247 11.8405ZM14.5097 16.0499C14.1377 17.9101 13.956 20.4183 13.956 23.56H14.956C14.956 20.4457 15.137 18.0125 15.4903 16.2461L14.5097 16.0499ZM13.956 23.56C13.956 26.7023 14.1378 29.2318 14.5093 31.1358L15.4907 30.9442C15.1369 29.1308 14.956 26.6737 14.956 23.56H13.956ZM14.5097 31.1381C14.8807 32.9932 15.4987 34.405 16.4247 35.2795L17.1113 34.5525C16.4053 33.8857 15.8446 32.7135 15.4903 30.9419L14.5097 31.1381ZM16.4346 35.2886C17.4064 36.1582 18.6675 36.572 20.168 36.572V35.572C18.8578 35.572 17.8522 35.2152 17.1014 34.5434L16.4346 35.2886ZM50.113 46H49.613V46.5H50.113V46ZM50.113 37.432L49.8637 36.9985L49.613 37.1427V37.432H50.113ZM59.429 31.38L59.1312 30.9783L59.1278 30.9808L59.429 31.38ZM65.889 25.804L66.2517 26.1482L66.256 26.1435L65.889 25.804ZM69.629 20.704L70.0736 20.9327L70.0762 20.9276L69.629 20.704ZM69.697 12.544L69.3012 12.8498L69.3083 12.8586L69.697 12.544ZM61.877 13.156L61.4629 12.8755L61.4568 12.8849L61.877 13.156ZM60.517 19.616L60.3873 20.0989L61.017 20.268V19.616H60.517ZM48.617 16.42L48.117 16.4137L48.1121 16.8021L48.4873 16.9029L48.617 16.42ZM51.065 7.512L50.6502 7.23281L51.065 7.512ZM57.593 2.208L57.3996 1.74689L57.3969 1.74803L57.593 2.208ZM75.137 1.8L74.948 2.26306L74.9594 2.26739L75.137 1.8ZM80.577 5.268L80.2122 5.60997L80.2177 5.61585L80.2234 5.62155L80.577 5.268ZM83.637 9.96L83.1678 10.1329L83.1693 10.1369L83.637 9.96ZM82.277 23.084L81.8539 22.8176L82.277 23.084ZM75.885 29.952L76.1892 30.3488L76.1933 30.3456L75.885 29.952ZM66.433 35.936L66.1983 35.4945L65.933 35.6356V35.936H66.433ZM66.433 36.072H65.933V36.6274L66.4853 36.5693L66.433 36.072ZM69.357 35.868L69.3778 36.3676L69.357 35.868ZM72.825 35.8V36.3H72.8342L72.8435 36.2997L72.825 35.8ZM84.997 35.732H85.497V35.232H84.997V35.732ZM84.997 46V46.5H85.497V46H84.997ZM50.613 46V37.432H49.613V46H50.613ZM50.3622 37.8655C54.002 35.7726 57.1256 33.744 59.7301 31.7792L59.1278 30.9808C56.5644 32.9147 53.4773 34.9207 49.8637 36.9985L50.3622 37.8655ZM59.7267 31.7817C62.372 29.8205 64.549 27.9429 66.2517 26.1481L65.5262 25.4599C63.8743 27.2011 61.7446 29.0408 59.1312 30.9783L59.7267 31.7817ZM66.256 26.1435C67.9533 24.3087 69.2307 22.5717 70.0736 20.9327L69.1843 20.4753C68.3953 22.0096 67.1794 23.6727 65.5219 25.4645L66.256 26.1435ZM70.0762 20.9276C70.9182 19.2436 71.353 17.6257 71.353 16.08H70.353C70.353 17.4356 69.9718 18.9004 69.1818 20.4804L70.0762 20.9276ZM71.353 16.08C71.353 14.5779 70.9388 13.2833 70.0856 12.2294L69.3083 12.8586C69.9965 13.7087 70.353 14.7714 70.353 16.08H71.353ZM70.0926 12.2383C69.2005 11.0838 67.8301 10.548 66.093 10.548V11.548C67.6199 11.548 68.6521 12.0095 69.3013 12.8497L70.0926 12.2383ZM66.093 10.548C64.087 10.548 62.518 11.3182 61.463 12.8756L62.2909 13.4364C63.14 12.1831 64.3816 11.548 66.093 11.548V10.548ZM61.4568 12.8849C60.4723 14.411 60.017 16.6807 60.017 19.616H61.017C61.017 16.7486 61.4683 14.7117 62.2971 13.4271L61.4568 12.8849ZM60.6467 19.1331L48.7467 15.9371L48.4873 16.9029L60.3873 20.0989L60.6467 19.1331ZM49.1169 16.4263C49.1614 12.917 49.96 10.0491 51.4798 7.79119L50.6502 7.23281C48.9966 9.68955 48.1633 12.7603 48.117 16.4137L49.1169 16.4263ZM51.4798 7.79119C53.0093 5.51871 55.1071 3.81106 57.789 2.66796L57.3969 1.74803C54.5481 2.96227 52.294 4.79062 50.6502 7.23281L51.4798 7.79119ZM57.7863 2.66909C60.5283 1.51925 63.5894 0.939999 66.977 0.939999V-0.0600014C63.4739 -0.0600014 60.279 0.539416 57.3996 1.7469L57.7863 2.66909ZM66.977 0.939999C70.1517 0.939999 72.8034 1.38755 74.948 2.26292L75.3259 1.33707C73.0279 0.399115 70.2396 -0.0600014 66.977 -0.0600014V0.939999ZM74.9594 2.26739C77.1703 3.10753 78.9144 4.22565 80.2122 5.60997L80.9417 4.92603C79.5195 3.40901 77.637 2.21513 75.3146 1.33261L74.9594 2.26739ZM80.2234 5.62155C81.5819 6.98001 82.5602 8.48354 83.1678 10.1329L84.1061 9.78715C83.4445 7.99112 82.3827 6.36665 80.9305 4.91444L80.2234 5.62155ZM83.1693 10.1369C83.7841 11.7617 84.089 13.3792 84.089 14.992H85.089C85.089 13.2501 84.7592 11.513 84.1046 9.78305L83.1693 10.1369ZM84.089 14.992C84.089 17.8462 83.344 20.4509 81.8539 22.8176L82.7001 23.3504C84.2926 20.8211 85.089 18.0311 85.089 14.992H84.089ZM81.8539 22.8176C80.3485 25.2085 78.2599 27.4565 75.5766 29.5584L76.1933 30.3456C78.95 28.1862 81.1228 25.8555 82.7001 23.3504L81.8539 22.8176ZM75.5808 29.5552C72.8862 31.621 69.7595 33.6012 66.1983 35.4945L66.6677 36.3775C70.2691 34.4628 73.4437 32.4536 76.1892 30.3488L75.5808 29.5552ZM65.933 35.936V36.072H66.933V35.936H65.933ZM66.4853 36.5693C67.3339 36.4799 68.2978 36.4126 69.3778 36.3676L69.3362 35.3684C68.2402 35.4141 67.2547 35.4827 66.3806 35.5747L66.4853 36.5693ZM69.3778 36.3676C70.4581 36.3226 71.6071 36.3 72.825 36.3V35.3C71.5949 35.3 70.4319 35.3228 69.3362 35.3684L69.3778 36.3676ZM72.8435 36.2997C74.0618 36.2545 75.2343 36.232 76.361 36.232V35.232C75.221 35.232 74.0361 35.2548 72.8065 35.3003L72.8435 36.2997ZM76.361 36.232H84.997V35.232H76.361V36.232ZM84.497 35.732V46H85.497V35.732H84.497ZM84.997 45.5H50.113V46.5H84.997V45.5Z" fill="#2EB7FF"/>
</svg>
