<svg width="85" height="47" viewBox="0 0 85 47" fill="none" xmlns="http://www.w3.org/2000/svg">
<path d="M5.616 40.9L5.23042 41.2183L5.23226 41.2205L5.616 40.9ZM5.616 6.288L5.99975 6.60854L6.00158 6.60632L5.616 6.288ZM34.652 6.288L34.2642 6.60366L34.2683 6.60853L34.652 6.288ZM34.652 40.9L34.2664 40.5817L34.266 40.5821L34.652 40.9ZM23.5 34.916L23.8433 35.2795L23.5 34.916ZM25.268 31.04L25.7583 31.1381L25.7587 31.1358L25.268 31.04ZM25.268 16.148L24.7773 16.2438L24.7777 16.2461L25.268 16.148ZM23.5 12.204L23.8433 11.8405L23.5 12.204ZM16.768 12.204L16.4345 11.8312L16.4247 11.8405L16.768 12.204ZM15 16.148L15.4903 16.2461L15.4907 16.2438L15 16.148ZM15 31.04L14.5092 31.1358L14.5097 31.1381L15 31.04ZM16.768 34.916L16.4246 35.2796L16.4346 35.2886L16.768 34.916ZM20.168 46.18C13.7871 46.18 9.09719 44.2877 5.99974 40.5795L5.23226 41.2205C8.57214 45.219 13.5836 47.18 20.168 47.18V46.18ZM6.00158 40.5817C2.88662 36.8086 1.288 31.1625 1.288 23.56H0.288C0.288 31.2802 1.90805 37.194 5.23042 41.2183L6.00158 40.5817ZM1.288 23.56C1.288 15.9569 2.88686 10.3352 5.99974 6.60853L5.23226 5.96746C1.9078 9.94744 0.288 15.8405 0.288 23.56H1.288ZM6.00158 6.60632C9.09965 2.85373 13.789 0.939999 20.168 0.939999V-0.0600014C13.5817 -0.0600014 8.56968 1.92494 5.23042 5.96967L6.00158 6.60632ZM20.168 0.939999C26.5474 0.939999 31.212 2.85381 34.2642 6.60363L35.0398 5.97236C31.7453 1.92485 26.754 -0.0600014 20.168 -0.0600014V0.939999ZM34.2683 6.60853C37.3811 10.3352 38.98 15.9569 38.98 23.56H39.98C39.98 15.8405 38.3602 9.94744 35.0357 5.96746L34.2683 6.60853ZM38.98 23.56C38.98 31.1625 37.3814 36.8086 34.2664 40.5817L35.0376 41.2183C38.36 37.194 39.98 31.2802 39.98 23.56H38.98ZM34.266 40.5821C31.2145 44.2876 26.5493 46.18 20.168 46.18V47.18C26.752 47.18 31.7428 45.2191 35.038 41.2179L34.266 40.5821ZM20.168 36.572C21.6673 36.572 22.9126 36.1585 23.8433 35.2795L23.1567 34.5525C22.4554 35.2148 21.4793 35.572 20.168 35.572V36.572ZM23.8433 35.2795C24.7693 34.405 25.3873 32.9932 25.7583 31.1381L24.7777 30.9419C24.4234 32.7135 23.8627 33.8857 23.1567 34.5525L23.8433 35.2795ZM25.7587 31.1358C26.1302 29.2318 26.312 26.7023 26.312 23.56H25.312C25.312 26.6737 25.1311 29.1308 24.7773 30.9442L25.7587 31.1358ZM26.312 23.56C26.312 20.4183 26.1303 17.9101 25.7583 16.0499L24.7777 16.2461C25.131 18.0125 25.312 20.4457 25.312 23.56H26.312ZM25.7587 16.0522C25.3885 14.1545 24.7715 12.7171 23.8433 11.8405L23.1567 12.5675C23.8605 13.2322 24.4222 14.4241 24.7773 16.2438L25.7587 16.0522ZM23.8433 11.8405C22.9126 10.9615 21.6673 10.548 20.168 10.548V11.548C21.4793 11.548 22.4554 11.9052 23.1567 12.5675L23.8433 11.8405ZM20.168 10.548C18.6675 10.548 17.4064 10.9618 16.4346 11.8314L17.1014 12.5766C17.8522 11.9048 18.8578 11.548 20.168 11.548V10.548ZM16.4247 11.8405C15.4965 12.7171 14.8795 14.1545 14.5093 16.0522L15.4907 16.2438C15.8458 14.4241 16.4075 13.2322 17.1113 12.5675L16.4247 11.8405ZM14.5097 16.0499C14.1377 17.9101 13.956 20.4183 13.956 23.56H14.956C14.956 20.4457 15.137 18.0125 15.4903 16.2461L14.5097 16.0499ZM13.956 23.56C13.956 26.7023 14.1378 29.2318 14.5093 31.1358L15.4907 30.9442C15.1369 29.1308 14.956 26.6737 14.956 23.56H13.956ZM14.5097 31.1381C14.8807 32.9932 15.4987 34.405 16.4247 35.2795L17.1113 34.5525C16.4053 33.8857 15.8446 32.7135 15.4903 30.9419L14.5097 31.1381ZM16.4346 35.2886C17.4064 36.1582 18.6675 36.572 20.168 36.572V35.572C18.8578 35.572 17.8522 35.2152 17.1014 34.5434L16.4346 35.2886ZM54.4018 43.892L54.1471 44.3224L54.1543 44.3265L54.4018 43.892ZM47.6698 35.392L47.4785 34.93L47.0465 35.1088L47.196 35.5518L47.6698 35.392ZM60.3178 30.156L60.8175 30.1417L60.7968 29.4165L60.1265 29.694L60.3178 30.156ZM61.1338 33.896L61.5719 33.655L61.1338 33.896ZM63.1738 35.8L62.9797 36.2608L62.994 36.2668L63.0086 36.2719L63.1738 35.8ZM68.6138 35.8L68.8142 36.2583L68.8267 36.2524L68.6138 35.8ZM70.3138 29.408L69.9027 29.6926L69.9098 29.7029L69.9174 29.7129L70.3138 29.408ZM68.6138 28.184L68.4382 28.6522L68.4513 28.6571L68.4646 28.6612L68.6138 28.184ZM64.3978 27.844L64.3525 27.346L64.348 27.3465L64.3978 27.844ZM62.7658 28.048H62.2658V28.6245L62.8365 28.543L62.7658 28.048ZM62.7658 19.616L62.8278 19.1199L62.2658 19.0496V19.616H62.7658ZM63.8538 19.752L63.7917 20.2481L63.8226 20.252H63.8538V19.752ZM68.8857 18.664L69.2284 19.0281H69.2284L68.8857 18.664ZM68.8857 12L68.5217 12.3427L68.532 12.3537L68.5431 12.3641L68.8857 12ZM62.2218 12.136L62.5471 12.5156L62.5486 12.5144L62.2218 12.136ZM60.5898 16.692L60.4365 17.1679L61.0495 17.3653L61.0888 16.7226L60.5898 16.692ZM48.5538 12.816L48.0581 12.7499L48.0029 13.1639L48.4005 13.2919L48.5538 12.816ZM51.6138 6.016L51.2512 5.67159L51.2467 5.67648L51.6138 6.016ZM58.0738 1.868L57.9035 1.39786L57.9009 1.39883L58.0738 1.868ZM75.8218 1.936L75.6331 2.39906L75.6361 2.40024L75.8218 1.936ZM81.4658 6.22L81.0528 6.50202L81.0575 6.50873L81.4658 6.22ZM82.4178 18.052L81.9735 17.8222L81.9675 17.8346L82.4178 18.052ZM79.9697 21.18L79.664 20.7844L79.9697 21.18ZM77.1138 22.88L77.2789 23.3519L77.2893 23.3483L77.2994 23.3442L77.1138 22.88ZM75.0058 23.356V22.856H74.5058V23.356H75.0058ZM75.0058 23.628H74.5058V24.128H75.0058V23.628ZM77.3178 23.968L77.2069 24.4556L77.2115 24.4566L77.3178 23.968ZM80.4458 25.26L80.1857 25.6872L80.1938 25.6919L80.4458 25.26ZM83.1658 28.116L82.7316 28.3641L82.7369 28.3734L82.7426 28.3824L83.1658 28.116ZM82.0098 40.356L82.4087 40.6574L82.4118 40.6532L82.0098 40.356ZM75.7538 45.048L75.9449 45.51L75.7538 45.048ZM66.9137 46.18C61.8938 46.18 57.8158 45.2607 54.6492 43.4575L54.1543 44.3265C57.5157 46.2406 61.779 47.18 66.9137 47.18V46.18ZM54.6563 43.4617C51.5475 41.6226 49.3771 38.8889 48.1435 35.2322L47.196 35.5518C48.501 39.4204 50.8187 42.3534 54.1472 44.3223L54.6563 43.4617ZM47.861 35.854L60.509 30.618L60.1265 29.694L47.4785 34.93L47.861 35.854ZM59.818 30.1703C59.8645 31.7978 60.1437 33.1334 60.6956 34.137L61.5719 33.655C61.1265 32.8453 60.8617 31.6875 60.8175 30.1417L59.818 30.1703ZM60.6956 34.137C61.2424 35.1311 62.0034 35.8497 62.9797 36.2608L63.3678 35.3392C62.6215 35.0249 62.0224 34.4742 61.5719 33.655L60.6956 34.137ZM63.0086 36.2719C63.9703 36.6085 64.9783 36.776 66.0298 36.776V35.776C65.0865 35.776 64.1905 35.6261 63.3389 35.3281L63.0086 36.2719ZM66.0298 36.776C67.0788 36.776 68.0115 36.6092 68.8142 36.2581L68.4133 35.3419C67.7653 35.6254 66.9754 35.776 66.0298 35.776V36.776ZM68.8267 36.2524C69.6801 35.8508 70.3477 35.2646 70.8105 34.4932L69.953 33.9788C69.5998 34.5674 69.0888 35.0239 68.4009 35.3476L68.8267 36.2524ZM70.8105 34.4932C71.2715 33.7249 71.4938 32.84 71.4938 31.856H70.4938C70.4938 32.6853 70.308 33.3871 69.953 33.9788L70.8105 34.4932ZM71.4938 31.856C71.4938 30.7465 71.253 29.809 70.7101 29.1031L69.9174 29.7129C70.2812 30.1857 70.4938 30.8802 70.4938 31.856H71.4938ZM70.7248 29.1234C70.2495 28.4367 69.5877 27.9645 68.7629 27.7068L68.4646 28.6612C69.0905 28.8568 69.562 29.2006 69.9027 29.6926L70.7248 29.1234ZM68.7893 27.7158C67.9966 27.4186 67.0964 27.276 66.0978 27.276V28.276C67.0031 28.276 67.7802 28.4054 68.4382 28.6522L68.7893 27.7158ZM66.0978 27.276C65.4518 27.276 64.8696 27.299 64.3525 27.3461L64.443 28.3419C64.9233 28.2983 65.4744 28.276 66.0978 28.276V27.276ZM64.348 27.3465C63.8855 27.3927 63.3341 27.4617 62.695 27.553L62.8365 28.543C63.4667 28.4529 64.0033 28.3859 64.4475 28.3415L64.348 27.3465ZM63.2658 28.048V19.616H62.2658V28.048H63.2658ZM62.7037 20.1121C63.0664 20.1575 63.4291 20.2028 63.7917 20.2481L63.9158 19.2559C63.5531 19.2105 63.1904 19.1652 62.8278 19.1199L62.7037 20.1121ZM63.8538 20.252C63.8545 20.252 63.8552 20.252 63.8559 20.252C63.8566 20.252 63.8573 20.252 63.858 20.252C63.8587 20.252 63.8594 20.252 63.8601 20.252C63.8608 20.252 63.8616 20.252 63.8623 20.252C63.863 20.252 63.8637 20.252 63.8644 20.252C63.8651 20.252 63.8658 20.252 63.8665 20.252C63.8673 20.252 63.868 20.252 63.8687 20.252C63.8694 20.252 63.8701 20.252 63.8708 20.252C63.8715 20.252 63.8722 20.252 63.873 20.252C63.8737 20.252 63.8744 20.252 63.8751 20.252C63.8758 20.252 63.8765 20.252 63.8773 20.252C63.878 20.252 63.8787 20.252 63.8794 20.252C63.8801 20.252 63.8808 20.252 63.8816 20.252C63.8823 20.252 63.883 20.252 63.8837 20.252C63.8844 20.252 63.8851 20.252 63.8859 20.252C63.8866 20.252 63.8873 20.252 63.888 20.252C63.8887 20.252 63.8895 20.252 63.8902 20.252C63.8909 20.252 63.8916 20.252 63.8923 20.252C63.8931 20.252 63.8938 20.252 63.8945 20.252C63.8952 20.252 63.8959 20.252 63.8967 20.252C63.8974 20.252 63.8981 20.252 63.8988 20.252C63.8996 20.252 63.9003 20.252 63.901 20.252C63.9017 20.252 63.9025 20.252 63.9032 20.252C63.9039 20.252 63.9046 20.252 63.9053 20.252C63.9061 20.252 63.9068 20.252 63.9075 20.252C63.9082 20.252 63.909 20.252 63.9097 20.252C63.9104 20.252 63.9112 20.252 63.9119 20.252C63.9126 20.252 63.9133 20.252 63.9141 20.252C63.9148 20.252 63.9155 20.252 63.9163 20.252C63.917 20.252 63.9177 20.252 63.9184 20.252C63.9192 20.252 63.9199 20.252 63.9206 20.252C63.9214 20.252 63.9221 20.252 63.9228 20.252C63.9235 20.252 63.9243 20.252 63.925 20.252C63.9257 20.252 63.9265 20.252 63.9272 20.252C63.9279 20.252 63.9287 20.252 63.9294 20.252C63.9301 20.252 63.9309 20.252 63.9316 20.252C63.9323 20.252 63.9331 20.252 63.9338 20.252C63.9345 20.252 63.9353 20.252 63.936 20.252C63.9367 20.252 63.9375 20.252 63.9382 20.252C63.9389 20.252 63.9397 20.252 63.9404 20.252C63.9411 20.252 63.9419 20.252 63.9426 20.252C63.9434 20.252 63.9441 20.252 63.9448 20.252C63.9456 20.252 63.9463 20.252 63.947 20.252C63.9478 20.252 63.9485 20.252 63.9493 20.252C63.95 20.252 63.9507 20.252 63.9515 20.252C63.9522 20.252 63.953 20.252 63.9537 20.252C63.9544 20.252 63.9552 20.252 63.9559 20.252C63.9567 20.252 63.9574 20.252 63.9581 20.252C63.9589 20.252 63.9596 20.252 63.9604 20.252C63.9611 20.252 63.9619 20.252 63.9626 20.252C63.9633 20.252 63.9641 20.252 63.9648 20.252C63.9656 20.252 63.9663 20.252 63.9671 20.252C63.9678 20.252 63.9685 20.252 63.9693 20.252C63.97 20.252 63.9708 20.252 63.9715 20.252C63.9723 20.252 63.973 20.252 63.9738 20.252C63.9745 20.252 63.9753 20.252 63.976 20.252C63.9768 20.252 63.9775 20.252 63.9782 20.252C63.979 20.252 63.9797 20.252 63.9805 20.252C63.9812 20.252 63.982 20.252 63.9827 20.252C63.9835 20.252 63.9842 20.252 63.985 20.252C63.9857 20.252 63.9865 20.252 63.9872 20.252C63.988 20.252 63.9887 20.252 63.9895 20.252C63.9902 20.252 63.991 20.252 63.9917 20.252C63.9925 20.252 63.9932 20.252 63.994 20.252C63.9948 20.252 63.9955 20.252 63.9963 20.252C63.997 20.252 63.9978 20.252 63.9985 20.252C63.9993 20.252 64 20.252 64.0008 20.252C64.0015 20.252 64.0023 20.252 64.0031 20.252C64.0038 20.252 64.0046 20.252 64.0053 20.252C64.0061 20.252 64.0068 20.252 64.0076 20.252C64.0083 20.252 64.0091 20.252 64.0099 20.252C64.0106 20.252 64.0114 20.252 64.0121 20.252C64.0129 20.252 64.0136 20.252 64.0144 20.252C64.0152 20.252 64.0159 20.252 64.0167 20.252C64.0174 20.252 64.0182 20.252 64.019 20.252C64.0197 20.252 64.0205 20.252 64.0212 20.252C64.022 20.252 64.0228 20.252 64.0235 20.252C64.0243 20.252 64.0251 20.252 64.0258 20.252C64.0266 20.252 64.0273 20.252 64.0281 20.252C64.0289 20.252 64.0296 20.252 64.0304 20.252C64.0312 20.252 64.0319 20.252 64.0327 20.252C64.0334 20.252 64.0342 20.252 64.035 20.252C64.0357 20.252 64.0365 20.252 64.0373 20.252C64.038 20.252 64.0388 20.252 64.0396 20.252C64.0403 20.252 64.0411 20.252 64.0419 20.252C64.0426 20.252 64.0434 20.252 64.0442 20.252C64.0449 20.252 64.0457 20.252 64.0465 20.252C64.0472 20.252 64.048 20.252 64.0488 20.252C64.0496 20.252 64.0503 20.252 64.0511 20.252C64.0519 20.252 64.0526 20.252 64.0534 20.252C64.0542 20.252 64.0549 20.252 64.0557 20.252C64.0565 20.252 64.0573 20.252 64.058 20.252C64.0588 20.252 64.0596 20.252 64.0603 20.252C64.0611 20.252 64.0619 20.252 64.0627 20.252C64.0634 20.252 64.0642 20.252 64.065 20.252C64.0658 20.252 64.0665 20.252 64.0673 20.252C64.0681 20.252 64.0689 20.252 64.0696 20.252C64.0704 20.252 64.0712 20.252 64.072 20.252C64.0727 20.252 64.0735 20.252 64.0743 20.252C64.0751 20.252 64.0759 20.252 64.0766 20.252C64.0774 20.252 64.0782 20.252 64.079 20.252C64.0797 20.252 64.0805 20.252 64.0813 20.252C64.0821 20.252 64.0829 20.252 64.0836 20.252C64.0844 20.252 64.0852 20.252 64.086 20.252C64.0868 20.252 64.0875 20.252 64.0883 20.252C64.0891 20.252 64.0899 20.252 64.0907 20.252C64.0914 20.252 64.0922 20.252 64.093 20.252C64.0938 20.252 64.0946 20.252 64.0954 20.252C64.0961 20.252 64.0969 20.252 64.0977 20.252C64.0985 20.252 64.0993 20.252 64.1001 20.252C64.1008 20.252 64.1016 20.252 64.1024 20.252C64.1032 20.252 64.104 20.252 64.1048 20.252C64.1056 20.252 64.1063 20.252 64.1071 20.252C64.1079 20.252 64.1087 20.252 64.1095 20.252C64.1103 20.252 64.1111 20.252 64.1118 20.252C64.1126 20.252 64.1134 20.252 64.1142 20.252C64.115 20.252 64.1158 20.252 64.1166 20.252C64.1174 20.252 64.1182 20.252 64.1189 20.252C64.1197 20.252 64.1205 20.252 64.1213 20.252C64.1221 20.252 64.1229 20.252 64.1237 20.252C64.1245 20.252 64.1253 20.252 64.1261 20.252C64.1269 20.252 64.1277 20.252 64.1284 20.252C64.1292 20.252 64.13 20.252 64.1308 20.252C64.1316 20.252 64.1324 20.252 64.1332 20.252C64.134 20.252 64.1348 20.252 64.1356 20.252C64.1364 20.252 64.1372 20.252 64.138 20.252C64.1388 20.252 64.1396 20.252 64.1404 20.252C64.1412 20.252 64.142 20.252 64.1428 20.252C64.1435 20.252 64.1443 20.252 64.1451 20.252C64.1459 20.252 64.1467 20.252 64.1475 20.252C64.1483 20.252 64.1491 20.252 64.1499 20.252C64.1507 20.252 64.1515 20.252 64.1523 20.252C64.1531 20.252 64.1539 20.252 64.1547 20.252C64.1555 20.252 64.1563 20.252 64.1571 20.252C64.1579 20.252 64.1587 20.252 64.1595 20.252C64.1603 20.252 64.1611 20.252 64.1619 20.252C64.1628 20.252 64.1636 20.252 64.1644 20.252C64.1652 20.252 64.166 20.252 64.1668 20.252C64.1676 20.252 64.1684 20.252 64.1692 20.252C64.17 20.252 64.1708 20.252 64.1716 20.252C64.1724 20.252 64.1732 20.252 64.174 20.252C64.1748 20.252 64.1756 20.252 64.1764 20.252C64.1772 20.252 64.178 20.252 64.1788 20.252C64.1796 20.252 64.1805 20.252 64.1813 20.252C64.1821 20.252 64.1829 20.252 64.1837 20.252C64.1845 20.252 64.1853 20.252 64.1861 20.252C64.1869 20.252 64.1877 20.252 64.1886 20.252C64.1894 20.252 64.1902 20.252 64.191 20.252C64.1918 20.252 64.1926 20.252 64.1934 20.252C64.1942 20.252 64.195 20.252 64.1958 20.252C64.1967 20.252 64.1975 20.252 64.1983 20.252C64.1991 20.252 64.1999 20.252 64.2007 20.252C64.2015 20.252 64.2024 20.252 64.2032 20.252C64.204 20.252 64.2048 20.252 64.2056 20.252C64.2064 20.252 64.2072 20.252 64.2081 20.252C64.2089 20.252 64.2097 20.252 64.2105 20.252C64.2113 20.252 64.2121 20.252 64.213 20.252C64.2138 20.252 64.2146 20.252 64.2154 20.252C64.2162 20.252 64.217 20.252 64.2179 20.252C64.2187 20.252 64.2195 20.252 64.2203 20.252C64.2211 20.252 64.222 20.252 64.2228 20.252C64.2236 20.252 64.2244 20.252 64.2252 20.252C64.2261 20.252 64.2269 20.252 64.2277 20.252C64.2285 20.252 64.2293 20.252 64.2302 20.252C64.231 20.252 64.2318 20.252 64.2326 20.252C64.2335 20.252 64.2343 20.252 64.2351 20.252C64.2359 20.252 64.2367 20.252 64.2376 20.252C64.2384 20.252 64.2392 20.252 64.24 20.252C64.2409 20.252 64.2417 20.252 64.2425 20.252C64.2433 20.252 64.2442 20.252 64.245 20.252C64.2458 20.252 64.2466 20.252 64.2475 20.252C64.2483 20.252 64.2491 20.252 64.2499 20.252C64.2508 20.252 64.2516 20.252 64.2524 20.252C64.2533 20.252 64.2541 20.252 64.2549 20.252C64.2557 20.252 64.2566 20.252 64.2574 20.252C64.2582 20.252 64.2591 20.252 64.2599 20.252C64.2607 20.252 64.2616 20.252 64.2624 20.252C64.2632 20.252 64.264 20.252 64.2649 20.252C64.2657 20.252 64.2665 20.252 64.2674 20.252C64.2682 20.252 64.269 20.252 64.2699 20.252C64.2707 20.252 64.2715 20.252 64.2724 20.252C64.2732 20.252 64.274 20.252 64.2749 20.252C64.2757 20.252 64.2765 20.252 64.2774 20.252C64.2782 20.252 64.279 20.252 64.2799 20.252C64.2807 20.252 64.2816 20.252 64.2824 20.252C64.2832 20.252 64.2841 20.252 64.2849 20.252C64.2857 20.252 64.2866 20.252 64.2874 20.252C64.2882 20.252 64.2891 20.252 64.2899 20.252C64.2908 20.252 64.2916 20.252 64.2924 20.252C64.2933 20.252 64.2941 20.252 64.295 20.252C64.2958 20.252 64.2966 20.252 64.2975 20.252C64.2983 20.252 64.2992 20.252 64.3 20.252C64.3008 20.252 64.3017 20.252 64.3025 20.252C64.3034 20.252 64.3042 20.252 64.3051 20.252C64.3059 20.252 64.3067 20.252 64.3076 20.252C64.3084 20.252 64.3093 20.252 64.3101 20.252C64.311 20.252 64.3118 20.252 64.3126 20.252C64.3135 20.252 64.3143 20.252 64.3152 20.252C64.316 20.252 64.3169 20.252 64.3177 20.252C64.3186 20.252 64.3194 20.252 64.3203 20.252C64.3211 20.252 64.322 20.252 64.3228 20.252C64.3236 20.252 64.3245 20.252 64.3253 20.252C64.3262 20.252 64.327 20.252 64.3279 20.252C64.3287 20.252 64.3296 20.252 64.3304 20.252C64.3313 20.252 64.3321 20.252 64.333 20.252C64.3338 20.252 64.3347 20.252 64.3355 20.252C64.3364 20.252 64.3372 20.252 64.3381 20.252C64.3389 20.252 64.3398 20.252 64.3406 20.252C64.3415 20.252 64.3423 20.252 64.3432 20.252C64.3441 20.252 64.3449 20.252 64.3458 20.252C64.3466 20.252 64.3475 20.252 64.3483 20.252C64.3492 20.252 64.35 20.252 64.3509 20.252C64.3517 20.252 64.3526 20.252 64.3535 20.252C64.3543 20.252 64.3552 20.252 64.356 20.252C64.3569 20.252 64.3577 20.252 64.3586 20.252C64.3595 20.252 64.3603 20.252 64.3612 20.252C64.362 20.252 64.3629 20.252 64.3637 20.252C64.3646 20.252 64.3655 20.252 64.3663 20.252C64.3672 20.252 64.368 20.252 64.3689 20.252C64.3698 20.252 64.3706 20.252 64.3715 20.252C64.3723 20.252 64.3732 20.252 64.3741 20.252C64.3749 20.252 64.3758 20.252 64.3766 20.252C64.3775 20.252 64.3784 20.252 64.3792 20.252C64.3801 20.252 64.381 20.252 64.3818 20.252C64.3827 20.252 64.3835 20.252 64.3844 20.252C64.3853 20.252 64.3861 20.252 64.387 20.252C64.3879 20.252 64.3887 20.252 64.3896 20.252C64.3905 20.252 64.3913 20.252 64.3922 20.252C64.3931 20.252 64.3939 20.252 64.3948 20.252C64.3957 20.252 64.3965 20.252 64.3974 20.252C64.3983 20.252 64.3991 20.252 64.4 20.252C64.4009 20.252 64.4017 20.252 64.4026 20.252C64.4035 20.252 64.4043 20.252 64.4052 20.252C64.4061 20.252 64.4069 20.252 64.4078 20.252C64.4087 20.252 64.4096 20.252 64.4104 20.252C64.4113 20.252 64.4122 20.252 64.413 20.252C64.4139 20.252 64.4148 20.252 64.4157 20.252C64.4165 20.252 64.4174 20.252 64.4183 20.252C64.4192 20.252 64.42 20.252 64.4209 20.252C64.4218 20.252 64.4226 20.252 64.4235 20.252C64.4244 20.252 64.4253 20.252 64.4261 20.252C64.427 20.252 64.4279 20.252 64.4288 20.252C64.4296 20.252 64.4305 20.252 64.4314 20.252C64.4323 20.252 64.4332 20.252 64.434 20.252C64.4349 20.252 64.4358 20.252 64.4367 20.252C64.4375 20.252 64.4384 20.252 64.4393 20.252C64.4402 20.252 64.441 20.252 64.4419 20.252C64.4428 20.252 64.4437 20.252 64.4446 20.252C64.4454 20.252 64.4463 20.252 64.4472 20.252C64.4481 20.252 64.449 20.252 64.4499 20.252C64.4507 20.252 64.4516 20.252 64.4525 20.252C64.4534 20.252 64.4543 20.252 64.4551 20.252C64.456 20.252 64.4569 20.252 64.4578 20.252C64.4587 20.252 64.4596 20.252 64.4604 20.252C64.4613 20.252 64.4622 20.252 64.4631 20.252C64.464 20.252 64.4649 20.252 64.4658 20.252C64.4666 20.252 64.4675 20.252 64.4684 20.252C64.4693 20.252 64.4702 20.252 64.4711 20.252C64.472 20.252 64.4728 20.252 64.4737 20.252C64.4746 20.252 64.4755 20.252 64.4764 20.252C64.4773 20.252 64.4782 20.252 64.4791 20.252C64.4799 20.252 64.4808 20.252 64.4817 20.252C64.4826 20.252 64.4835 20.252 64.4844 20.252C64.4853 20.252 64.4862 20.252 64.4871 20.252C64.488 20.252 64.4889 20.252 64.4897 20.252C64.4906 20.252 64.4915 20.252 64.4924 20.252C64.4933 20.252 64.4942 20.252 64.4951 20.252C64.496 20.252 64.4969 20.252 64.4978 20.252C64.4987 20.252 64.4996 20.252 64.5005 20.252C64.5014 20.252 64.5023 20.252 64.5031 20.252C64.504 20.252 64.5049 20.252 64.5058 20.252C64.5067 20.252 64.5076 20.252 64.5085 20.252C64.5094 20.252 64.5103 20.252 64.5112 20.252C64.5121 20.252 64.513 20.252 64.5139 20.252C64.5148 20.252 64.5157 20.252 64.5166 20.252C64.5175 20.252 64.5184 20.252 64.5193 20.252C64.5202 20.252 64.5211 20.252 64.522 20.252C64.5229 20.252 64.5238 20.252 64.5247 20.252C64.5256 20.252 64.5265 20.252 64.5274 20.252C64.5283 20.252 64.5292 20.252 64.5301 20.252C64.531 20.252 64.5319 20.252 64.5328 20.252C64.5337 20.252 64.5346 20.252 64.5355 20.252C64.5364 20.252 64.5373 20.252 64.5382 20.252C64.5391 20.252 64.54 20.252 64.5409 20.252C64.5418 20.252 64.5427 20.252 64.5437 20.252C64.5446 20.252 64.5455 20.252 64.5464 20.252C64.5473 20.252 64.5482 20.252 64.5491 20.252C64.55 20.252 64.5509 20.252 64.5518 20.252C64.5527 20.252 64.5536 20.252 64.5545 20.252C64.5555 20.252 64.5564 20.252 64.5573 20.252C64.5582 20.252 64.5591 20.252 64.56 20.252C64.5609 20.252 64.5618 20.252 64.5627 20.252C64.5636 20.252 64.5645 20.252 64.5655 20.252C64.5664 20.252 64.5673 20.252 64.5682 20.252C64.5691 20.252 64.57 20.252 64.5709 20.252C64.5718 20.252 64.5727 20.252 64.5737 20.252C64.5746 20.252 64.5755 20.252 64.5764 20.252C64.5773 20.252 64.5782 20.252 64.5791 20.252C64.5801 20.252 64.581 20.252 64.5819 20.252C64.5828 20.252 64.5837 20.252 64.5846 20.252C64.5855 20.252 64.5865 20.252 64.5874 20.252C64.5883 20.252 64.5892 20.252 64.5901 20.252C64.591 20.252 64.592 20.252 64.5929 20.252C64.5938 20.252 64.5947 20.252 64.5956 20.252C64.5966 20.252 64.5975 20.252 64.5984 20.252C64.5993 20.252 64.6002 20.252 64.6012 20.252C64.6021 20.252 64.603 20.252 64.6039 20.252C64.6048 20.252 64.6058 20.252 64.6067 20.252C64.6076 20.252 64.6085 20.252 64.6095 20.252C64.6104 20.252 64.6113 20.252 64.6122 20.252C64.6131 20.252 64.6141 20.252 64.615 20.252C64.6159 20.252 64.6168 20.252 64.6178 20.252C64.6187 20.252 64.6196 20.252 64.6205 20.252C64.6215 20.252 64.6224 20.252 64.6233 20.252C64.6242 20.252 64.6252 20.252 64.6261 20.252C64.627 20.252 64.6279 20.252 64.6289 20.252C64.6298 20.252 64.6307 20.252 64.6316 20.252C64.6326 20.252 64.6335 20.252 64.6344 20.252C64.6354 20.252 64.6363 20.252 64.6372 20.252C64.6381 20.252 64.6391 20.252 64.64 20.252C64.6409 20.252 64.6419 20.252 64.6428 20.252C64.6437 20.252 64.6447 20.252 64.6456 20.252C64.6465 20.252 64.6474 20.252 64.6484 20.252C64.6493 20.252 64.6502 20.252 64.6512 20.252C64.6521 20.252 64.653 20.252 64.654 20.252C64.6549 20.252 64.6558 20.252 64.6568 20.252C64.6577 20.252 64.6586 20.252 64.6596 20.252C64.6605 20.252 64.6614 20.252 64.6624 20.252C64.6633 20.252 64.6643 20.252 64.6652 20.252C64.6661 20.252 64.6671 20.252 64.668 20.252C64.6689 20.252 64.6699 20.252 64.6708 20.252C64.6717 20.252 64.6727 20.252 64.6736 20.252C64.6746 20.252 64.6755 20.252 64.6764 20.252C64.6774 20.252 64.6783 20.252 64.6793 20.252C64.6802 20.252 64.6811 20.252 64.6821 20.252C64.683 20.252 64.684 20.252 64.6849 20.252C64.6858 20.252 64.6868 20.252 64.6877 20.252C64.6887 20.252 64.6896 20.252 64.6905 20.252C64.6915 20.252 64.6924 20.252 64.6934 20.252C64.6943 20.252 64.6953 20.252 64.6962 20.252C64.6971 20.252 64.6981 20.252 64.699 20.252C64.7 20.252 64.7009 20.252 64.7019 20.252C64.7028 20.252 64.7038 20.252 64.7047 20.252C64.7056 20.252 64.7066 20.252 64.7075 20.252C64.7085 20.252 64.7094 20.252 64.7104 20.252C64.7113 20.252 64.7123 20.252 64.7132 20.252C64.7142 20.252 64.7151 20.252 64.7161 20.252C64.717 20.252 64.718 20.252 64.7189 20.252C64.7199 20.252 64.7208 20.252 64.7218 20.252C64.7227 20.252 64.7237 20.252 64.7246 20.252C64.7256 20.252 64.7265 20.252 64.7275 20.252C64.7284 20.252 64.7294 20.252 64.7303 20.252C64.7313 20.252 64.7322 20.252 64.7332 20.252C64.7341 20.252 64.7351 20.252 64.736 20.252C64.737 20.252 64.7379 20.252 64.7389 20.252C64.7398 20.252 64.7408 20.252 64.7418 20.252C64.7427 20.252 64.7437 20.252 64.7446 20.252C64.7456 20.252 64.7465 20.252 64.7475 20.252C64.7484 20.252 64.7494 20.252 64.7504 20.252C64.7513 20.252 64.7523 20.252 64.7532 20.252C64.7542 20.252 64.7551 20.252 64.7561 20.252C64.7571 20.252 64.758 20.252 64.759 20.252C64.7599 20.252 64.7609 20.252 64.7618 20.252C64.7628 20.252 64.7638 20.252 64.7647 20.252C64.7657 20.252 64.7666 20.252 64.7676 20.252C64.7686 20.252 64.7695 20.252 64.7705 20.252C64.7715 20.252 64.7724 20.252 64.7734 20.252C64.7743 20.252 64.7753 20.252 64.7763 20.252C64.7772 20.252 64.7782 20.252 64.7792 20.252C64.7801 20.252 64.7811 20.252 64.7821 20.252C64.783 20.252 64.784 20.252 64.7849 20.252C64.7859 20.252 64.7869 20.252 64.7878 20.252C64.7888 20.252 64.7898 20.252 64.7907 20.252C64.7917 20.252 64.7927 20.252 64.7936 20.252C64.7946 20.252 64.7956 20.252 64.7965 20.252C64.7975 20.252 64.7985 20.252 64.7994 20.252C64.8004 20.252 64.8014 20.252 64.8024 20.252C64.8033 20.252 64.8043 20.252 64.8053 20.252C64.8062 20.252 64.8072 20.252 64.8082 20.252C64.8091 20.252 64.8101 20.252 64.8111 20.252C64.812 20.252 64.813 20.252 64.814 20.252C64.815 20.252 64.8159 20.252 64.8169 20.252C64.8179 20.252 64.8189 20.252 64.8198 20.252C64.8208 20.252 64.8218 20.252 64.8228 20.252C64.8237 20.252 64.8247 20.252 64.8257 20.252C64.8267 20.252 64.8276 20.252 64.8286 20.252C64.8296 20.252 64.8306 20.252 64.8315 20.252C64.8325 20.252 64.8335 20.252 64.8345 20.252C64.8354 20.252 64.8364 20.252 64.8374 20.252C64.8384 20.252 64.8393 20.252 64.8403 20.252C64.8413 20.252 64.8423 20.252 64.8433 20.252C64.8442 20.252 64.8452 20.252 64.8462 20.252C64.8472 20.252 64.8482 20.252 64.8491 20.252C64.8501 20.252 64.8511 20.252 64.8521 20.252C64.8531 20.252 64.854 20.252 64.855 20.252C64.856 20.252 64.857 20.252 64.858 20.252C64.8589 20.252 64.8599 20.252 64.8609 20.252C64.8619 20.252 64.8629 20.252 64.8639 20.252C64.8648 20.252 64.8658 20.252 64.8668 20.252C64.8678 20.252 64.8688 20.252 64.8698 20.252C64.8708 20.252 64.8717 20.252 64.8727 20.252C64.8737 20.252 64.8747 20.252 64.8757 20.252C64.8767 20.252 64.8777 20.252 64.8786 20.252C64.8796 20.252 64.8806 20.252 64.8816 20.252C64.8826 20.252 64.8836 20.252 64.8846 20.252C64.8856 20.252 64.8865 20.252 64.8875 20.252C64.8885 20.252 64.8895 20.252 64.8905 20.252C64.8915 20.252 64.8925 20.252 64.8935 20.252C64.8945 20.252 64.8955 20.252 64.8964 20.252C64.8974 20.252 64.8984 20.252 64.8994 20.252C64.9004 20.252 64.9014 20.252 64.9024 20.252C64.9034 20.252 64.9044 20.252 64.9054 20.252C64.9064 20.252 64.9074 20.252 64.9084 20.252C64.9094 20.252 64.9103 20.252 64.9113 20.252C64.9123 20.252 64.9133 20.252 64.9143 20.252C64.9153 20.252 64.9163 20.252 64.9173 20.252C64.9183 20.252 64.9193 20.252 64.9203 20.252C64.9213 20.252 64.9223 20.252 64.9233 20.252C64.9243 20.252 64.9253 20.252 64.9263 20.252C64.9273 20.252 64.9283 20.252 64.9293 20.252C64.9303 20.252 64.9313 20.252 64.9323 20.252C64.9333 20.252 64.9343 20.252 64.9353 20.252C64.9363 20.252 64.9373 20.252 64.9383 20.252C64.9393 20.252 64.9403 20.252 64.9413 20.252C64.9423 20.252 64.9433 20.252 64.9443 20.252C64.9453 20.252 64.9463 20.252 64.9473 20.252C64.9483 20.252 64.9493 20.252 64.9503 20.252C64.9513 20.252 64.9523 20.252 64.9533 20.252C64.9543 20.252 64.9553 20.252 64.9563 20.252C64.9573 20.252 64.9584 20.252 64.9594 20.252C64.9604 20.252 64.9614 20.252 64.9624 20.252C64.9634 20.252 64.9644 20.252 64.9654 20.252C64.9664 20.252 64.9674 20.252 64.9684 20.252C64.9694 20.252 64.9704 20.252 64.9714 20.252C64.9725 20.252 64.9735 20.252 64.9745 20.252C64.9755 20.252 64.9765 20.252 64.9775 20.252C64.9785 20.252 64.9795 20.252 64.9805 20.252C64.9815 20.252 64.9825 20.252 64.9836 20.252C64.9846 20.252 64.9856 20.252 64.9866 20.252C64.9876 20.252 64.9886 20.252 64.9896 20.252C64.9906 20.252 64.9917 20.252 64.9927 20.252C64.9937 20.252 64.9947 20.252 64.9957 20.252C64.9967 20.252 64.9977 20.252 64.9988 20.252C64.9998 20.252 65.0008 20.252 65.0018 20.252C65.0028 20.252 65.0038 20.252 65.0048 20.252C65.0059 20.252 65.0069 20.252 65.0079 20.252C65.0089 20.252 65.0099 20.252 65.0109 20.252C65.012 20.252 65.013 20.252 65.014 20.252C65.015 20.252 65.016 20.252 65.0171 20.252C65.0181 20.252 65.0191 20.252 65.0201 20.252C65.0211 20.252 65.0222 20.252 65.0232 20.252C65.0242 20.252 65.0252 20.252 65.0262 20.252C65.0273 20.252 65.0283 20.252 65.0293 20.252C65.0303 20.252 65.0313 20.252 65.0324 20.252C65.0334 20.252 65.0344 20.252 65.0354 20.252C65.0365 20.252 65.0375 20.252 65.0385 20.252C65.0395 20.252 65.0406 20.252 65.0416 20.252C65.0426 20.252 65.0436 20.252 65.0447 20.252C65.0457 20.252 65.0467 20.252 65.0477 20.252C65.0488 20.252 65.0498 20.252 65.0508 20.252C65.0518 20.252 65.0529 20.252 65.0539 20.252C65.0549 20.252 65.0559 20.252 65.057 20.252C65.058 20.252 65.059 20.252 65.0601 20.252C65.0611 20.252 65.0621 20.252 65.0631 20.252C65.0642 20.252 65.0652 20.252 65.0662 20.252C65.0673 20.252 65.0683 20.252 65.0693 20.252C65.0704 20.252 65.0714 20.252 65.0724 20.252C65.0734 20.252 65.0745 20.252 65.0755 20.252C65.0765 20.252 65.0776 20.252 65.0786 20.252C65.0796 20.252 65.0807 20.252 65.0817 20.252C65.0827 20.252 65.0838 20.252 65.0848 20.252C65.0858 20.252 65.0869 20.252 65.0879 20.252C65.0889 20.252 65.09 20.252 65.091 20.252C65.0921 20.252 65.0931 20.252 65.0941 20.252C65.0952 20.252 65.0962 20.252 65.0972 20.252C65.0983 20.252 65.0993 20.252 65.1003 20.252C65.1014 20.252 65.1024 20.252 65.1035 20.252C65.1045 20.252 65.1055 20.252 65.1066 20.252C65.1076 20.252 65.1087 20.252 65.1097 20.252C65.1107 20.252 65.1118 20.252 65.1128 20.252C65.1139 20.252 65.1149 20.252 65.1159 20.252C65.117 20.252 65.118 20.252 65.1191 20.252C65.1201 20.252 65.1211 20.252 65.1222 20.252C65.1232 20.252 65.1243 20.252 65.1253 20.252C65.1264 20.252 65.1274 20.252 65.1284 20.252C65.1295 20.252 65.1305 20.252 65.1316 20.252C65.1326 20.252 65.1337 20.252 65.1347 20.252C65.1358 20.252 65.1368 20.252 65.1378 20.252C65.1389 20.252 65.1399 20.252 65.141 20.252C65.142 20.252 65.1431 20.252 65.1441 20.252C65.1452 20.252 65.1462 20.252 65.1473 20.252C65.1483 20.252 65.1494 20.252 65.1504 20.252C65.1515 20.252 65.1525 20.252 65.1536 20.252C65.1546 20.252 65.1557 20.252 65.1567 20.252C65.1578 20.252 65.1588 20.252 65.1599 20.252C65.1609 20.252 65.162 20.252 65.163 20.252C65.1641 20.252 65.1651 20.252 65.1662 20.252C65.1672 20.252 65.1683 20.252 65.1693 20.252C65.1704 20.252 65.1714 20.252 65.1725 20.252C65.1735 20.252 65.1746 20.252 65.1757 20.252C65.1767 20.252 65.1778 20.252 65.1788 20.252C65.1799 20.252 65.1809 20.252 65.182 20.252C65.183 20.252 65.1841 20.252 65.1852 20.252C65.1862 20.252 65.1873 20.252 65.1883 20.252C65.1894 20.252 65.1904 20.252 65.1915 20.252C65.1926 20.252 65.1936 20.252 65.1947 20.252C65.1957 20.252 65.1968 20.252 65.1978 20.252C65.1989 20.252 65.2 20.252 65.201 20.252C65.2021 20.252 65.2031 20.252 65.2042 20.252C65.2053 20.252 65.2063 20.252 65.2074 20.252C65.2084 20.252 65.2095 20.252 65.2106 20.252C65.2116 20.252 65.2127 20.252 65.2138 20.252V19.252C65.2127 19.252 65.2116 19.252 65.2106 19.252C65.2095 19.252 65.2084 19.252 65.2074 19.252C65.2063 19.252 65.2053 19.252 65.2042 19.252C65.2031 19.252 65.2021 19.252 65.201 19.252C65.2 19.252 65.1989 19.252 65.1978 19.252C65.1968 19.252 65.1957 19.252 65.1947 19.252C65.1936 19.252 65.1926 19.252 65.1915 19.252C65.1904 19.252 65.1894 19.252 65.1883 19.252C65.1873 19.252 65.1862 19.252 65.1852 19.252C65.1841 19.252 65.183 19.252 65.182 19.252C65.1809 19.252 65.1799 19.252 65.1788 19.252C65.1778 19.252 65.1767 19.252 65.1757 19.252C65.1746 19.252 65.1735 19.252 65.1725 19.252C65.1714 19.252 65.1704 19.252 65.1693 19.252C65.1683 19.252 65.1672 19.252 65.1662 19.252C65.1651 19.252 65.1641 19.252 65.163 19.252C65.162 19.252 65.1609 19.252 65.1599 19.252C65.1588 19.252 65.1578 19.252 65.1567 19.252C65.1557 19.252 65.1546 19.252 65.1536 19.252C65.1525 19.252 65.1515 19.252 65.1504 19.252C65.1494 19.252 65.1483 19.252 65.1473 19.252C65.1462 19.252 65.1452 19.252 65.1441 19.252C65.1431 19.252 65.142 19.252 65.141 19.252C65.1399 19.252 65.1389 19.252 65.1378 19.252C65.1368 19.252 65.1358 19.252 65.1347 19.252C65.1337 19.252 65.1326 19.252 65.1316 19.252C65.1305 19.252 65.1295 19.252 65.1284 19.252C65.1274 19.252 65.1264 19.252 65.1253 19.252C65.1243 19.252 65.1232 19.252 65.1222 19.252C65.1211 19.252 65.1201 19.252 65.1191 19.252C65.118 19.252 65.117 19.252 65.1159 19.252C65.1149 19.252 65.1139 19.252 65.1128 19.252C65.1118 19.252 65.1107 19.252 65.1097 19.252C65.1087 19.252 65.1076 19.252 65.1066 19.252C65.1055 19.252 65.1045 19.252 65.1035 19.252C65.1024 19.252 65.1014 19.252 65.1003 19.252C65.0993 19.252 65.0983 19.252 65.0972 19.252C65.0962 19.252 65.0952 19.252 65.0941 19.252C65.0931 19.252 65.0921 19.252 65.091 19.252C65.09 19.252 65.0889 19.252 65.0879 19.252C65.0869 19.252 65.0858 19.252 65.0848 19.252C65.0838 19.252 65.0827 19.252 65.0817 19.252C65.0807 19.252 65.0796 19.252 65.0786 19.252C65.0776 19.252 65.0765 19.252 65.0755 19.252C65.0745 19.252 65.0734 19.252 65.0724 19.252C65.0714 19.252 65.0704 19.252 65.0693 19.252C65.0683 19.252 65.0673 19.252 65.0662 19.252C65.0652 19.252 65.0642 19.252 65.0631 19.252C65.0621 19.252 65.0611 19.252 65.0601 19.252C65.059 19.252 65.058 19.252 65.057 19.252C65.0559 19.252 65.0549 19.252 65.0539 19.252C65.0529 19.252 65.0518 19.252 65.0508 19.252C65.0498 19.252 65.0488 19.252 65.0477 19.252C65.0467 19.252 65.0457 19.252 65.0447 19.252C65.0436 19.252 65.0426 19.252 65.0416 19.252C65.0406 19.252 65.0395 19.252 65.0385 19.252C65.0375 19.252 65.0365 19.252 65.0354 19.252C65.0344 19.252 65.0334 19.252 65.0324 19.252C65.0313 19.252 65.0303 19.252 65.0293 19.252C65.0283 19.252 65.0273 19.252 65.0262 19.252C65.0252 19.252 65.0242 19.252 65.0232 19.252C65.0222 19.252 65.0211 19.252 65.0201 19.252C65.0191 19.252 65.0181 19.252 65.0171 19.252C65.016 19.252 65.015 19.252 65.014 19.252C65.013 19.252 65.012 19.252 65.0109 19.252C65.0099 19.252 65.0089 19.252 65.0079 19.252C65.0069 19.252 65.0059 19.252 65.0048 19.252C65.0038 19.252 65.0028 19.252 65.0018 19.252C65.0008 19.252 64.9998 19.252 64.9988 19.252C64.9977 19.252 64.9967 19.252 64.9957 19.252C64.9947 19.252 64.9937 19.252 64.9927 19.252C64.9917 19.252 64.9906 19.252 64.9896 19.252C64.9886 19.252 64.9876 19.252 64.9866 19.252C64.9856 19.252 64.9846 19.252 64.9836 19.252C64.9825 19.252 64.9815 19.252 64.9805 19.252C64.9795 19.252 64.9785 19.252 64.9775 19.252C64.9765 19.252 64.9755 19.252 64.9745 19.252C64.9735 19.252 64.9725 19.252 64.9714 19.252C64.9704 19.252 64.9694 19.252 64.9684 19.252C64.9674 19.252 64.9664 19.252 64.9654 19.252C64.9644 19.252 64.9634 19.252 64.9624 19.252C64.9614 19.252 64.9604 19.252 64.9594 19.252C64.9584 19.252 64.9573 19.252 64.9563 19.252C64.9553 19.252 64.9543 19.252 64.9533 19.252C64.9523 19.252 64.9513 19.252 64.9503 19.252C64.9493 19.252 64.9483 19.252 64.9473 19.252C64.9463 19.252 64.9453 19.252 64.9443 19.252C64.9433 19.252 64.9423 19.252 64.9413 19.252C64.9403 19.252 64.9393 19.252 64.9383 19.252C64.9373 19.252 64.9363 19.252 64.9353 19.252C64.9343 19.252 64.9333 19.252 64.9323 19.252C64.9313 19.252 64.9303 19.252 64.9293 19.252C64.9283 19.252 64.9273 19.252 64.9263 19.252C64.9253 19.252 64.9243 19.252 64.9233 19.252C64.9223 19.252 64.9213 19.252 64.9203 19.252C64.9193 19.252 64.9183 19.252 64.9173 19.252C64.9163 19.252 64.9153 19.252 64.9143 19.252C64.9133 19.252 64.9123 19.252 64.9113 19.252C64.9103 19.252 64.9094 19.252 64.9084 19.252C64.9074 19.252 64.9064 19.252 64.9054 19.252C64.9044 19.252 64.9034 19.252 64.9024 19.252C64.9014 19.252 64.9004 19.252 64.8994 19.252C64.8984 19.252 64.8974 19.252 64.8964 19.252C64.8955 19.252 64.8945 19.252 64.8935 19.252C64.8925 19.252 64.8915 19.252 64.8905 19.252C64.8895 19.252 64.8885 19.252 64.8875 19.252C64.8865 19.252 64.8856 19.252 64.8846 19.252C64.8836 19.252 64.8826 19.252 64.8816 19.252C64.8806 19.252 64.8796 19.252 64.8786 19.252C64.8777 19.252 64.8767 19.252 64.8757 19.252C64.8747 19.252 64.8737 19.252 64.8727 19.252C64.8717 19.252 64.8708 19.252 64.8698 19.252C64.8688 19.252 64.8678 19.252 64.8668 19.252C64.8658 19.252 64.8648 19.252 64.8639 19.252C64.8629 19.252 64.8619 19.252 64.8609 19.252C64.8599 19.252 64.8589 19.252 64.858 19.252C64.857 19.252 64.856 19.252 64.855 19.252C64.854 19.252 64.8531 19.252 64.8521 19.252C64.8511 19.252 64.8501 19.252 64.8491 19.252C64.8482 19.252 64.8472 19.252 64.8462 19.252C64.8452 19.252 64.8442 19.252 64.8433 19.252C64.8423 19.252 64.8413 19.252 64.8403 19.252C64.8393 19.252 64.8384 19.252 64.8374 19.252C64.8364 19.252 64.8354 19.252 64.8345 19.252C64.8335 19.252 64.8325 19.252 64.8315 19.252C64.8306 19.252 64.8296 19.252 64.8286 19.252C64.8276 19.252 64.8267 19.252 64.8257 19.252C64.8247 19.252 64.8237 19.252 64.8228 19.252C64.8218 19.252 64.8208 19.252 64.8198 19.252C64.8189 19.252 64.8179 19.252 64.8169 19.252C64.8159 19.252 64.815 19.252 64.814 19.252C64.813 19.252 64.812 19.252 64.8111 19.252C64.8101 19.252 64.8091 19.252 64.8082 19.252C64.8072 19.252 64.8062 19.252 64.8053 19.252C64.8043 19.252 64.8033 19.252 64.8024 19.252C64.8014 19.252 64.8004 19.252 64.7994 19.252C64.7985 19.252 64.7975 19.252 64.7965 19.252C64.7956 19.252 64.7946 19.252 64.7936 19.252C64.7927 19.252 64.7917 19.252 64.7907 19.252C64.7898 19.252 64.7888 19.252 64.7878 19.252C64.7869 19.252 64.7859 19.252 64.7849 19.252C64.784 19.252 64.783 19.252 64.7821 19.252C64.7811 19.252 64.7801 19.252 64.7792 19.252C64.7782 19.252 64.7772 19.252 64.7763 19.252C64.7753 19.252 64.7743 19.252 64.7734 19.252C64.7724 19.252 64.7715 19.252 64.7705 19.252C64.7695 19.252 64.7686 19.252 64.7676 19.252C64.7666 19.252 64.7657 19.252 64.7647 19.252C64.7638 19.252 64.7628 19.252 64.7618 19.252C64.7609 19.252 64.7599 19.252 64.759 19.252C64.758 19.252 64.7571 19.252 64.7561 19.252C64.7551 19.252 64.7542 19.252 64.7532 19.252C64.7523 19.252 64.7513 19.252 64.7504 19.252C64.7494 19.252 64.7484 19.252 64.7475 19.252C64.7465 19.252 64.7456 19.252 64.7446 19.252C64.7437 19.252 64.7427 19.252 64.7418 19.252C64.7408 19.252 64.7398 19.252 64.7389 19.252C64.7379 19.252 64.737 19.252 64.736 19.252C64.7351 19.252 64.7341 19.252 64.7332 19.252C64.7322 19.252 64.7313 19.252 64.7303 19.252C64.7294 19.252 64.7284 19.252 64.7275 19.252C64.7265 19.252 64.7256 19.252 64.7246 19.252C64.7237 19.252 64.7227 19.252 64.7218 19.252C64.7208 19.252 64.7199 19.252 64.7189 19.252C64.718 19.252 64.717 19.252 64.7161 19.252C64.7151 19.252 64.7142 19.252 64.7132 19.252C64.7123 19.252 64.7113 19.252 64.7104 19.252C64.7094 19.252 64.7085 19.252 64.7075 19.252C64.7066 19.252 64.7056 19.252 64.7047 19.252C64.7038 19.252 64.7028 19.252 64.7019 19.252C64.7009 19.252 64.7 19.252 64.699 19.252C64.6981 19.252 64.6971 19.252 64.6962 19.252C64.6953 19.252 64.6943 19.252 64.6934 19.252C64.6924 19.252 64.6915 19.252 64.6905 19.252C64.6896 19.252 64.6887 19.252 64.6877 19.252C64.6868 19.252 64.6858 19.252 64.6849 19.252C64.684 19.252 64.683 19.252 64.6821 19.252C64.6811 19.252 64.6802 19.252 64.6793 19.252C64.6783 19.252 64.6774 19.252 64.6764 19.252C64.6755 19.252 64.6746 19.252 64.6736 19.252C64.6727 19.252 64.6717 19.252 64.6708 19.252C64.6699 19.252 64.6689 19.252 64.668 19.252C64.6671 19.252 64.6661 19.252 64.6652 19.252C64.6643 19.252 64.6633 19.252 64.6624 19.252C64.6614 19.252 64.6605 19.252 64.6596 19.252C64.6586 19.252 64.6577 19.252 64.6568 19.252C64.6558 19.252 64.6549 19.252 64.654 19.252C64.653 19.252 64.6521 19.252 64.6512 19.252C64.6502 19.252 64.6493 19.252 64.6484 19.252C64.6474 19.252 64.6465 19.252 64.6456 19.252C64.6447 19.252 64.6437 19.252 64.6428 19.252C64.6419 19.252 64.6409 19.252 64.64 19.252C64.6391 19.252 64.6381 19.252 64.6372 19.252C64.6363 19.252 64.6354 19.252 64.6344 19.252C64.6335 19.252 64.6326 19.252 64.6316 19.252C64.6307 19.252 64.6298 19.252 64.6289 19.252C64.6279 19.252 64.627 19.252 64.6261 19.252C64.6252 19.252 64.6242 19.252 64.6233 19.252C64.6224 19.252 64.6215 19.252 64.6205 19.252C64.6196 19.252 64.6187 19.252 64.6178 19.252C64.6168 19.252 64.6159 19.252 64.615 19.252C64.6141 19.252 64.6131 19.252 64.6122 19.252C64.6113 19.252 64.6104 19.252 64.6095 19.252C64.6085 19.252 64.6076 19.252 64.6067 19.252C64.6058 19.252 64.6048 19.252 64.6039 19.252C64.603 19.252 64.6021 19.252 64.6012 19.252C64.6002 19.252 64.5993 19.252 64.5984 19.252C64.5975 19.252 64.5966 19.252 64.5956 19.252C64.5947 19.252 64.5938 19.252 64.5929 19.252C64.592 19.252 64.591 19.252 64.5901 19.252C64.5892 19.252 64.5883 19.252 64.5874 19.252C64.5865 19.252 64.5855 19.252 64.5846 19.252C64.5837 19.252 64.5828 19.252 64.5819 19.252C64.581 19.252 64.5801 19.252 64.5791 19.252C64.5782 19.252 64.5773 19.252 64.5764 19.252C64.5755 19.252 64.5746 19.252 64.5737 19.252C64.5727 19.252 64.5718 19.252 64.5709 19.252C64.57 19.252 64.5691 19.252 64.5682 19.252C64.5673 19.252 64.5664 19.252 64.5655 19.252C64.5645 19.252 64.5636 19.252 64.5627 19.252C64.5618 19.252 64.5609 19.252 64.56 19.252C64.5591 19.252 64.5582 19.252 64.5573 19.252C64.5564 19.252 64.5555 19.252 64.5545 19.252C64.5536 19.252 64.5527 19.252 64.5518 19.252C64.5509 19.252 64.55 19.252 64.5491 19.252C64.5482 19.252 64.5473 19.252 64.5464 19.252C64.5455 19.252 64.5446 19.252 64.5437 19.252C64.5427 19.252 64.5418 19.252 64.5409 19.252C64.54 19.252 64.5391 19.252 64.5382 19.252C64.5373 19.252 64.5364 19.252 64.5355 19.252C64.5346 19.252 64.5337 19.252 64.5328 19.252C64.5319 19.252 64.531 19.252 64.5301 19.252C64.5292 19.252 64.5283 19.252 64.5274 19.252C64.5265 19.252 64.5256 19.252 64.5247 19.252C64.5238 19.252 64.5229 19.252 64.522 19.252C64.5211 19.252 64.5202 19.252 64.5193 19.252C64.5184 19.252 64.5175 19.252 64.5166 19.252C64.5157 19.252 64.5148 19.252 64.5139 19.252C64.513 19.252 64.5121 19.252 64.5112 19.252C64.5103 19.252 64.5094 19.252 64.5085 19.252C64.5076 19.252 64.5067 19.252 64.5058 19.252C64.5049 19.252 64.504 19.252 64.5031 19.252C64.5023 19.252 64.5014 19.252 64.5005 19.252C64.4996 19.252 64.4987 19.252 64.4978 19.252C64.4969 19.252 64.496 19.252 64.4951 19.252C64.4942 19.252 64.4933 19.252 64.4924 19.252C64.4915 19.252 64.4906 19.252 64.4897 19.252C64.4889 19.252 64.488 19.252 64.4871 19.252C64.4862 19.252 64.4853 19.252 64.4844 19.252C64.4835 19.252 64.4826 19.252 64.4817 19.252C64.4808 19.252 64.4799 19.252 64.4791 19.252C64.4782 19.252 64.4773 19.252 64.4764 19.252C64.4755 19.252 64.4746 19.252 64.4737 19.252C64.4728 19.252 64.472 19.252 64.4711 19.252C64.4702 19.252 64.4693 19.252 64.4684 19.252C64.4675 19.252 64.4666 19.252 64.4658 19.252C64.4649 19.252 64.464 19.252 64.4631 19.252C64.4622 19.252 64.4613 19.252 64.4604 19.252C64.4596 19.252 64.4587 19.252 64.4578 19.252C64.4569 19.252 64.456 19.252 64.4551 19.252C64.4543 19.252 64.4534 19.252 64.4525 19.252C64.4516 19.252 64.4507 19.252 64.4499 19.252C64.449 19.252 64.4481 19.252 64.4472 19.252C64.4463 19.252 64.4454 19.252 64.4446 19.252C64.4437 19.252 64.4428 19.252 64.4419 19.252C64.441 19.252 64.4402 19.252 64.4393 19.252C64.4384 19.252 64.4375 19.252 64.4367 19.252C64.4358 19.252 64.4349 19.252 64.434 19.252C64.4332 19.252 64.4323 19.252 64.4314 19.252C64.4305 19.252 64.4296 19.252 64.4288 19.252C64.4279 19.252 64.427 19.252 64.4261 19.252C64.4253 19.252 64.4244 19.252 64.4235 19.252C64.4226 19.252 64.4218 19.252 64.4209 19.252C64.42 19.252 64.4192 19.252 64.4183 19.252C64.4174 19.252 64.4165 19.252 64.4157 19.252C64.4148 19.252 64.4139 19.252 64.413 19.252C64.4122 19.252 64.4113 19.252 64.4104 19.252C64.4096 19.252 64.4087 19.252 64.4078 19.252C64.4069 19.252 64.4061 19.252 64.4052 19.252C64.4043 19.252 64.4035 19.252 64.4026 19.252C64.4017 19.252 64.4009 19.252 64.4 19.252C64.3991 19.252 64.3983 19.252 64.3974 19.252C64.3965 19.252 64.3957 19.252 64.3948 19.252C64.3939 19.252 64.3931 19.252 64.3922 19.252C64.3913 19.252 64.3905 19.252 64.3896 19.252C64.3887 19.252 64.3879 19.252 64.387 19.252C64.3861 19.252 64.3853 19.252 64.3844 19.252C64.3835 19.252 64.3827 19.252 64.3818 19.252C64.381 19.252 64.3801 19.252 64.3792 19.252C64.3784 19.252 64.3775 19.252 64.3766 19.252C64.3758 19.252 64.3749 19.252 64.3741 19.252C64.3732 19.252 64.3723 19.252 64.3715 19.252C64.3706 19.252 64.3698 19.252 64.3689 19.252C64.368 19.252 64.3672 19.252 64.3663 19.252C64.3655 19.252 64.3646 19.252 64.3637 19.252C64.3629 19.252 64.362 19.252 64.3612 19.252C64.3603 19.252 64.3595 19.252 64.3586 19.252C64.3577 19.252 64.3569 19.252 64.356 19.252C64.3552 19.252 64.3543 19.252 64.3535 19.252C64.3526 19.252 64.3517 19.252 64.3509 19.252C64.35 19.252 64.3492 19.252 64.3483 19.252C64.3475 19.252 64.3466 19.252 64.3458 19.252C64.3449 19.252 64.3441 19.252 64.3432 19.252C64.3423 19.252 64.3415 19.252 64.3406 19.252C64.3398 19.252 64.3389 19.252 64.3381 19.252C64.3372 19.252 64.3364 19.252 64.3355 19.252C64.3347 19.252 64.3338 19.252 64.333 19.252C64.3321 19.252 64.3313 19.252 64.3304 19.252C64.3296 19.252 64.3287 19.252 64.3279 19.252C64.327 19.252 64.3262 19.252 64.3253 19.252C64.3245 19.252 64.3236 19.252 64.3228 19.252C64.322 19.252 64.3211 19.252 64.3203 19.252C64.3194 19.252 64.3186 19.252 64.3177 19.252C64.3169 19.252 64.316 19.252 64.3152 19.252C64.3143 19.252 64.3135 19.252 64.3126 19.252C64.3118 19.252 64.311 19.252 64.3101 19.252C64.3093 19.252 64.3084 19.252 64.3076 19.252C64.3067 19.252 64.3059 19.252 64.3051 19.252C64.3042 19.252 64.3034 19.252 64.3025 19.252C64.3017 19.252 64.3008 19.252 64.3 19.252C64.2992 19.252 64.2983 19.252 64.2975 19.252C64.2966 19.252 64.2958 19.252 64.295 19.252C64.2941 19.252 64.2933 19.252 64.2924 19.252C64.2916 19.252 64.2908 19.252 64.2899 19.252C64.2891 19.252 64.2882 19.252 64.2874 19.252C64.2866 19.252 64.2857 19.252 64.2849 19.252C64.2841 19.252 64.2832 19.252 64.2824 19.252C64.2816 19.252 64.2807 19.252 64.2799 19.252C64.279 19.252 64.2782 19.252 64.2774 19.252C64.2765 19.252 64.2757 19.252 64.2749 19.252C64.274 19.252 64.2732 19.252 64.2724 19.252C64.2715 19.252 64.2707 19.252 64.2699 19.252C64.269 19.252 64.2682 19.252 64.2674 19.252C64.2665 19.252 64.2657 19.252 64.2649 19.252C64.264 19.252 64.2632 19.252 64.2624 19.252C64.2616 19.252 64.2607 19.252 64.2599 19.252C64.2591 19.252 64.2582 19.252 64.2574 19.252C64.2566 19.252 64.2557 19.252 64.2549 19.252C64.2541 19.252 64.2533 19.252 64.2524 19.252C64.2516 19.252 64.2508 19.252 64.2499 19.252C64.2491 19.252 64.2483 19.252 64.2475 19.252C64.2466 19.252 64.2458 19.252 64.245 19.252C64.2442 19.252 64.2433 19.252 64.2425 19.252C64.2417 19.252 64.2409 19.252 64.24 19.252C64.2392 19.252 64.2384 19.252 64.2376 19.252C64.2367 19.252 64.2359 19.252 64.2351 19.252C64.2343 19.252 64.2335 19.252 64.2326 19.252C64.2318 19.252 64.231 19.252 64.2302 19.252C64.2293 19.252 64.2285 19.252 64.2277 19.252C64.2269 19.252 64.2261 19.252 64.2252 19.252C64.2244 19.252 64.2236 19.252 64.2228 19.252C64.222 19.252 64.2211 19.252 64.2203 19.252C64.2195 19.252 64.2187 19.252 64.2179 19.252C64.217 19.252 64.2162 19.252 64.2154 19.252C64.2146 19.252 64.2138 19.252 64.213 19.252C64.2121 19.252 64.2113 19.252 64.2105 19.252C64.2097 19.252 64.2089 19.252 64.2081 19.252C64.2072 19.252 64.2064 19.252 64.2056 19.252C64.2048 19.252 64.204 19.252 64.2032 19.252C64.2024 19.252 64.2015 19.252 64.2007 19.252C64.1999 19.252 64.1991 19.252 64.1983 19.252C64.1975 19.252 64.1967 19.252 64.1958 19.252C64.195 19.252 64.1942 19.252 64.1934 19.252C64.1926 19.252 64.1918 19.252 64.191 19.252C64.1902 19.252 64.1894 19.252 64.1886 19.252C64.1877 19.252 64.1869 19.252 64.1861 19.252C64.1853 19.252 64.1845 19.252 64.1837 19.252C64.1829 19.252 64.1821 19.252 64.1813 19.252C64.1805 19.252 64.1796 19.252 64.1788 19.252C64.178 19.252 64.1772 19.252 64.1764 19.252C64.1756 19.252 64.1748 19.252 64.174 19.252C64.1732 19.252 64.1724 19.252 64.1716 19.252C64.1708 19.252 64.17 19.252 64.1692 19.252C64.1684 19.252 64.1676 19.252 64.1668 19.252C64.166 19.252 64.1652 19.252 64.1644 19.252C64.1636 19.252 64.1628 19.252 64.1619 19.252C64.1611 19.252 64.1603 19.252 64.1595 19.252C64.1587 19.252 64.1579 19.252 64.1571 19.252C64.1563 19.252 64.1555 19.252 64.1547 19.252C64.1539 19.252 64.1531 19.252 64.1523 19.252C64.1515 19.252 64.1507 19.252 64.1499 19.252C64.1491 19.252 64.1483 19.252 64.1475 19.252C64.1467 19.252 64.1459 19.252 64.1451 19.252C64.1443 19.252 64.1435 19.252 64.1428 19.252C64.142 19.252 64.1412 19.252 64.1404 19.252C64.1396 19.252 64.1388 19.252 64.138 19.252C64.1372 19.252 64.1364 19.252 64.1356 19.252C64.1348 19.252 64.134 19.252 64.1332 19.252C64.1324 19.252 64.1316 19.252 64.1308 19.252C64.13 19.252 64.1292 19.252 64.1284 19.252C64.1277 19.252 64.1269 19.252 64.1261 19.252C64.1253 19.252 64.1245 19.252 64.1237 19.252C64.1229 19.252 64.1221 19.252 64.1213 19.252C64.1205 19.252 64.1197 19.252 64.1189 19.252C64.1182 19.252 64.1174 19.252 64.1166 19.252C64.1158 19.252 64.115 19.252 64.1142 19.252C64.1134 19.252 64.1126 19.252 64.1118 19.252C64.1111 19.252 64.1103 19.252 64.1095 19.252C64.1087 19.252 64.1079 19.252 64.1071 19.252C64.1063 19.252 64.1056 19.252 64.1048 19.252C64.104 19.252 64.1032 19.252 64.1024 19.252C64.1016 19.252 64.1008 19.252 64.1001 19.252C64.0993 19.252 64.0985 19.252 64.0977 19.252C64.0969 19.252 64.0961 19.252 64.0954 19.252C64.0946 19.252 64.0938 19.252 64.093 19.252C64.0922 19.252 64.0914 19.252 64.0907 19.252C64.0899 19.252 64.0891 19.252 64.0883 19.252C64.0875 19.252 64.0868 19.252 64.086 19.252C64.0852 19.252 64.0844 19.252 64.0836 19.252C64.0829 19.252 64.0821 19.252 64.0813 19.252C64.0805 19.252 64.0797 19.252 64.079 19.252C64.0782 19.252 64.0774 19.252 64.0766 19.252C64.0759 19.252 64.0751 19.252 64.0743 19.252C64.0735 19.252 64.0727 19.252 64.072 19.252C64.0712 19.252 64.0704 19.252 64.0696 19.252C64.0689 19.252 64.0681 19.252 64.0673 19.252C64.0665 19.252 64.0658 19.252 64.065 19.252C64.0642 19.252 64.0634 19.252 64.0627 19.252C64.0619 19.252 64.0611 19.252 64.0603 19.252C64.0596 19.252 64.0588 19.252 64.058 19.252C64.0573 19.252 64.0565 19.252 64.0557 19.252C64.0549 19.252 64.0542 19.252 64.0534 19.252C64.0526 19.252 64.0519 19.252 64.0511 19.252C64.0503 19.252 64.0496 19.252 64.0488 19.252C64.048 19.252 64.0472 19.252 64.0465 19.252C64.0457 19.252 64.0449 19.252 64.0442 19.252C64.0434 19.252 64.0426 19.252 64.0419 19.252C64.0411 19.252 64.0403 19.252 64.0396 19.252C64.0388 19.252 64.038 19.252 64.0373 19.252C64.0365 19.252 64.0357 19.252 64.035 19.252C64.0342 19.252 64.0334 19.252 64.0327 19.252C64.0319 19.252 64.0312 19.252 64.0304 19.252C64.0296 19.252 64.0289 19.252 64.0281 19.252C64.0273 19.252 64.0266 19.252 64.0258 19.252C64.0251 19.252 64.0243 19.252 64.0235 19.252C64.0228 19.252 64.022 19.252 64.0212 19.252C64.0205 19.252 64.0197 19.252 64.019 19.252C64.0182 19.252 64.0174 19.252 64.0167 19.252C64.0159 19.252 64.0152 19.252 64.0144 19.252C64.0136 19.252 64.0129 19.252 64.0121 19.252C64.0114 19.252 64.0106 19.252 64.0099 19.252C64.0091 19.252 64.0083 19.252 64.0076 19.252C64.0068 19.252 64.0061 19.252 64.0053 19.252C64.0046 19.252 64.0038 19.252 64.0031 19.252C64.0023 19.252 64.0015 19.252 64.0008 19.252C64 19.252 63.9993 19.252 63.9985 19.252C63.9978 19.252 63.997 19.252 63.9963 19.252C63.9955 19.252 63.9948 19.252 63.994 19.252C63.9932 19.252 63.9925 19.252 63.9917 19.252C63.991 19.252 63.9902 19.252 63.9895 19.252C63.9887 19.252 63.988 19.252 63.9872 19.252C63.9865 19.252 63.9857 19.252 63.985 19.252C63.9842 19.252 63.9835 19.252 63.9827 19.252C63.982 19.252 63.9812 19.252 63.9805 19.252C63.9797 19.252 63.979 19.252 63.9782 19.252C63.9775 19.252 63.9768 19.252 63.976 19.252C63.9753 19.252 63.9745 19.252 63.9738 19.252C63.973 19.252 63.9723 19.252 63.9715 19.252C63.9708 19.252 63.97 19.252 63.9693 19.252C63.9685 19.252 63.9678 19.252 63.9671 19.252C63.9663 19.252 63.9656 19.252 63.9648 19.252C63.9641 19.252 63.9633 19.252 63.9626 19.252C63.9619 19.252 63.9611 19.252 63.9604 19.252C63.9596 19.252 63.9589 19.252 63.9581 19.252C63.9574 19.252 63.9567 19.252 63.9559 19.252C63.9552 19.252 63.9544 19.252 63.9537 19.252C63.953 19.252 63.9522 19.252 63.9515 19.252C63.9507 19.252 63.95 19.252 63.9493 19.252C63.9485 19.252 63.9478 19.252 63.947 19.252C63.9463 19.252 63.9456 19.252 63.9448 19.252C63.9441 19.252 63.9434 19.252 63.9426 19.252C63.9419 19.252 63.9411 19.252 63.9404 19.252C63.9397 19.252 63.9389 19.252 63.9382 19.252C63.9375 19.252 63.9367 19.252 63.936 19.252C63.9353 19.252 63.9345 19.252 63.9338 19.252C63.9331 19.252 63.9323 19.252 63.9316 19.252C63.9309 19.252 63.9301 19.252 63.9294 19.252C63.9287 19.252 63.9279 19.252 63.9272 19.252C63.9265 19.252 63.9257 19.252 63.925 19.252C63.9243 19.252 63.9235 19.252 63.9228 19.252C63.9221 19.252 63.9214 19.252 63.9206 19.252C63.9199 19.252 63.9192 19.252 63.9184 19.252C63.9177 19.252 63.917 19.252 63.9163 19.252C63.9155 19.252 63.9148 19.252 63.9141 19.252C63.9133 19.252 63.9126 19.252 63.9119 19.252C63.9112 19.252 63.9104 19.252 63.9097 19.252C63.909 19.252 63.9082 19.252 63.9075 19.252C63.9068 19.252 63.9061 19.252 63.9053 19.252C63.9046 19.252 63.9039 19.252 63.9032 19.252C63.9025 19.252 63.9017 19.252 63.901 19.252C63.9003 19.252 63.8996 19.252 63.8988 19.252C63.8981 19.252 63.8974 19.252 63.8967 19.252C63.8959 19.252 63.8952 19.252 63.8945 19.252C63.8938 19.252 63.8931 19.252 63.8923 19.252C63.8916 19.252 63.8909 19.252 63.8902 19.252C63.8895 19.252 63.8887 19.252 63.888 19.252C63.8873 19.252 63.8866 19.252 63.8859 19.252C63.8851 19.252 63.8844 19.252 63.8837 19.252C63.883 19.252 63.8823 19.252 63.8816 19.252C63.8808 19.252 63.8801 19.252 63.8794 19.252C63.8787 19.252 63.878 19.252 63.8773 19.252C63.8765 19.252 63.8758 19.252 63.8751 19.252C63.8744 19.252 63.8737 19.252 63.873 19.252C63.8722 19.252 63.8715 19.252 63.8708 19.252C63.8701 19.252 63.8694 19.252 63.8687 19.252C63.868 19.252 63.8673 19.252 63.8665 19.252C63.8658 19.252 63.8651 19.252 63.8644 19.252C63.8637 19.252 63.863 19.252 63.8623 19.252C63.8616 19.252 63.8608 19.252 63.8601 19.252C63.8594 19.252 63.8587 19.252 63.858 19.252C63.8573 19.252 63.8566 19.252 63.8559 19.252C63.8552 19.252 63.8545 19.252 63.8538 19.252V20.252ZM65.2138 20.252C66.9471 20.252 68.3236 19.8797 69.2284 19.0281L68.5431 18.2999C67.9066 18.899 66.8351 19.252 65.2138 19.252V20.252ZM69.2284 19.0281C70.1429 18.1675 70.5418 16.8241 70.5418 15.128H69.5418C69.5418 16.6959 69.17 17.7099 68.5431 18.2999L69.2284 19.0281ZM70.5418 15.128C70.5418 13.6717 70.1262 12.4808 69.2284 11.6359L68.5431 12.3641C69.1867 12.9698 69.5418 13.8643 69.5418 15.128H70.5418ZM69.2499 11.6573C68.4081 10.7629 67.2426 10.344 65.8258 10.344V11.344C67.0382 11.344 67.9128 11.6957 68.5217 12.3427L69.2499 11.6573ZM65.8258 10.344C64.3091 10.344 62.9894 10.8123 61.8949 11.7576L62.5486 12.5144C63.4487 11.737 64.5318 11.344 65.8258 11.344V10.344ZM61.8964 11.7564C60.7861 12.7081 60.229 14.4017 60.0907 16.6614L61.0888 16.7226C61.2225 14.5396 61.7534 13.1959 62.5471 12.5156L61.8964 11.7564ZM60.743 16.2161L48.707 12.3401L48.4005 13.2919L60.4365 17.1679L60.743 16.2161ZM49.0494 12.8821C49.4 10.2525 50.3812 8.08482 51.9808 6.35552L51.2467 5.67648C49.4916 7.57384 48.4329 9.93954 48.0581 12.7499L49.0494 12.8821ZM51.9763 6.36037C53.641 4.60806 55.7272 3.26538 58.2466 2.33717L57.9009 1.39883C55.2523 2.37462 53.0319 3.79727 51.2513 5.67163L51.9763 6.36037ZM58.244 2.33813C60.8119 1.40836 63.6547 0.939999 66.7778 0.939999V-0.0600014C63.5541 -0.0600014 60.5943 0.423633 57.9035 1.39786L58.244 2.33813ZM66.7778 0.939999C70.316 0.939999 73.2622 1.43311 75.6331 2.39905L76.0104 1.47295C73.4853 0.444223 70.4022 -0.0600014 66.7778 -0.0600014V0.939999ZM75.6361 2.40024C78.0554 3.36795 79.8496 4.74001 81.0529 6.50198L81.8787 5.93802C80.5433 3.98265 78.5748 2.49871 76.0074 1.47176L75.6361 2.40024ZM81.0575 6.50873C82.3026 8.26896 82.9378 10.4302 82.9378 13.02H83.9378C83.9378 10.2605 83.2583 7.88837 81.874 5.93126L81.0575 6.50873ZM82.9378 13.02C82.9378 15.0087 82.6057 16.6003 81.9736 17.8223L82.8619 18.2817C83.5898 16.8743 83.9378 15.1113 83.9378 13.02H82.9378ZM81.9675 17.8346C81.3612 19.0905 80.591 20.0681 79.664 20.7844L80.2755 21.5756C81.3432 20.7506 82.205 19.6428 82.868 18.2694L81.9675 17.8346ZM79.664 20.7844C78.6933 21.5345 77.7814 22.0744 76.9281 22.4158L77.2994 23.3442C78.2595 22.9602 79.2515 22.3669 80.2755 21.5756L79.664 20.7844ZM76.9486 22.4081C76.0553 22.7207 75.4176 22.856 75.0058 22.856V23.856C75.5912 23.856 76.3589 23.6739 77.2789 23.3519L76.9486 22.4081ZM74.5058 23.356V23.628H75.5058V23.356H74.5058ZM75.0058 24.128C75.493 24.128 76.2201 24.2313 77.2069 24.4556L77.4286 23.4804C76.4207 23.2514 75.6065 23.128 75.0058 23.128V24.128ZM77.2115 24.4566C78.1927 24.6699 79.1839 25.0772 80.1858 25.6871L80.7057 24.8329C79.6223 24.1734 78.5281 23.7195 77.424 23.4794L77.2115 24.4566ZM80.1938 25.6919C81.1946 26.2757 82.0428 27.1586 82.7316 28.3641L83.5999 27.8679C82.8381 26.5348 81.8729 25.5137 80.6977 24.8281L80.1938 25.6919ZM82.7426 28.3824C83.4465 29.5003 83.8218 31.0293 83.8218 33.012H84.8218C84.8218 30.9147 84.4264 29.1797 83.5889 27.8496L82.7426 28.3824ZM83.8218 33.012C83.8218 35.7252 83.08 38.0668 81.6077 40.0588L82.4118 40.6532C84.0222 38.4745 84.8218 35.9202 84.8218 33.012H83.8218ZM81.6108 40.0546C80.1291 42.0157 78.1191 43.5281 75.5626 44.586L75.9449 45.51C78.6471 44.3919 80.8077 42.7763 82.4087 40.6574L81.6108 40.0546ZM75.5626 44.586C73.0021 45.6455 70.1217 46.18 66.9137 46.18V47.18C70.2338 47.18 73.2467 46.6265 75.9449 45.51L75.5626 44.586Z" fill="#2EB7FF"/>
</svg>
