<svg width="211" height="221" viewBox="0 0 211 221" fill="none" xmlns="http://www.w3.org/2000/svg">
<g clip-path="url(#clip0_234_204)">
<path d="M121.871 8.16377C122.452 8.59317 121.366 7.75998 121.894 8.20554L122.214 8.46574C122.483 8.68556 122.742 8.91129 123.001 9.13702C123.516 9.59666 124.008 10.0763 124.498 10.5641C124.988 11.0519 125.432 11.5798 125.862 12.1083C126.068 12.2935 126.241 12.5126 126.373 12.7561L126.142 12.4457L126.385 12.777L126.733 13.2695C127.513 14.4075 128.212 15.5985 128.826 16.8337C129.09 17.3735 129.346 17.9594 129.598 18.5266C129.888 19.1967 129.35 17.8679 129.598 18.5266L129.747 18.9112C129.881 19.2696 130.001 19.6287 130.122 19.9879C130.55 21.2783 130.891 22.5962 131.141 23.9326C131.205 24.2759 131.265 24.6139 131.312 24.9527L131.384 25.4701C131.411 25.6756 131.403 26.1488 131.36 25.4283C131.369 26.1129 131.49 26.8024 131.515 27.4916C131.572 28.8688 131.527 30.2484 131.383 31.6193C131.364 31.8298 131.294 32.9375 131.337 32.0864C131.302 32.3973 131.246 32.7053 131.169 33.0084C131.042 33.7215 130.882 34.4256 130.692 35.1258C130.502 35.826 130.35 36.312 130.149 36.8946C130.036 37.2201 129.919 37.5485 129.79 37.8694C129.759 37.8872 129.49 38.5565 129.702 38.0916C129.915 37.6266 129.555 38.4162 129.519 38.4986C128.944 39.7436 128.27 40.9408 127.505 42.0787C127.327 42.3377 127.145 42.5997 126.959 42.8564C126.922 42.8771 126.531 43.4641 126.816 43.0545C127.101 42.6449 126.695 43.2058 126.667 43.2422C126.225 43.7889 125.761 44.3206 125.284 44.8314C124.331 45.8498 123.305 46.7971 122.214 47.6655C122.161 47.695 121.608 48.1185 122.033 47.8091C122.458 47.4998 121.881 47.8949 121.829 47.9244C121.575 48.1094 121.339 48.2774 121.048 48.4697C120.436 48.8855 119.808 49.2752 119.163 49.647C118.61 49.9603 118.056 50.2736 117.476 50.5399C117.173 50.7114 116.845 50.8492 116.519 50.9923C116.369 51.0771 116.209 51.1471 116.038 51.2025C115.818 51.3267 115.233 51.7061 115.907 51.2764C115.338 51.5633 114.735 51.7794 114.113 51.9197C113.407 52.1469 112.692 52.345 111.97 52.5192C111.248 52.6935 110.656 52.8288 110.022 52.926C109.675 52.9842 109.326 53.0371 108.979 53.0819C108.808 53.1095 108.454 53.2138 109.123 53.0691C108.909 53.1084 108.692 53.1322 108.474 53.1402C107.075 53.2639 105.668 53.2791 104.266 53.1855C103.916 53.1632 103.552 53.1417 103.213 53.092L102.792 53.0413C102.063 52.9714 103.434 53.1532 102.719 53.0343C102.003 52.9154 101.33 52.7863 100.642 52.6176C99.9534 52.449 99.3833 52.2823 98.765 52.0671C98.4752 51.9692 98.1876 51.8632 97.8971 51.7519C97.8764 51.7154 97.2256 51.4427 97.6749 51.664L97.2783 51.4749C96.0538 50.9047 94.8817 50.228 93.7756 49.4528C93.5089 49.2908 93.2567 49.106 93.0218 48.9007C93.5746 49.4632 93.1308 48.9838 92.9952 48.8537L92.6755 48.5935C92.1223 48.1278 91.5915 47.6287 91.0869 47.1147C90.5822 46.6008 90.1919 46.167 89.7794 45.6698L89.521 45.3473C89.0627 44.7934 89.9272 45.9308 89.521 45.3473L88.9463 44.5147C88.5761 43.9581 88.2362 43.382 87.928 42.7888L87.5348 41.9844L87.3372 41.5379C87.0467 40.9028 87.5733 42.2108 87.3372 41.5379C87.1012 40.8651 86.9447 40.3815 86.7902 39.7797C86.7192 39.4959 86.6587 39.2062 86.6011 38.9218L86.5045 38.3492L86.4785 38.1571C86.4352 37.837 86.4439 37.901 86.4993 38.3521C86.4993 38.3521 86.437 36.7193 86.439 36.601C86.4493 36.2781 86.47 35.9493 86.4989 35.6228C86.5066 35.5633 86.569 34.8938 86.5206 35.4175C86.4723 35.9411 86.5793 35.0948 86.599 35.0078C86.723 34.4046 86.8864 33.8102 87.0881 33.2284L87.2673 32.7409C87.4097 32.3226 86.9548 33.4072 87.2507 32.7848C87.4129 32.4379 87.5602 32.1133 87.7603 31.7726C88.0573 31.2253 88.5418 30.7168 88.8077 30.1389C88.6107 30.595 88.5346 30.4727 88.7067 30.265L89.1225 29.7815C89.3431 29.5256 89.5801 29.2743 89.823 29.0334C90.3103 28.5468 90.823 28.0864 91.359 27.654C91.6398 27.4192 91.3612 27.4873 91.2023 27.7426C91.3249 27.6187 91.4665 27.5152 91.6219 27.4362C91.9523 27.2079 92.2747 26.9978 92.5891 26.8061C93.1895 26.441 93.8081 26.1069 94.4427 25.8051C94.6882 25.6662 94.9602 25.5742 95.2204 25.4614C95.89 25.1582 94.563 25.6887 95.257 25.4407C95.4575 25.3686 95.655 25.2912 95.8294 25.2338C97.1821 24.7876 98.5717 24.4623 99.9819 24.262C100.171 24.2307 100.468 24.1106 99.8427 24.2719C100.019 24.2419 100.197 24.2264 100.375 24.2256C100.691 24.1985 101.03 24.1649 101.329 24.1683C102.073 24.142 102.818 24.1573 103.561 24.2143C103.921 24.2405 104.275 24.2697 104.624 24.3018C104.738 24.3201 105.523 24.4407 104.803 24.3248L105.271 24.3973C106.039 24.535 106.821 24.6988 107.579 24.9042C108.336 25.1096 109.102 25.3789 109.852 25.6438C110.221 25.7725 110.591 25.9146 110.958 26.0515L111.398 26.2303C112.126 26.507 110.839 25.9743 111.568 26.2994C113.017 26.9493 114.43 27.6771 115.801 28.4798C117.187 29.2949 118.525 30.1848 119.825 31.1305C120.115 31.3385 120.408 31.5517 120.699 31.7731L121.18 32.1351C120.67 31.7343 121.026 32.0222 121.156 32.0934C121.84 32.6437 122.529 33.1911 123.203 33.7607C127.757 37.6145 131.905 41.9226 135.584 46.6182L136.277 47.5146C136.407 47.6825 136.477 47.9529 136.215 47.4049C136.297 47.5326 136.388 47.6536 136.489 47.7669C136.983 48.4318 137.471 49.0997 137.947 49.7817C138.79 50.9793 139.613 52.2021 140.4 53.4456C142.013 55.9788 143.475 58.5495 144.831 61.2008C145.515 62.5436 146.167 63.8908 146.795 65.2795C147.09 65.9305 147.379 66.5872 147.662 67.2495L148.056 68.1909L148.269 68.7118C148.579 69.4668 148.122 68.3191 148.349 68.9145C149.419 71.6585 150.387 74.44 151.215 77.2664C152.042 80.0927 152.783 83.1062 153.362 86.0663C153.651 87.5521 153.903 89.0408 154.118 90.5323C154.218 91.2059 154.309 91.8782 154.39 92.5492L154.408 92.6772L154.463 93.1284L154.599 94.4779C155.174 100.408 155.169 106.381 154.585 112.311C154.525 113.034 154.441 113.737 154.353 114.448L154.23 115.448L154.189 115.74L154.116 116.257C153.889 117.709 153.633 119.157 153.334 120.601C152.733 123.513 151.983 126.392 151.087 129.228C150.635 130.655 150.15 132.079 149.63 133.499C149.379 134.165 149.125 134.825 148.858 135.486L148.465 136.399C148.176 137.107 148.714 135.816 148.409 136.52L148.145 137.138C146.959 139.85 145.645 142.498 144.203 145.083C142.761 147.669 141.195 150.181 139.506 152.622C138.653 153.856 137.772 155.065 136.863 156.261C136.539 156.7 136.863 156.261 136.929 156.183C136.796 156.362 136.655 156.538 136.534 156.703C136.414 156.868 136.166 157.173 135.974 157.406C135.464 158.053 134.932 158.685 134.409 159.319C130.589 163.858 126.36 168.038 121.776 171.804C121.227 172.26 120.667 172.708 120.109 173.148L119.308 173.767C119.272 173.787 118.682 174.245 119.094 173.936C119.505 173.627 118.762 174.179 118.695 174.231C117.52 175.103 116.326 175.949 115.112 176.769C112.659 178.429 110.132 179.969 107.53 181.391C104.899 182.833 102.196 184.149 99.4508 185.317C99.1407 185.451 98.8328 185.577 98.5196 185.706L97.9985 185.918C97.4826 186.127 98.0351 185.897 98.1134 185.853C97.3677 186.192 96.5725 186.456 95.8048 186.732C94.4362 187.238 93.047 187.708 91.6557 188.137C88.8964 188.995 86.0995 189.715 83.265 190.294C82.8829 190.39 82.5233 190.561 82.2069 190.795C81.8906 191.03 81.6235 191.325 81.421 191.663C81.2185 192.001 81.0846 192.375 81.0269 192.765C80.9692 193.155 80.9888 193.552 81.0847 193.934C81.2952 194.696 81.7915 195.348 82.4705 195.753C83.1494 196.158 83.9586 196.286 84.7296 196.11C97.0626 193.529 108.748 188.483 119.084 181.276C129.598 173.99 138.634 164.775 145.712 154.12C152.705 143.631 157.45 131.808 159.651 119.397C161.801 106.731 161.406 93.7641 158.491 81.2535C155.63 68.9039 150.413 57.2227 143.127 46.8494C139.432 41.5575 135.195 36.6651 130.485 32.2512C125.64 27.7357 120.271 23.5238 114.139 20.9148C108.008 18.3057 100.998 17.2008 94.4929 19.4008C88.3456 21.5019 82.8684 25.9807 81.0602 32.4219C77.5329 44.9989 89.2046 56.8238 100.934 58.7732C113.411 60.8506 126.718 54.9656 133.356 44.0951C139.718 33.6767 138.635 19.4223 131.491 9.65251C129.637 7.10883 127.412 4.85753 124.891 2.97364C123.628 2.0341 121.477 2.74149 120.79 4.06105C119.957 5.63526 120.521 7.15618 121.871 8.16377Z" fill="#130E54"/>
<path d="M93.0773 171.754C85.5863 178.352 78.0898 184.948 70.5878 191.542C68.9503 192.986 69.7349 196.126 71.9092 196.557L102.574 202.773L111.233 204.523C112.782 204.825 114.545 204.089 114.925 202.433C115.273 200.941 114.478 199.074 112.836 198.743C102.614 196.666 92.3903 194.595 82.1653 192.53L73.5121 190.776L74.8283 195.793C82.3228 189.194 89.8194 182.598 97.3179 176.005C97.8764 175.442 98.1889 174.68 98.187 173.886C98.1851 173.093 97.8688 172.333 97.3075 171.772C96.7372 171.225 95.9776 170.918 95.1867 170.916C94.3958 170.915 93.6347 171.218 93.0617 171.763L93.0773 171.754Z" fill="#130E54"/>
</g>
<defs>
<clipPath id="clip0_234_204">
<rect width="171" height="145" fill="white" transform="translate(126.477 0.379883) rotate(60.4887)"/>
</clipPath>
</defs>
</svg>
